<?xml version="1.0" encoding="utf-8"?>
<!-- Generator: Adobe Illustrator 16.0.0, SVG Export Plug-In . SVG Version: 6.00 Build 0)  -->
<!DOCTYPE svg PUBLIC "-//W3C//DTD SVG 1.1//EN" "http://www.w3.org/Graphics/SVG/1.1/DTD/svg11.dtd">
<svg version="1.1" id="Layer_1" xmlns="http://www.w3.org/2000/svg" xmlns:xlink="http://www.w3.org/1999/xlink" x="0px" y="0px"
	 width="300px" height="200px" viewBox="0 0 300 200" enable-background="new 0 0 300 200" xml:space="preserve">
<polyline fill="none" stroke="#000000" stroke-width="1.0596" stroke-miterlimit="10" points="227.986,141.761 227.986,161.562 
	184.828,161.562 176.705,161.562 42.594,161.562 42.594,154.234 "/>
<g>
	<polyline fill="none" stroke="#000000" stroke-width="1.1044" stroke-miterlimit="10" points="293.282,102.018 299.22,104.502 
		288.729,106.896 293.975,109.195 	"/>
	<polyline fill="none" stroke="#000000" stroke-width="1.1044" stroke-miterlimit="10" points="293.282,108.874 299.22,111.358 
		288.729,113.751 293.975,116.053 	"/>
	<polyline fill="none" stroke="#000000" stroke-width="1.1044" stroke-miterlimit="10" points="293.282,115.811 299.22,118.296 
		288.729,120.688 293.975,122.989 	"/>
	<polyline fill="none" stroke="#000000" stroke-width="1.1044" stroke-miterlimit="10" points="293.282,122.713 299.22,125.2 
		288.729,127.593 293.975,129.895 	"/>
	<polyline fill="none" stroke="#000000" stroke-width="1.1044" stroke-miterlimit="10" points="293.282,129.618 299.22,132.103 
		288.729,134.495 293.975,136.797 	"/>
</g>
<path fill="none" stroke="#000000" stroke-width="1.1044" stroke-miterlimit="10" d="M227.857,92.615"/>
<path fill="none" stroke="#000000" stroke-width="1.1044" stroke-miterlimit="10" d="M254.153,92.615v9.34
	c-3.647,0.486-6.574,2.437-6.574,4.748c0,2.311,2.927,4.261,6.574,4.748c3.649,0.488,6.574-0.489,6.574-1.827
	c0-1.337-2.925-2.312-6.574-1.824c-3.647,0.485-6.574,2.436-6.574,4.747c0,2.311,2.927,4.261,6.574,4.748
	c3.649,0.487,6.574-0.488,6.574-1.826c0-1.337-2.925-2.313-6.574-1.826c-3.647,0.487-6.574,2.437-6.574,4.748
	s2.927,4.262,6.574,4.748c3.649,0.487,6.574-0.488,6.574-1.825s-2.925-2.314-6.574-1.827c-3.647,0.487-6.574,2.438-6.574,4.748
	c0,2.312,2.927,4.262,6.574,4.748c3.649,0.486,6.574-0.488,6.574-1.825c0-1.338-2.925-2.313-6.574-1.827
	c-3.647,0.487-6.574,2.438-6.574,4.747c0,2.312,2.927,4.263,6.574,4.749v6.935"/>
<polyline fill="none" stroke="#000000" stroke-width="1.1044" stroke-miterlimit="10" points="293.975,136.803 293.975,160.768 
	254.153,160.768 254.153,134.826 "/>
<polyline fill="none" stroke="#000000" stroke-width="1.1044" stroke-miterlimit="10" points="254.153,101.955 254.153,78.074 
	293.975,78.074 293.975,102.187 "/>
<path fill="none" stroke="#000000" stroke-width="1.1044" stroke-miterlimit="10" d="M282.797,160.768"/>
<line fill="none" stroke="#000000" stroke-width="1.1044" stroke-miterlimit="10" x1="275.065" y1="160.768" x2="275.065" y2="171.726"/>
<line fill="none" stroke="#000000" stroke-width="1.1044" stroke-miterlimit="10" x1="264.108" y1="171.726" x2="286.023" y2="171.726"/>
<path fill="none" stroke="#000000" stroke-width="1.1044" stroke-miterlimit="10" d="M270.683,178.298h8.767 M268.491,176.106
	h13.149 M266.3,173.917h17.532"/>
<circle stroke="#000000" stroke-width="1.1044" stroke-miterlimit="10" cx="254.154" cy="78.074" r="2.087"/>
<circle stroke="#000000" stroke-width="1.1044" stroke-miterlimit="10" cx="227.986" cy="75.865" r="2.209"/>
<text transform="matrix(1 0 0 1 210.3721 124.0938)" font-family="'MyriadPro-Regular'" font-size="13.2528">L</text>
<text transform="matrix(0.583 0 0 0.583 216.627 127.7715)" font-family="'MyriadPro-Regular'" font-size="11.044">1</text>
<text transform="matrix(1 0 0 1 263.3828 124.0938)" font-family="'MyriadPro-Regular'" font-size="13.2528">L</text>
<text transform="matrix(0.583 0 0 0.583 269.6377 127.7715)" font-family="'MyriadPro-Regular'" font-size="11.044">2</text>
<text transform="matrix(1 0 0 1 259.1035 91.5137)" fill="#2E3192" font-family="'MyriadPro-Regular'" font-size="13.2528">I</text>
<text transform="matrix(0.583 0 0 0.583 262.2705 95.1914)" fill="#2E3192" font-family="'MyriadPro-Regular'" font-size="11.044">2</text>
<g>
	<g>
		<path d="M268.718,97.4c0,0-0.101-1.043-0.016-2.614c0.056-0.783,0.137-1.7,0.335-2.667c0.083-0.487,0.208-0.982,0.354-1.481
			c0.117-0.508,0.34-0.993,0.511-1.496c0.217-0.483,0.44-0.97,0.697-1.429c0.3-0.432,0.522-0.913,0.872-1.282
			c0.331-0.381,0.619-0.785,0.991-1.071c0.359-0.296,0.661-0.633,1.025-0.825c0.348-0.217,0.666-0.417,0.949-0.593
			c0.307-0.129,0.574-0.241,0.794-0.333c0.443-0.183,0.697-0.287,0.697-0.287l0.259,0.883c0,0-0.234,0.083-0.644,0.228
			c-0.205,0.072-0.455,0.16-0.741,0.261c-0.266,0.147-0.565,0.312-0.892,0.493c-0.347,0.154-0.634,0.45-0.981,0.704
			c-0.36,0.243-0.644,0.605-0.975,0.944c-0.349,0.325-0.58,0.769-0.889,1.163c-0.269,0.422-0.508,0.876-0.743,1.331
			c-0.19,0.476-0.434,0.934-0.574,1.423c-0.169,0.479-0.318,0.958-0.427,1.432c-0.248,0.94-0.378,1.842-0.476,2.616
			C268.675,96.353,268.718,97.4,268.718,97.4z"/>
		<g>
			<path d="M279.364,83.319c-1.462,0.813-3.234,2.089-4.268,3.311l0.541-2.74l-1.337-2.451
				C275.652,82.296,277.727,82.982,279.364,83.319z"/>
		</g>
	</g>
</g>
<text transform="matrix(1 0 0 1 211.1172 95.9976)" fill="#2E3192" font-family="'MyriadPro-Regular'" font-size="13.2528">I</text>
<text transform="matrix(0.583 0 0 0.583 214.2842 99.6753)" fill="#2E3192" font-family="'MyriadPro-Regular'" font-size="11.044">1</text>
<text transform="matrix(1 0 0 1 163.6279 65.1729)" fill="#2E3192" font-family="'MyriadPro-Regular'" font-size="13.2528">I</text>
<text transform="matrix(0.583 0 0 0.583 166.7949 68.8506)" fill="#2E3192" font-family="'MyriadPro-Regular'" font-size="11.044">C</text>
<text transform="matrix(1 0 0 1 106.4756 127.5713)" fill="#2E3192" font-family="'MyriadPro-Regular'" font-size="13.2528">I</text>
<text transform="matrix(0.583 0 0 0.583 109.6431 131.249)" fill="#2E3192" font-family="'MyriadPro-Regular'" font-size="11.044">E</text>
<text transform="matrix(1 0 0 1 53.8613 85.9751)" fill="#2E3192" font-family="'MyriadPro-Regular'" font-size="13.2528">I</text>
<text transform="matrix(0.583 0 0 0.583 57.0288 89.6528)" fill="#2E3192" font-family="'MyriadPro-Regular'" font-size="11.044">B</text>
<text transform="matrix(1 0 0 1 275.0654 105.1621)" font-family="'MyriadPro-Regular'" font-size="13.2528">R</text>
<text transform="matrix(0.583 0 0 0.583 282.1953 108.8398)" font-family="'MyriadPro-Regular'" font-size="11.044">L</text>
<text transform="matrix(1 0 0 1 250.3047 71.082)" fill="#75B443" font-family="'MyriadPro-Regular'" font-size="13.2528">V</text>
<text transform="matrix(0.583 0 0 0.583 257.7002 74.7598)" fill="#75B443" font-family="'MyriadPro-Regular'" font-size="11.044">2</text>
<text transform="matrix(1 0 0 1 222.3867 68.873)" fill="#75B443" font-family="'MyriadPro-Regular'" font-size="13.2528">V</text>
<text transform="matrix(0.583 0 0 0.583 229.7822 72.5508)" fill="#75B443" font-family="'MyriadPro-Regular'" font-size="11.044">1</text>
<text transform="matrix(1 0 0 1 136.7847 68.873)" fill="#75B443" font-family="'MyriadPro-Regular'" font-size="13.2528">V</text>
<text transform="matrix(0.583 0 0 0.583 144.1797 72.5508)" fill="#75B443" font-family="'MyriadPro-Regular'" font-size="11.044">C</text>
<text transform="matrix(1 0 0 1 129.79 123.8164)" fill="#75B443" font-family="'MyriadPro-Regular'" font-size="13.2528">V</text>
<text transform="matrix(0.583 0 0 0.583 137.1851 127.4941)" fill="#75B443" font-family="'MyriadPro-Regular'" font-size="11.044">E</text>
<text transform="matrix(1 0 0 1 30.0645 83.3184)" fill="#75B443" font-family="'MyriadPro-Regular'" font-size="13.2528">V</text>
<text transform="matrix(0.583 0 0 0.583 37.4595 86.9961)" fill="#75B443" font-family="'MyriadPro-Regular'" font-size="11.044">B</text>
<g>
	<g>
		<path d="M208.907,82.615c0,0,1.043-0.101,2.613-0.016c0.783,0.056,1.701,0.137,2.668,0.335c0.487,0.083,0.981,0.208,1.481,0.354
			c0.509,0.117,0.993,0.34,1.496,0.511c0.483,0.217,0.97,0.44,1.428,0.697c0.433,0.299,0.913,0.522,1.282,0.872
			c0.381,0.332,0.785,0.619,1.071,0.991c0.297,0.359,0.633,0.661,0.824,1.025c0.218,0.348,0.417,0.667,0.594,0.949
			c0.129,0.307,0.241,0.574,0.333,0.794c0.183,0.443,0.287,0.697,0.287,0.697l-0.883,0.259c0,0-0.082-0.234-0.228-0.643
			c-0.072-0.206-0.16-0.456-0.262-0.742c-0.146-0.265-0.312-0.564-0.492-0.891c-0.154-0.347-0.45-0.634-0.704-0.981
			c-0.243-0.36-0.605-0.644-0.943-0.975c-0.325-0.349-0.77-0.581-1.163-0.889c-0.422-0.268-0.876-0.507-1.331-0.743
			c-0.476-0.19-0.934-0.434-1.423-0.575c-0.479-0.169-0.957-0.318-1.432-0.427c-0.939-0.248-1.842-0.378-2.616-0.476
			C209.955,82.572,208.907,82.615,208.907,82.615z"/>
		<g>
			<path d="M222.988,93.262c-0.812-1.462-2.089-3.234-3.312-4.267l2.74,0.541l2.451-1.337
				C224.012,89.55,223.325,91.624,222.988,93.262z"/>
		</g>
	</g>
</g>
<g>
	<g>
		<path d="M159,70.201c0,0,1.065,0.093,2.662,0.233c0.799,0.069,1.731,0.15,2.729,0.237c1.001,0.042,2.068,0.088,3.136,0.133
			c4.261,0.182,8.521,0.363,8.521,0.363l-0.029,0.924c0,0-4.268-0.414-8.534-0.827c-1.064-0.104-2.129-0.207-3.127-0.304
			c-0.992-0.14-1.918-0.271-2.712-0.384C160.059,70.352,159,70.201,159,70.201z"/>
		<g>
			<path d="M179.369,71.686c-1.586,0.531-3.563,1.46-4.803,2.472l1.035-2.594l-0.864-2.655
				C175.908,69.999,177.82,71.054,179.369,71.686z"/>
		</g>
	</g>
</g>
<g>
	<g>
		<path d="M107.956,115.787c0,0,0.728,0.029,1.803,0.23c0.534,0.112,1.161,0.246,1.812,0.466c0.658,0.2,1.334,0.495,1.998,0.822
			c0.316,0.192,0.651,0.357,0.949,0.571c0.293,0.221,0.607,0.407,0.858,0.656c0.26,0.237,0.528,0.454,0.729,0.712
			c0.206,0.251,0.435,0.466,0.576,0.716c0.157,0.24,0.3,0.46,0.427,0.655c0.099,0.211,0.186,0.396,0.257,0.547
			c0.141,0.306,0.221,0.48,0.221,0.48l-0.812,0.273c0,0-0.06-0.159-0.166-0.438c-0.053-0.141-0.118-0.311-0.192-0.506
			c-0.102-0.184-0.216-0.391-0.34-0.616c-0.109-0.237-0.305-0.443-0.475-0.688c-0.165-0.251-0.398-0.467-0.623-0.706
			c-0.215-0.25-0.499-0.444-0.759-0.675c-0.267-0.223-0.574-0.403-0.863-0.61c-0.613-0.36-1.248-0.696-1.877-0.939
			c-0.622-0.263-1.229-0.439-1.75-0.59C108.68,115.87,107.956,115.787,107.956,115.787z"/>
		<g>
			<path d="M117.566,125.096c-0.798-1.47-2.056-3.256-3.267-4.301l2.734,0.568l2.465-1.312
				C118.628,121.395,117.92,123.461,117.566,125.096z"/>
		</g>
	</g>
</g>
<g>
	<g>
		<path d="M49.044,92.244c0,0,0.43,0.032,1.074,0.08c0.322,0.02,0.698,0.061,1.102,0.073c0.403,0.011,0.834,0.023,1.264,0.035
			c1.714,0.048,3.428,0.096,3.428,0.096l-0.038,0.743c0,0-1.715-0.234-3.431-0.469c-0.427-0.059-0.854-0.117-1.254-0.172
			c-0.4-0.056-0.769-0.137-1.087-0.191C49.467,92.322,49.044,92.244,49.044,92.244z"/>
		<g>
			<path d="M59.229,92.987c-1.585,0.534-3.56,1.468-4.797,2.483l1.029-2.596L54.59,90.22C55.764,91.308,57.679,92.358,59.229,92.987
				z"/>
		</g>
	</g>
</g>
<text transform="matrix(1 0 0 1 235.9932 185.1992)" font-family="'MyriadPro-Regular'" font-size="13.2528">M</text>
<g>
	<g>
		<path fill="none" stroke="#000000" stroke-width="1.1044" stroke-miterlimit="10" d="M256.945,166.489
			c-1.359,3.14-5.124,7.428-15.551,7.428c-10.43,0-14.194-4.292-15.552-7.432"/>
		<g>
			<path d="M257.713,163.247c-0.952,1.375-2.396,3.014-3.714,3.922l2.779-0.27l2.309,1.571
				C258.367,167.041,257.888,164.91,257.713,163.247z"/>
		</g>
		<g>
			<path d="M225.076,163.247c0.952,1.375,2.396,3.014,3.715,3.921l-2.78-0.269l-2.308,1.571
				C224.423,167.041,224.902,164.91,225.076,163.247z"/>
		</g>
	</g>
</g>
<line fill="none" x1="236.546" y1="542.948" x2="236.546" y2="-331.735"/>
<line fill="none" x1="236.546" y1="-331.735" x2="236.546" y2="542.948"/>
<line fill="none" x1="236.546" y1="542.948" x2="236.546" y2="-331.735"/>
<line fill="none" x1="236.546" y1="542.948" x2="236.546" y2="-331.735"/>
<line fill="none" x1="236.546" y1="-331.735" x2="236.546" y2="542.948"/>
<line fill="none" x1="236.546" y1="542.948" x2="236.546" y2="-331.735"/>
<line fill="none" x1="173.454" y1="542.504" x2="173.454" y2="-332.18"/>
<line fill="none" x1="173.454" y1="-332.18" x2="173.454" y2="542.504"/>
<line fill="none" x1="236.546" y1="542.948" x2="236.546" y2="-331.735"/>
<line fill="none" x1="236.546" y1="542.948" x2="236.546" y2="-331.735"/>
<line fill="none" x1="236.546" y1="-331.735" x2="236.546" y2="542.948"/>
<line fill="none" x1="236.546" y1="542.948" x2="236.546" y2="-331.735"/>
<line fill="none" x1="236.546" y1="542.948" x2="236.546" y2="-331.735"/>
<line fill="none" x1="236.546" y1="-331.735" x2="236.546" y2="542.948"/>
<line fill="none" x1="236.546" y1="542.948" x2="236.546" y2="-331.735"/>
<line fill="none" x1="236.546" y1="542.948" x2="236.546" y2="-331.735"/>
<line fill="none" x1="236.546" y1="-331.735" x2="236.546" y2="542.948"/>
<path fill="#FFFFFF" d="M34.727,97.368c0,6.292-5.101,11.391-11.391,11.391c-6.292,0-11.391-5.1-11.391-11.391
	c0-6.291,5.1-11.391,11.391-11.391C29.626,85.977,34.727,91.077,34.727,97.368"/>
<circle fill="none" stroke="#000000" stroke-width="1.0596" stroke-miterlimit="10" cx="23.335" cy="97.368" r="11.391"/>
<path fill="#FFFFFF" d="M139.488,97.368c0,9.511-7.71,17.219-17.219,17.219c-9.508,0-17.219-7.708-17.219-17.219
	c0-9.509,7.71-17.219,17.219-17.219C131.778,80.149,139.488,87.859,139.488,97.368"/>
<circle fill="none" stroke="#000000" stroke-width="1.0596" stroke-miterlimit="10" cx="122.269" cy="97.368" r="17.219"/>
<line fill="none" stroke="#000000" stroke-width="1.0596" stroke-miterlimit="10" x1="34.727" y1="97.368" x2="114.013" y2="97.368"/>
<line fill="none" stroke="#000000" stroke-width="1.0596" stroke-miterlimit="10" x1="114.013" y1="89.863" x2="114.013" y2="104.873"/>
<line fill="none" stroke="#000000" stroke-width="1.0596" stroke-miterlimit="10" x1="114.013" y1="102.048" x2="119.179" y2="105.75"/>
<polygon points="117.011,107.445 122.269,107.963 120.09,103.152 "/>
<line fill="none" stroke="#000000" stroke-width="1.0596" stroke-miterlimit="10" x1="122.269" y1="155.47" x2="122.269" y2="161.562"/>
<line fill="none" stroke="#000000" stroke-width="1.0596" stroke-miterlimit="10" x1="122.269" y1="107.963" x2="122.269" y2="125.096"/>
<path fill="none" stroke="#000000" stroke-width="1.0596" stroke-miterlimit="10" d="M217.089,76.785l10.764,0.01l0.005,22.968
	c3.649,0.487,6.574,2.438,6.574,4.749c0,2.311-2.925,4.261-6.574,4.748c-3.648,0.486-6.575-0.489-6.575-1.826
	c0-1.338,2.927-2.312,6.575-1.826c3.649,0.486,6.574,2.436,6.574,4.748c0,2.311-2.925,4.261-6.574,4.748
	c-3.648,0.487-6.575-0.49-6.575-1.827s2.927-2.312,6.575-1.826c3.649,0.487,6.574,2.438,6.574,4.749s-2.925,4.261-6.574,4.747
	c-3.648,0.488-6.575-0.488-6.575-1.825c0-1.338,2.927-2.313,6.575-1.826c3.649,0.487,6.574,2.438,6.574,4.748
	c0,2.312-2.925,4.261-6.574,4.747c-3.648,0.487-6.575-0.487-6.575-1.825c0-1.337,2.927-2.314,6.575-1.826
	c3.649,0.487,6.574,2.438,6.574,4.747c0,2.312-2.925,4.263-6.574,4.749v2.191v6.935"/>
<line fill="none" stroke="#000000" stroke-width="1.0596" stroke-miterlimit="10" x1="122.269" y1="76.661" x2="182.31" y2="76.745"/>
<polyline fill="none" stroke="#000000" stroke-width="1.0596" stroke-miterlimit="10" points="122.269,66.462 122.269,86.596 
	114.013,93.394 "/>
<line fill="none" stroke="#000000" stroke-width="1.0596" stroke-miterlimit="10" x1="122.269" y1="26.462" x2="122.347" y2="36.304"/>
<text transform="matrix(1 0 0 1 114.0132 21.0864)" font-family="'MyriadPro-Regular'" font-size="7.8199">+40V</text>
<path fill="#FFFFFF" d="M13.994,97.987c0,0,1.236,4.503,3.355,4.503c2.12,0,1.678-10.243,6.093-10.243
	c4.415,0,2.737,10.243,6.269,10.243c2.361,0,2.349-4.576,2.966-7.611"/>
<path fill="none" stroke="#000000" stroke-width="1.0596" stroke-miterlimit="10" d="M13.994,97.987c0,0,1.236,4.503,3.355,4.503
	c2.12,0,1.678-10.243,6.093-10.243c4.415,0,2.737,10.243,6.269,10.243c2.361,0,2.349-4.576,2.966-7.611"/>
<text transform="matrix(1 0 0 1 141.939 92.2461)" fill="#414042" font-family="'MyriadPro-Regular'" font-size="6.3577">NTE 2328</text>
<text transform="matrix(1 0 0 1 141.939 99.875)" fill="#414042" font-family="'MyriadPro-Regular'" font-size="6.3577">(NPN)</text>
<polyline fill="none" stroke="#000000" stroke-width="1.0596" stroke-miterlimit="10" points="42.594,124.058 42.594,87.037 
	42.594,68.582 "/>
<text transform="matrix(1 0 0 1 14.7935 120.1494)" font-family="'MyriadPro-Regular'" font-size="6.3577">1Khz</text>
<text transform="matrix(0 1 -1 0 50.8398 129.668)" fill="#414042" font-family="'MyriadPro-Regular'" font-size="6.3576">20 Ohm</text>
<text transform="matrix(0 1 -1 0 129.7007 129.0078)" fill="#414042" font-family="'MyriadPro-Regular'" font-size="6.3576">2.8 Ohm</text>
<polyline fill="none" stroke="#000000" stroke-width="1.0596" stroke-miterlimit="10" points="122.347,125.222 117.566,128.272 
	126.973,132.598 117.566,138.162 126.973,143.46 117.566,148.493 126.973,153.261 122.269,155.381 "/>
<text transform="matrix(0 1 -1 0 130.6572 40.0771)" fill="#414042" font-family="'MyriadPro-Regular'" font-size="6.3576">24.2  Ohm</text>
<polyline fill="none" stroke="#000000" stroke-width="1.0596" stroke-miterlimit="10" points="122.347,36.304 117.566,39.354 
	126.973,43.681 117.566,49.244 126.973,54.542 117.566,59.576 126.973,64.343 122.269,66.462 "/>
<polyline fill="none" stroke="#000000" stroke-width="1.0596" stroke-miterlimit="10" points="42.67,124.058 37.89,127.108 
	47.297,131.436 37.89,136.997 47.297,142.296 37.89,147.328 47.297,152.098 42.593,154.217 "/>
<text transform="matrix(0 1 -1 0 50.8408 42.4043)" fill="#414042" font-family="'MyriadPro-Regular'" font-size="6.3576">26 Ohm</text>
<polyline fill="none" stroke="#000000" stroke-width="1.0596" stroke-miterlimit="10" points="42.67,38.423 37.89,41.474 
	47.297,45.801 37.89,51.364 47.297,56.661 37.89,61.694 47.297,66.463 42.593,68.582 "/>
<line fill="none" stroke="#000000" stroke-width="1.0596" stroke-miterlimit="10" x1="42.594" y1="26.462" x2="42.67" y2="38.424"/>
<g>
	<path fill="none" d="M259.369,103.293"/>
</g>
<line fill="none" stroke="#000000" stroke-width="2.2088" stroke-miterlimit="10" x1="180.633" y1="117.188" x2="166.276" y2="117.188"/>
<line fill="none" stroke="#000000" stroke-width="2.2088" stroke-miterlimit="10" x1="180.633" y1="124.364" x2="166.276" y2="124.364"/>
<line fill="none" stroke="#000000" stroke-width="1.0657" stroke-miterlimit="10" x1="147.652" y1="160.596" x2="147.652" y2="171.17"/>
<line fill="none" stroke="#000000" stroke-width="1.0657" stroke-miterlimit="10" x1="137.078" y1="171.17" x2="158.224" y2="171.17"/>
<path fill="none" stroke="#000000" stroke-width="1.0657" stroke-miterlimit="10" d="M143.422,177.513h8.458 M141.307,175.396
	h12.688 M139.193,173.285h16.917"/>
<line fill="none" stroke="#000000" stroke-width="1.0596" stroke-miterlimit="10" x1="173.454" y1="76.661" x2="173.454" y2="117.188"/>
<line fill="none" stroke="#000000" stroke-width="1.0596" stroke-miterlimit="10" x1="173.454" y1="125.096" x2="173.454" y2="161.562"/>
<g>
	<polyline fill="none" stroke="#000000" stroke-width="1.1044" stroke-miterlimit="10" points="182.31,76.882 184.794,70.943 
		187.187,81.436 189.487,76.189 	"/>
	<polyline fill="none" stroke="#000000" stroke-width="1.1044" stroke-miterlimit="10" points="189.166,76.882 191.651,70.943 
		194.043,81.436 196.345,76.189 	"/>
	<polyline fill="none" stroke="#000000" stroke-width="1.1044" stroke-miterlimit="10" points="196.104,76.882 198.588,70.943 
		200.98,81.436 203.282,76.189 	"/>
	<polyline fill="none" stroke="#000000" stroke-width="1.1044" stroke-miterlimit="10" points="203.006,76.882 205.491,70.943 
		207.883,81.436 210.185,76.189 	"/>
	<polyline fill="none" stroke="#000000" stroke-width="1.1044" stroke-miterlimit="10" points="209.91,76.882 212.396,70.943 
		214.787,81.436 217.089,76.189 	"/>
</g>
<text transform="matrix(1 0 0 1 196.3438 63.7422)" font-family="'MyriadPro-Regular'" font-size="13.2528">R</text>
<text transform="matrix(0.583 0 0 0.583 203.4736 67.4199)" font-family="'MyriadPro-Regular'" font-size="11.044">Coil</text>
<text transform="matrix(1 0 0 1 102.3433 51.3833)" font-family="'MyriadPro-Regular'" font-size="13.2528">R</text>
<text transform="matrix(0.583 0 0 0.583 109.4731 55.061)" font-family="'MyriadPro-Regular'" font-size="11.044">C</text>
<text transform="matrix(1 0 0 1 102.3433 141.7607)" font-family="'MyriadPro-Regular'" font-size="13.2528">R</text>
<text transform="matrix(0.583 0 0 0.583 109.4731 145.4385)" font-family="'MyriadPro-Regular'" font-size="11.044">E</text>
<text transform="matrix(1 0 0 1 18.3438 56.7422)" font-family="'MyriadPro-Regular'" font-size="13.2528">R</text>
<text transform="matrix(0.583 0 0 0.583 25.4736 60.4199)" font-family="'MyriadPro-Regular'" font-size="11.044">1</text>
<text transform="matrix(1 0 0 1 18.3438 151.6621)" font-family="'MyriadPro-Regular'" font-size="13.2528">R</text>
<text transform="matrix(0.583 0 0 0.583 25.4736 155.3398)" font-family="'MyriadPro-Regular'" font-size="11.044">2</text>
<text transform="matrix(1 0 0 1 185.8984 89.3047)" fill="#414042" font-family="'MyriadPro-Regular'" font-size="6.3577">1.2 Ohm</text>
<text transform="matrix(0 1 -1 0 278.7461 110.3262)" fill="#414042" font-family="'MyriadPro-Regular'" font-size="6.3577">100 Ohm</text>
<text transform="matrix(1 0 0 1 36.7861 23.2212)" font-family="'MyriadPro-Regular'" font-size="7.8199">+6V</text>
<g>
	<g>
		
			<line fill="none" stroke="#ED1C24" stroke-width="1.3839" stroke-miterlimit="10" x1="67.318" y1="180.783" x2="65.243" y2="180.783"/>
		
			<line fill="none" stroke="#ED1C24" stroke-width="1.3839" stroke-miterlimit="10" stroke-dasharray="3.9444,3.9444" x1="61.298" y1="180.783" x2="8.048" y2="180.783"/>
		<polyline fill="none" stroke="#ED1C24" stroke-width="1.3839" stroke-miterlimit="10" points="6.076,180.783 4,180.783 4,178.707 
					"/>
		
			<line fill="none" stroke="#ED1C24" stroke-width="1.3839" stroke-miterlimit="10" stroke-dasharray="4.1503,4.1503" x1="4" y1="174.557" x2="4" y2="18.919"/>
		<polyline fill="none" stroke="#ED1C24" stroke-width="1.3839" stroke-miterlimit="10" points="4,16.844 4,14.769 6.076,14.769 		
			"/>
		
			<line fill="none" stroke="#ED1C24" stroke-width="1.3839" stroke-miterlimit="10" stroke-dasharray="3.9444,3.9444" x1="10.021" y1="14.769" x2="63.271" y2="14.769"/>
		<polyline fill="none" stroke="#ED1C24" stroke-width="1.3839" stroke-miterlimit="10" points="65.243,14.769 67.318,14.769 
			67.318,16.844 		"/>
		
			<line fill="none" stroke="#ED1C24" stroke-width="1.3839" stroke-miterlimit="10" stroke-dasharray="4.0143,4.0143" x1="67.318" y1="20.859" x2="67.318" y2="91.109"/>
		
			<line fill="none" stroke="#ED1C24" stroke-width="1.3839" stroke-miterlimit="10" x1="67.318" y1="93.116" x2="67.318" y2="95.192"/>
	</g>
</g>
<g>
	<g>
		
			<line fill="none" stroke="#ED1C24" stroke-width="1.3839" stroke-miterlimit="10" x1="67.318" y1="103.152" x2="67.318" y2="105.228"/>
		
			<line fill="none" stroke="#ED1C24" stroke-width="1.3839" stroke-miterlimit="10" stroke-dasharray="4.3223,4.3223" x1="67.318" y1="109.55" x2="67.318" y2="176.546"/>
		
			<line fill="none" stroke="#ED1C24" stroke-width="1.3839" stroke-miterlimit="10" x1="67.318" y1="178.707" x2="67.318" y2="180.783"/>
	</g>
</g>
</svg>
