<?xml version="1.0" encoding="utf-8"?>
<!-- Generator: Adobe Illustrator 16.0.0, SVG Export Plug-In . SVG Version: 6.00 Build 0)  -->
<!DOCTYPE svg PUBLIC "-//W3C//DTD SVG 1.1//EN" "http://www.w3.org/Graphics/SVG/1.1/DTD/svg11.dtd">
<svg version="1.1" id="Layer_1" xmlns="http://www.w3.org/2000/svg" xmlns:xlink="http://www.w3.org/1999/xlink" x="0px" y="0px"
	 width="300px" height="200px" viewBox="0 0 300 200" enable-background="new 0 0 300 200" xml:space="preserve">
<polyline fill="none" stroke="#000000" stroke-width="0.9594" stroke-miterlimit="10" points="212.034,132.667 212.034,150.597 
	172.957,150.597 165.602,150.597 32.307,150.597 32.307,143.961 "/>
<g>
	<polyline fill="none" stroke="#000000" stroke-miterlimit="10" points="281.157,96.68 286.534,98.93 277.034,101.098 
		281.784,103.18 	"/>
	<polyline fill="none" stroke="#000000" stroke-miterlimit="10" points="281.157,102.889 286.534,105.139 277.034,107.305 
		281.784,109.389 	"/>
	<polyline fill="none" stroke="#000000" stroke-miterlimit="10" points="281.157,109.17 286.534,111.42 277.034,113.586 
		281.784,115.67 	"/>
	<polyline fill="none" stroke="#000000" stroke-miterlimit="10" points="281.157,115.42 286.534,117.672 277.034,119.838 
		281.784,121.922 	"/>
	<polyline fill="none" stroke="#000000" stroke-miterlimit="10" points="281.157,121.672 286.534,123.922 277.034,126.088 
		281.784,128.172 	"/>
</g>
<path fill="none" stroke="#000000" stroke-miterlimit="10" d="M211.917,88.167"/>
<path fill="none" stroke="#000000" stroke-miterlimit="10" d="M235.729,88.167v8.457c-3.304,0.44-5.953,2.206-5.953,4.299
	s2.649,3.858,5.953,4.3s5.953-0.443,5.953-1.654s-2.649-2.094-5.953-1.652c-3.304,0.439-5.953,2.205-5.953,4.299
	c0,2.092,2.649,3.857,5.953,4.299s5.953-0.442,5.953-1.653s-2.649-2.095-5.953-1.653c-3.304,0.44-5.953,2.206-5.953,4.299
	s2.649,3.858,5.953,4.299c3.304,0.441,5.953-0.441,5.953-1.652s-2.649-2.096-5.953-1.654s-5.953,2.207-5.953,4.299
	c0,2.094,2.649,3.859,5.953,4.3s5.953-0.442,5.953-1.653s-2.649-2.095-5.953-1.654c-3.304,0.441-5.953,2.207-5.953,4.299
	c0,2.094,2.649,3.859,5.953,4.3v6.279"/>
<polyline fill="none" stroke="#000000" stroke-miterlimit="10" points="281.784,128.178 281.784,149.877 235.729,149.877 
	235.729,126.388 "/>
<polyline fill="none" stroke="#000000" stroke-miterlimit="10" points="235.729,96.624 235.729,75 281.784,75 281.784,96.833 "/>
<path fill="none" stroke="#000000" stroke-miterlimit="10" d="M261.663,149.877"/>
<line fill="none" stroke="#000000" stroke-miterlimit="10" x1="261.663" y1="149.877" x2="261.663" y2="159.799"/>
<line fill="none" stroke="#000000" stroke-miterlimit="10" x1="251.741" y1="159.799" x2="271.585" y2="159.799"/>
<path fill="none" stroke="#000000" stroke-miterlimit="10" d="M257.694,165.75h7.938 M255.71,163.766h11.906 M253.726,161.783
	h15.875"/>
<circle stroke="#000000" stroke-miterlimit="10" cx="235.729" cy="75" r="1.89"/>
<circle stroke="#000000" stroke-miterlimit="10" cx="212.034" cy="73" r="2"/>
<g>
	<g>
		<line fill="none" stroke="#ED1C24" stroke-width="1.2531" stroke-miterlimit="10" x1="151" y1="111.5" x2="151" y2="113.38"/>
		
			<line fill="none" stroke="#ED1C24" stroke-width="1.2531" stroke-miterlimit="10" stroke-dasharray="3.516,3.516" x1="151" y1="116.896" x2="151" y2="164.362"/>
		<polyline fill="none" stroke="#ED1C24" stroke-width="1.2531" stroke-miterlimit="10" points="151,166.12 151,168 149.121,168 		
			"/>
		<polyline fill="none" stroke="#ED1C24" stroke-width="1.2531" stroke-miterlimit="10" stroke-dasharray="3.7241,3.7241" points="
			145.396,168 68.007,168 36.108,168 5.742,168 		"/>
		<polyline fill="none" stroke="#ED1C24" stroke-width="1.2531" stroke-miterlimit="10" points="3.879,168 2,168 2,166.12 		"/>
		
			<line fill="none" stroke="#ED1C24" stroke-width="1.2531" stroke-miterlimit="10" stroke-dasharray="3.758,3.758" x1="2" y1="162.362" x2="2" y2="21.438"/>
		<polyline fill="none" stroke="#ED1C24" stroke-width="1.2531" stroke-miterlimit="10" points="2,19.559 2,17.679 3.879,17.679 		
			"/>
		
			<line fill="none" stroke="#ED1C24" stroke-width="1.2531" stroke-miterlimit="10" stroke-dasharray="3.7241,3.7241" x1="7.604" y1="17.679" x2="147.258" y2="17.679"/>
		<polyline fill="none" stroke="#ED1C24" stroke-width="1.2531" stroke-miterlimit="10" points="149.121,17.679 151,17.679 
			151,19.559 		"/>
		
			<line fill="none" stroke="#ED1C24" stroke-width="1.2531" stroke-miterlimit="10" stroke-dasharray="3.6348,3.6348" x1="151" y1="23.194" x2="151" y2="86.803"/>
		<line fill="none" stroke="#ED1C24" stroke-width="1.2531" stroke-miterlimit="10" x1="151" y1="88.621" x2="151" y2="90.5"/>
	</g>
</g>
<text transform="matrix(1 0 0 1 196.085 116.6699)" font-family="'MyriadPro-Regular'" font-size="12">L</text>
<text transform="matrix(0.583 0 0 0.583 201.749 120)" font-family="'MyriadPro-Regular'" font-size="10">1</text>
<text transform="matrix(1 0 0 1 244.085 116.6699)" font-family="'MyriadPro-Regular'" font-size="12">L</text>
<text transform="matrix(0.583 0 0 0.583 249.749 120)" font-family="'MyriadPro-Regular'" font-size="10">2</text>
<text transform="matrix(1 0 0 1 240.21 87.1704)" fill="#2E3192" font-family="'MyriadPro-Regular'" font-size="12">I</text>
<text transform="matrix(0.583 0 0 0.583 243.0781 90.5005)" fill="#2E3192" font-family="'MyriadPro-Regular'" font-size="10">2</text>
<g>
	<g>
		<path d="M248.916,92.5c0,0-0.091-0.944-0.015-2.367c0.051-0.709,0.124-1.54,0.304-2.416c0.076-0.441,0.188-0.889,0.32-1.341
			c0.106-0.46,0.308-0.899,0.463-1.354c0.196-0.438,0.398-0.878,0.631-1.293c0.271-0.392,0.473-0.827,0.79-1.161
			c0.3-0.345,0.561-0.711,0.897-0.97c0.325-0.268,0.599-0.573,0.929-0.746c0.314-0.197,0.604-0.377,0.859-0.537
			c0.277-0.117,0.52-0.218,0.719-0.302c0.401-0.165,0.631-0.26,0.631-0.26l0.235,0.799c0,0-0.212,0.075-0.583,0.206
			c-0.187,0.065-0.412,0.146-0.672,0.237c-0.24,0.133-0.511,0.283-0.807,0.446c-0.314,0.14-0.574,0.408-0.889,0.637
			c-0.326,0.22-0.583,0.548-0.883,0.854c-0.315,0.294-0.525,0.696-0.805,1.053c-0.243,0.382-0.46,0.794-0.673,1.205
			c-0.172,0.431-0.393,0.846-0.521,1.289c-0.153,0.434-0.288,0.867-0.387,1.296c-0.224,0.852-0.342,1.668-0.431,2.37
			C248.877,91.551,248.916,92.5,248.916,92.5z"/>
		<g>
			<path d="M258.557,79.75c-1.323,0.736-2.929,1.892-3.864,2.998l0.49-2.481l-1.211-2.219
				C255.195,78.823,257.073,79.445,258.557,79.75z"/>
		</g>
	</g>
</g>
<text transform="matrix(1 0 0 1 196.7598 91.2305)" fill="#2E3192" font-family="'MyriadPro-Regular'" font-size="12">I</text>
<text transform="matrix(0.583 0 0 0.583 199.6279 94.5605)" fill="#2E3192" font-family="'MyriadPro-Regular'" font-size="10">1</text>
<text transform="matrix(1 0 0 1 133.7603 63.3198)" fill="#2E3192" font-family="'MyriadPro-Regular'" font-size="12">I</text>
<text transform="matrix(0.583 0 0 0.583 136.6284 66.6499)" fill="#2E3192" font-family="'MyriadPro-Regular'" font-size="10">C</text>
<text transform="matrix(1 0 0 1 66.0103 119.8203)" fill="#2E3192" font-family="'MyriadPro-Regular'" font-size="12">I</text>
<text transform="matrix(0.583 0 0 0.583 68.8784 123.1504)" fill="#2E3192" font-family="'MyriadPro-Regular'" font-size="10">E</text>
<text transform="matrix(1 0 0 1 42.5088 82.1558)" fill="#2E3192" font-family="'MyriadPro-Regular'" font-size="12">I</text>
<text transform="matrix(0.583 0 0 0.583 45.377 85.4858)" fill="#2E3192" font-family="'MyriadPro-Regular'" font-size="10">B</text>
<text transform="matrix(1 0 0 1 289.9922 115.4199)" font-family="'MyriadPro-Regular'" font-size="12">R</text>
<text transform="matrix(0.583 0 0 0.583 296.4492 118.75)" font-family="'MyriadPro-Regular'" font-size="10">L</text>
<text transform="matrix(1 0 0 1 232.2422 68.6704)" fill="#75B443" font-family="'MyriadPro-Regular'" font-size="12">V</text>
<text transform="matrix(0.583 0 0 0.583 238.9385 72.0005)" fill="#75B443" font-family="'MyriadPro-Regular'" font-size="10">2</text>
<text transform="matrix(1 0 0 1 206.9648 66.6704)" fill="#75B443" font-family="'MyriadPro-Regular'" font-size="12">V</text>
<text transform="matrix(0.583 0 0 0.583 213.6602 70.0005)" fill="#75B443" font-family="'MyriadPro-Regular'" font-size="10">1</text>
<text transform="matrix(1 0 0 1 93.4541 66.6704)" fill="#75B443" font-family="'MyriadPro-Regular'" font-size="12">V</text>
<text transform="matrix(0.583 0 0 0.583 100.1499 70.0005)" fill="#75B443" font-family="'MyriadPro-Regular'" font-size="10">C</text>
<text transform="matrix(1 0 0 1 103.5312 66.6704)" font-family="'MyriadPro-Regular'" font-size="10">=20V</text>
<text transform="matrix(1 0 0 1 87.1206 116.4199)" fill="#75B443" font-family="'MyriadPro-Regular'" font-size="12">V</text>
<text transform="matrix(0.583 0 0 0.583 93.8164 119.75)" fill="#75B443" font-family="'MyriadPro-Regular'" font-size="10">E</text>
<text transform="matrix(1 0 0 1 20.9614 79.75)" fill="#75B443" font-family="'MyriadPro-Regular'" font-size="12">V</text>
<text transform="matrix(0.583 0 0 0.583 27.6572 83.0801)" fill="#75B443" font-family="'MyriadPro-Regular'" font-size="10">B</text>
<g>
	<g>
		<path d="M194.76,79.112c0,0,0.944-0.091,2.366-0.014c0.709,0.05,1.54,0.124,2.416,0.303c0.44,0.076,0.889,0.189,1.342,0.321
			c0.46,0.106,0.898,0.308,1.354,0.462c0.438,0.197,0.879,0.399,1.294,0.632c0.392,0.271,0.826,0.473,1.16,0.79
			c0.346,0.3,0.711,0.561,0.971,0.897c0.269,0.325,0.573,0.598,0.746,0.928c0.197,0.315,0.377,0.604,0.537,0.86
			c0.116,0.277,0.219,0.52,0.302,0.719c0.166,0.402,0.261,0.631,0.261,0.631l-0.8,0.234c0,0-0.075-0.212-0.206-0.583
			c-0.065-0.186-0.146-0.412-0.236-0.671c-0.134-0.241-0.283-0.512-0.446-0.807c-0.14-0.314-0.408-0.574-0.638-0.889
			c-0.22-0.327-0.548-0.583-0.854-0.883c-0.294-0.316-0.696-0.525-1.053-0.805c-0.382-0.243-0.794-0.46-1.205-0.673
			c-0.431-0.172-0.846-0.393-1.289-0.521c-0.434-0.153-0.866-0.288-1.296-0.386c-0.851-0.224-1.668-0.342-2.369-0.431
			C195.709,79.073,194.76,79.112,194.76,79.112z"/>
		<g>
			<path d="M207.51,88.752c-0.736-1.324-1.892-2.929-2.998-3.864l2.48,0.49l2.22-1.21C208.437,85.392,207.814,87.269,207.51,88.752z
				"/>
		</g>
	</g>
</g>
<g>
	<g>
		<path d="M129.569,67.872c0,0,0.964,0.084,2.411,0.211c0.724,0.063,1.567,0.136,2.472,0.215c0.906,0.039,1.873,0.08,2.839,0.121
			c3.858,0.165,7.716,0.329,7.716,0.329l-0.027,0.837c0,0-3.864-0.375-7.729-0.749c-0.964-0.094-1.927-0.187-2.831-0.275
			c-0.898-0.127-1.737-0.246-2.456-0.348C130.527,68.008,129.569,67.872,129.569,67.872z"/>
		<g>
			<path d="M148.014,69.216c-1.437,0.48-3.226,1.322-4.349,2.238l0.937-2.349l-0.783-2.404
				C144.88,67.688,146.612,68.644,148.014,69.216z"/>
		</g>
	</g>
</g>
<g>
	<g>
		<path d="M67.351,109.148c0,0,0.659,0.026,1.632,0.209c0.484,0.102,1.052,0.223,1.641,0.421c0.596,0.182,1.208,0.448,1.809,0.745
			c0.286,0.174,0.589,0.323,0.859,0.517c0.265,0.199,0.55,0.368,0.777,0.595c0.235,0.215,0.478,0.41,0.66,0.644
			c0.187,0.228,0.394,0.422,0.522,0.647c0.142,0.218,0.271,0.417,0.387,0.594c0.09,0.191,0.168,0.358,0.233,0.495
			c0.127,0.277,0.2,0.436,0.2,0.436l-0.735,0.247c0,0-0.054-0.145-0.15-0.396c-0.048-0.128-0.107-0.281-0.174-0.459
			c-0.092-0.165-0.195-0.353-0.308-0.557c-0.099-0.215-0.276-0.401-0.43-0.623c-0.149-0.228-0.36-0.422-0.564-0.639
			c-0.195-0.227-0.451-0.403-0.688-0.61c-0.241-0.202-0.52-0.365-0.782-0.553c-0.555-0.327-1.13-0.631-1.7-0.851
			c-0.563-0.238-1.113-0.398-1.584-0.534C68.006,109.224,67.351,109.148,67.351,109.148z"/>
		<g>
			<path d="M76.052,117.577c-0.722-1.331-1.861-2.948-2.958-3.895l2.476,0.516l2.232-1.188
				C77.014,114.226,76.373,116.097,76.052,117.577z"/>
		</g>
	</g>
</g>
<g>
	<g>
		<path d="M38.147,87.831c0,0,0.389,0.029,0.973,0.072c0.583,0.056,1.364,0.081,2.142,0.098c1.552,0.043,3.104,0.086,3.104,0.086
			l-0.034,0.673c0,0-1.553-0.212-3.106-0.424c-0.775-0.101-1.546-0.21-2.12-0.329C38.53,87.901,38.147,87.831,38.147,87.831z"/>
		<g>
			<path d="M47.369,88.503c-1.435,0.484-3.223,1.33-4.343,2.248l0.931-2.351l-0.788-2.402
				C44.232,86.983,45.966,87.935,47.369,88.503z"/>
		</g>
	</g>
</g>
<text transform="matrix(1 0 0 1 219.2842 172)" font-family="'MyriadPro-Regular'" font-size="12">M</text>
<g>
	<g>
		<path fill="none" stroke="#000000" stroke-miterlimit="10" d="M238.257,155.057c-1.23,2.843-4.64,6.727-14.081,6.727
			c-9.443,0-12.852-3.886-14.082-6.729"/>
		<g>
			<path d="M238.951,152.122c-0.862,1.245-2.17,2.729-3.363,3.551l2.518-0.244l2.09,1.423
				C239.543,155.558,239.109,153.628,238.951,152.122z"/>
		</g>
		<g>
			<path d="M209.4,152.122c0.862,1.245,2.17,2.729,3.363,3.551l-2.518-0.244l-2.09,1.423
				C208.809,155.558,209.242,153.628,209.4,152.122z"/>
		</g>
	</g>
</g>
<line fill="none" x1="219.784" y1="495.93" x2="219.784" y2="-296.07"/>
<line fill="none" x1="219.784" y1="-296.07" x2="219.784" y2="495.93"/>
<line fill="none" x1="219.784" y1="495.93" x2="219.784" y2="-296.07"/>
<line fill="none" x1="219.784" y1="495.93" x2="219.784" y2="-296.07"/>
<line fill="none" x1="219.784" y1="-296.07" x2="219.784" y2="495.93"/>
<line fill="none" x1="219.784" y1="495.93" x2="219.784" y2="-296.07"/>
<line fill="none" x1="162.658" y1="495.527" x2="162.658" y2="-296.473"/>
<line fill="none" x1="162.658" y1="-296.473" x2="162.658" y2="495.527"/>
<line fill="none" x1="219.784" y1="495.93" x2="219.784" y2="-296.07"/>
<line fill="none" x1="219.784" y1="495.93" x2="219.784" y2="-296.07"/>
<line fill="none" x1="219.784" y1="-296.07" x2="219.784" y2="495.93"/>
<line fill="none" x1="219.784" y1="495.93" x2="219.784" y2="-296.07"/>
<line fill="none" x1="219.784" y1="495.93" x2="219.784" y2="-296.07"/>
<line fill="none" x1="219.784" y1="-296.07" x2="219.784" y2="495.93"/>
<line fill="none" x1="219.784" y1="495.93" x2="219.784" y2="-296.07"/>
<line fill="none" x1="219.784" y1="495.93" x2="219.784" y2="-296.07"/>
<line fill="none" x1="219.784" y1="-296.07" x2="219.784" y2="495.93"/>
<path fill="#FFFFFF" d="M25.183,92.47c0,5.697-4.618,10.314-10.314,10.314c-5.697,0-10.314-4.617-10.314-10.314
	c0-5.696,4.618-10.314,10.314-10.314C20.564,82.156,25.183,86.774,25.183,92.47"/>
<circle fill="none" stroke="#000000" stroke-width="0.9594" stroke-miterlimit="10" cx="14.868" cy="92.47" r="10.314"/>
<path fill="#FFFFFF" d="M95.902,92.471c0,8.611-6.981,15.591-15.591,15.591c-8.61,0-15.591-6.979-15.591-15.591
	c0-8.61,6.981-15.591,15.591-15.591C88.921,76.879,95.902,83.86,95.902,92.471"/>
<circle fill="none" stroke="#000000" stroke-width="0.9594" stroke-miterlimit="10" cx="80.311" cy="92.471" r="15.591"/>
<line fill="none" stroke="#000000" stroke-width="0.9594" stroke-miterlimit="10" x1="25.183" y1="92.471" x2="72.835" y2="92.471"/>
<line fill="none" stroke="#000000" stroke-width="0.9594" stroke-miterlimit="10" x1="72.835" y1="85.675" x2="72.835" y2="99.267"/>
<line fill="none" stroke="#000000" stroke-width="0.9594" stroke-miterlimit="10" x1="72.835" y1="96.708" x2="77.513" y2="100.06"/>
<polygon points="75.55,101.596 80.311,102.064 78.337,97.708 "/>
<line fill="none" stroke="#000000" stroke-width="0.9594" stroke-miterlimit="10" x1="80.311" y1="145.08" x2="80.311" y2="150.597"/>
<line fill="none" stroke="#000000" stroke-width="0.9594" stroke-miterlimit="10" x1="80.311" y1="102.064" x2="80.311" y2="117.577"/>
<path fill="none" stroke="#000000" stroke-width="0.9594" stroke-miterlimit="10" d="M202.167,73.833l9.746,0.009l0.004,20.796
	c3.305,0.441,5.953,2.207,5.953,4.3s-2.648,3.858-5.953,4.3c-3.303,0.44-5.952-0.443-5.952-1.654s2.649-2.094,5.952-1.653
	c3.305,0.44,5.953,2.206,5.953,4.3c0,2.092-2.648,3.857-5.953,4.299c-3.303,0.441-5.952-0.443-5.952-1.654s2.649-2.094,5.952-1.653
	c3.305,0.441,5.953,2.207,5.953,4.3s-2.648,3.858-5.953,4.299c-3.303,0.441-5.952-0.442-5.952-1.653s2.649-2.095,5.952-1.653
	c3.305,0.441,5.953,2.207,5.953,4.299c0,2.094-2.648,3.858-5.953,4.299c-3.303,0.441-5.952-0.441-5.952-1.652
	s2.649-2.096,5.952-1.654c3.305,0.441,5.953,2.207,5.953,4.299c0,2.094-2.648,3.859-5.953,4.3v1.984v6.279"/>
<line fill="none" stroke="#000000" stroke-width="0.9594" stroke-miterlimit="10" x1="80.311" y1="73.721" x2="170.675" y2="73.797"/>
<polyline fill="none" stroke="#000000" stroke-width="0.9594" stroke-miterlimit="10" points="80.311,64.486 80.311,82.716 
	72.835,88.872 "/>
<polyline fill="none" stroke="#000000" stroke-width="0.9594" stroke-miterlimit="10" points="20.961,28.268 80.311,28.268 
	80.38,37.179 "/>
<text transform="matrix(1 0 0 1 4 30.7344)" font-family="'MyriadPro-Regular'" font-size="7.0807">+40V</text>
<path fill="#FFFFFF" d="M6.41,93.031c0,0,1.12,4.077,3.039,4.077s1.519-9.274,5.517-9.274c3.998,0,2.478,9.274,5.676,9.274
	c2.138,0,2.127-4.143,2.686-6.891"/>
<path fill="none" stroke="#000000" stroke-width="0.9594" stroke-miterlimit="10" d="M6.41,93.031c0,0,1.12,4.077,3.039,4.077
	s1.519-9.274,5.517-9.274c3.998,0,2.478,9.274,5.676,9.274c2.138,0,2.127-4.143,2.686-6.891"/>
<text transform="matrix(1 0 0 1 98.1206 87.8335)" fill="#414042" font-family="'MyriadPro-Regular'" font-size="5.7567">NTE 2328</text>
<text transform="matrix(1 0 0 1 98.1206 94.7412)" fill="#414042" font-family="'MyriadPro-Regular'" font-size="5.7567">(NPN)</text>
<polyline fill="none" stroke="#000000" stroke-width="0.9594" stroke-miterlimit="10" points="32.307,116.637 32.307,83.116 
	32.307,66.406 "/>
<text transform="matrix(1 0 0 1 7.1333 113.0986)" font-family="'MyriadPro-Regular'" font-size="5.7567">1Khz</text>
<polyline fill="none" stroke="#000000" stroke-width="0.9594" stroke-miterlimit="10" points="80.38,117.691 76.052,120.453 
	84.57,124.37 76.052,129.408 84.57,134.205 76.052,138.763 84.57,143.08 80.311,144.999 "/>
<polyline fill="none" stroke="#000000" stroke-width="0.9594" stroke-miterlimit="10" points="80.38,37.179 76.052,39.941 
	84.57,43.858 76.052,48.896 84.57,53.693 76.052,58.25 84.57,62.567 80.311,64.486 "/>
<polyline fill="none" stroke="#000000" stroke-width="0.9594" stroke-miterlimit="10" points="32.375,116.637 28.047,119.399 
	36.565,123.317 28.047,128.354 36.565,133.151 28.047,137.708 36.565,142.026 32.306,143.945 "/>
<polyline fill="none" stroke="#000000" stroke-width="0.9594" stroke-miterlimit="10" points="32.375,39.098 28.047,41.86 
	36.565,45.778 28.047,50.815 36.565,55.612 28.047,60.169 36.565,64.487 32.306,66.406 "/>
<line fill="none" stroke="#000000" stroke-width="0.9594" stroke-miterlimit="10" x1="32.307" y1="28.268" x2="32.375" y2="39.098"/>
<g>
	<path fill="none" d="M240.45,97.835"/>
</g>
<line fill="none" stroke="#000000" stroke-width="2" stroke-miterlimit="10" x1="169.158" y1="110.417" x2="156.158" y2="110.417"/>
<line fill="none" stroke="#000000" stroke-width="2" stroke-miterlimit="10" x1="169.158" y1="116.915" x2="156.158" y2="116.915"/>
<line fill="none" stroke="#000000" stroke-width="0.965" stroke-miterlimit="10" x1="112.294" y1="149.722" x2="112.294" y2="159.296"/>
<line fill="none" stroke="#000000" stroke-width="0.965" stroke-miterlimit="10" x1="102.72" y1="159.296" x2="121.867" y2="159.296"/>
<path fill="none" stroke="#000000" stroke-width="0.965" stroke-miterlimit="10" d="M108.464,165.039h7.658 M106.549,163.123h11.488
	 M104.635,161.211h15.317"/>
<line fill="none" stroke="#000000" stroke-width="0.9594" stroke-miterlimit="10" x1="162.658" y1="73.721" x2="162.658" y2="110.417"/>
<line fill="none" stroke="#000000" stroke-width="0.9594" stroke-miterlimit="10" x1="162.658" y1="117.577" x2="162.658" y2="150.597"/>
<g>
	<polyline fill="none" stroke="#000000" stroke-miterlimit="10" points="170.675,73.921 172.925,68.544 175.092,78.044 
		177.175,73.294 	"/>
	<polyline fill="none" stroke="#000000" stroke-miterlimit="10" points="176.884,73.921 179.134,68.544 181.3,78.044 
		183.384,73.294 	"/>
	<polyline fill="none" stroke="#000000" stroke-miterlimit="10" points="183.165,73.921 185.415,68.544 187.581,78.044 
		189.665,73.294 	"/>
	<polyline fill="none" stroke="#000000" stroke-miterlimit="10" points="189.415,73.921 191.666,68.544 193.832,78.044 
		195.916,73.294 	"/>
	<polyline fill="none" stroke="#000000" stroke-miterlimit="10" points="195.667,73.921 197.917,68.544 200.083,78.044 
		202.167,73.294 	"/>
</g>
<text transform="matrix(1 0 0 1 183.3828 62.0244)" font-family="'MyriadPro-Regular'" font-size="12">R</text>
<text transform="matrix(0.583 0 0 0.583 189.8398 65.3545)" font-family="'MyriadPro-Regular'" font-size="10">Coil</text>
<text transform="matrix(1 0 0 1 57.3833 55.0244)" font-family="'MyriadPro-Regular'" font-size="12">R</text>
<text transform="matrix(0.583 0 0 0.583 63.8394 58.3545)" font-family="'MyriadPro-Regular'" font-size="10">C</text>
<text transform="matrix(1 0 0 1 14.8687 55.0244)" font-family="'MyriadPro-Regular'" font-size="12">R</text>
<text transform="matrix(0.583 0 0 0.583 21.3247 58.3545)" font-family="'MyriadPro-Regular'" font-size="10">1</text>
<text transform="matrix(1 0 0 1 14.8687 134.0869)" font-family="'MyriadPro-Regular'" font-size="12">R</text>
<text transform="matrix(0.583 0 0 0.583 21.3247 137.417)" font-family="'MyriadPro-Regular'" font-size="10">2</text>
<text transform="matrix(1 0 0 1 61.7168 136.3574)" font-family="'MyriadPro-Regular'" font-size="12">R</text>
<text transform="matrix(0.583 0 0 0.583 68.1729 139.6875)" font-family="'MyriadPro-Regular'" font-size="10">E</text>
<text transform="matrix(1 0 0 1 173.9258 85.1704)" fill="#414042" font-family="'MyriadPro-Regular'" font-size="5.7567">1.2 Ohm</text>
<text transform="matrix(0 1 -1 0 267.9961 104.2051)" fill="#414042" font-family="'MyriadPro-Regular'" font-size="5.7567">100 Ohm</text>
</svg>
