<?xml version="1.0" encoding="utf-8"?>
<!-- Generator: Adobe Illustrator 16.0.0, SVG Export Plug-In . SVG Version: 6.00 Build 0)  -->
<!DOCTYPE svg PUBLIC "-//W3C//DTD SVG 1.1//EN" "http://www.w3.org/Graphics/SVG/1.1/DTD/svg11.dtd">
<svg version="1.1" id="Layer_1" xmlns="http://www.w3.org/2000/svg" xmlns:xlink="http://www.w3.org/1999/xlink" x="0px" y="0px"
	 width="300px" height="200px" viewBox="0 0 300 200" enable-background="new 0 0 300 200" xml:space="preserve">
<g>
	<path fill="#FFFFFF" d="M266.594,5.109c-0.433-0.033-0.694-0.07-0.958-0.07c-9.942,0.002-19.887,0.016-29.829,0.009
		c-10.956-0.008-21.912-0.044-32.868-0.053c-12.07-0.01-24.14-0.003-36.21,0.001c-10.992,0.003-21.984,0.014-32.976,0.02
		c-11.228,0.006-22.456,0.038-33.683,0.01c-15.073-0.037-30.146-0.12-45.22-0.182c-0.876-0.004-1.759-0.051-2.626,0.041
		c-0.262,0.028-0.67,0.443-0.688,0.703c-0.075,1.067-0.022,2.144-0.023,3.217c-0.002,5.557,0.015,11.115-0.017,16.672
		c-0.042,7.35-0.146,14.701-0.18,22.051c-0.051,10.815-0.054,21.631-0.094,32.446c-0.036,9.324-0.105,18.647-0.142,27.971
		c-0.037,9.027-0.025,18.055-0.082,27.083c-0.053,8.433-0.169,16.863-0.254,25.296c-0.051,5.041-0.099,10.082-0.14,15.123
		c-0.011,1.333,0.246,1.566,1.554,1.559c7.686-0.039,15.373-0.122,23.059-0.1c9.981,0.03,19.963,0.168,29.944,0.218
		c8.059,0.04,16.118,0.001,24.176,0.035c7.418,0.031,14.835,0.146,22.254,0.169c7.044,0.02,14.091-0.065,21.136-0.05
		c10.317,0.023,20.636,0.104,30.953,0.146c6.777,0.025,13.555,0.005,20.333,0.038c13.487,0.063,26.976,0.139,40.463,0.251
		c1.046,0.01,1.3-0.3,1.3-1.31c0.004-8.983,0.06-17.967,0.1-26.952c0.051-11.321,0.091-22.644,0.159-33.965
		c0.053-8.733,0.167-17.466,0.213-26.198c0.047-8.863,0.029-17.726,0.067-26.588c0.049-11.865,0.118-23.729,0.207-35.594
		c0.004-0.479,0.355-0.948,0.448-1.439c0.068-0.353,0.014-0.745-0.062-1.103c-0.07-0.328-0.352-0.633-0.354-0.949
		c-0.032-3.806-0.039-7.612-0.031-11.418C266.525,9.872,266.567,7.547,266.594,5.109z M159.622,182.922
		c0.038-0.121,0.038-0.204,0.081-0.243c0.719-0.689,0.577-1.366-0.036-2.022c-0.648-0.692-1.59-0.853-2.271-0.295
		c-0.648,0.532-1.091,1.175-0.558,2.103c0.132,0.229,0.013,0.689-0.132,0.972c-0.52,1.021-0.437,1.805,0.336,2.436
		c0.794,0.647,2.041,0.591,2.752-0.125c0.696-0.703,0.727-1.558,0.087-2.46C159.788,183.156,159.694,183.024,159.622,182.922z
		 M133.102,181.758c-0.157-1.152-0.552-1.779-1.328-1.768c-0.628,0.009-1.483,0.27-1.833,0.729
		c-0.978,1.283-1.033,2.818-0.444,4.307c0.407,1.027,1.456,1.383,2.521,0.992c0.95-0.349,1.519-1.375,1.174-2.358
		c-0.176-0.503-0.519-1.14-0.951-1.315c-0.624-0.255-1.396-0.147-2.14-0.196c0.139-0.486,0.294-1.271,1.106-1.223
		C131.803,180.96,132.372,181.418,133.102,181.758z M31.327,102.543c0.01-0.925,0.045-1.729,0.007-2.528
		c-0.008-0.179-0.271-0.347-0.417-0.52c-0.121,0.163-0.334,0.319-0.346,0.488c-0.043,0.604-0.071,1.217-0.005,1.816
		c0.081,0.736-0.325,0.848-0.896,0.866c-0.578,0.019-0.877-0.184-0.842-0.818c0.042-0.74,0.042-1.483,0.01-2.222
		c-0.008-0.178-0.215-0.344-0.331-0.515c-0.123,0.122-0.349,0.24-0.353,0.365c-0.04,1.334-0.044,2.668-0.059,4.006
		c2.066,0.022,4.002,0.042,5.902,0.062c0.014-1.34,0.042-2.605,0.024-3.871c-0.002-0.171-0.232-0.338-0.357-0.507
		c-0.111,0.175-0.307,0.343-0.318,0.524c-0.045,0.671-0.072,1.35-0.025,2.019c0.052,0.723-0.248,0.989-0.932,0.918
		C32.091,102.599,31.792,102.58,31.327,102.543z M48.215,42.916c0.736-0.463,1.539-0.696,1.783-1.2
		c0.248-0.512-0.062-1.29-0.116-1.953c-0.026-0.322-0.152-0.725-0.011-0.958c0.483-0.803,0.258-1.419-0.383-1.942
		c-0.701-0.572-1.491-0.573-2.218-0.08c-0.681,0.462-0.905,1.087-0.545,1.922c0.137,0.317-0.017,0.762-0.047,1.147
		c-0.047,0.598-0.325,1.31-0.093,1.763C46.85,42.136,47.564,42.427,48.215,42.916z M49.306,23.309
		c0.079,0.097,0.156,0.194,0.235,0.291c-0.319,0.382-0.572,0.924-0.979,1.091c-0.272,0.112-0.759-0.314-1.157-0.484
		c-0.224-0.096-0.46-0.158-0.691-0.235c-0.016,0.268-0.146,0.686-0.027,0.777c0.45,0.345,0.954,0.728,1.489,0.83
		c0.812,0.154,1.431-0.339,1.762-1.07c0.567-1.248,0.583-2.538,0.131-3.828c-0.291-0.828-0.893-1.211-1.765-1.223
		c-0.908-0.011-1.423,0.507-1.759,1.267c-0.343,0.772-0.28,1.511,0.279,2.165C47.512,23.693,48.37,23.709,49.306,23.309z
		 M267.011,182.933c-0.094-0.081-0.187-0.162-0.28-0.243c0.356-0.426,0.641-1,1.096-1.221c0.258-0.123,0.793,0.342,1.21,0.522
		c0.262,0.116,0.539,0.197,0.924,0.335c-0.101-1.159-0.667-1.676-1.549-1.778c-0.856-0.099-1.593,0.179-1.962,1.069
		c-0.546,1.325-0.643,2.682-0.146,4.024c0.345,0.931,1.28,1.313,2.23,1.041c1.059-0.304,1.504-1.072,1.487-2.065
		C269.992,183.077,268.635,182.151,267.011,182.933z M50.117,71.925c-0.225-1.236-0.612-1.815-1.392-1.778
		c-0.629,0.029-1.477,0.299-1.812,0.762c-0.835,1.161-0.941,2.559-0.522,3.948c0.226,0.746,0.634,1.324,1.516,1.397
		c0.817,0.067,1.702-0.004,1.993-0.809c0.245-0.677,0.199-1.55,0.004-2.26c-0.108-0.395-0.749-0.798-1.214-0.898
		c-0.495-0.106-1.066,0.142-1.626,0.239C47.471,70.162,48.849,71.317,50.117,71.925z M39.113,107.823
		c0.102,0.701,0.124,1.208,0.254,1.685c0.286,1.039,1.038,1.688,1.88,1.644c1.059-0.055,1.745-0.723,1.839-1.68
		c0.107-1.104,0.067-2.282-0.226-3.34c-0.141-0.512-0.983-1.086-1.557-1.142c-0.51-0.051-1.261,0.452-1.591,0.929
		C39.322,106.485,39.268,107.284,39.113,107.823z M43.131,159.596c-0.176-0.71-0.308-1.434-0.539-2.124
		c-0.241-0.719-0.846-1.036-1.572-1.047c-0.709-0.011-1.275,0.227-1.621,0.951c-0.663,1.393-0.762,2.765-0.095,4.172
		c0.395,0.834,1.302,1.235,2.181,0.96C42.509,162.189,42.995,161.274,43.131,159.596z M38.938,142.217
		c0.093,0.587,0.109,1.066,0.25,1.506c0.454,1.409,0.87,1.711,2.134,1.646c1.159-0.061,1.588-0.928,1.645-1.836
		c0.066-1.068-0.083-2.177-0.313-3.23c-0.163-0.75-0.822-1.1-1.628-1.094c-0.825,0.006-1.33,0.463-1.592,1.171
		C39.204,140.999,39.084,141.66,38.938,142.217z M76.826,185.002c-0.043-0.094-0.086-0.188-0.129-0.281
		c0.268-0.22,0.521-0.459,0.806-0.654c0.496-0.343,1.059-0.604,1.506-0.999c0.57-0.504,1.082-1.228,0.632-1.943
		c-0.371-0.59-1.051-1.193-1.699-1.347c-0.79-0.188-1.572,0.338-1.928,1.145c-0.133,0.302,0.008,0.725,0.024,1.093
		c0.271-0.209,0.537-0.425,0.813-0.627c0.317-0.233,0.633-0.615,0.967-0.636c0.297-0.019,0.824,0.328,0.877,0.589
		c0.068,0.337-0.137,0.849-0.4,1.104c-0.449,0.439-1.072,0.695-1.552,1.107c-0.648,0.557-1.34,1.138-1.052,2.27
		c1.134,0.012,2.24,0.043,3.345,0.019c0.213-0.006,0.421-0.229,0.631-0.353c-0.212-0.153-0.413-0.423-0.637-0.441
		C78.3,184.981,77.561,185.009,76.826,185.002z M138.251,189.702c0.096,0.573,0.208,1.077,0.257,1.588
		c0.039,0.4-0.05,0.815,0.007,1.211c0.056,0.382,0.227,0.747,0.347,1.119c0.139-0.355,0.292-0.708,0.41-1.071
		c0.064-0.195,0.07-0.41,0.103-0.616c0.078-0.025,0.155-0.052,0.232-0.076c0.377,0.598,0.753,1.193,1.151,1.823
		c0.333,0.019,0.744-0.002,1.134,0.075c0.583,0.115,0.87-0.103,1.036-0.652c0.514-1.705,1.063-3.399,1.58-5.104
		c0.053-0.177-0.018-0.392-0.032-0.588c-0.117-0.027-0.234-0.053-0.351-0.079c-0.671,1.987-1.341,3.975-2.096,6.209
		c-0.598-0.717-1.042-1.207-1.437-1.734c-0.537-0.717-0.127-1.635,0.759-1.781c0.256-0.043,0.504-0.138,0.756-0.209
		c-0.058-0.144-0.125-0.415-0.172-0.412c-0.279,0.02-0.607,0.028-0.82,0.179c-0.585,0.415-1.122,0.899-1.778,1.438
		c-0.06-0.604-0.105-1.073-0.158-1.6C138.753,189.55,138.441,189.645,138.251,189.702z M43.33,125.335
		c-0.176-0.749-0.194-1.551-0.556-2.142c-0.301-0.494-0.984-0.979-1.538-1.028c-0.491-0.044-1.225,0.39-1.523,0.833
		c-0.908,1.352-0.84,2.828-0.164,4.294c0.326,0.707,0.918,0.948,1.624,0.957c0.722,0.009,1.338-0.29,1.614-0.979
		C43.031,126.659,43.149,125.998,43.33,125.335z M189.343,183.231c-0.183-0.672-0.27-1.497-0.622-2.186
		c-0.595-1.157-2.117-1.239-2.846-0.244c-0.911,1.241-0.991,3.465-0.193,4.79c0.403,0.669,1.042,0.935,1.712,0.729
		c0.545-0.169,1.159-0.542,1.444-1.009C189.167,184.775,189.166,184.039,189.343,183.231z M48.994,182.845
		c0.162,0.651,0.16,1.375,0.506,1.841c0.395,0.533,1.06,1.081,1.679,1.18c0.772,0.125,1.431-0.428,1.745-1.25
		c0.494-1.293,0.444-2.562-0.099-3.822c-0.332-0.771-0.902-1.069-1.75-1.056c-0.803,0.014-1.275,0.384-1.515,1.079
		C49.333,181.475,49.182,182.159,48.994,182.845z M49.297,124.952c0.715-1.146,0.644-1.88-0.188-2.52
		c-0.707-0.543-2.052-0.494-2.583,0.209c-0.282,0.375-0.562,1.252-0.42,1.362c0.668,0.522,0.672-0.38,1.022-0.604
		c0.342-0.221,0.832-0.289,1.252-0.275c0.178,0.006,0.529,0.514,0.482,0.587c-0.186,0.287-0.506,0.485-0.763,0.732
		c-0.209,0.2-0.401,0.419-0.6,0.63c0.22,0.145,0.446,0.282,0.659,0.436c0.348,0.253,0.93,0.488,0.964,0.785
		c0.039,0.323-0.356,0.824-0.694,1.042c-0.75,0.48-1.196-0.032-1.612-0.636c-0.16-0.233-0.53-0.321-0.805-0.475
		c-0.014,0.305-0.135,0.659-0.022,0.907c0.327,0.714,0.873,1.1,1.735,1.114c0.966,0.016,1.741-0.252,2.185-1.109
		C50.34,126.3,49.992,125.582,49.297,124.952z M46.992,144.408c-0.042-0.103-0.085-0.203-0.127-0.306
		c0.509-0.353,1.017-0.705,1.526-1.058c0.271-0.186,0.576-0.337,0.813-0.56c0.542-0.506,0.883-1.102,0.587-1.879
		c-0.28-0.735-0.702-1.271-1.589-1.325c-0.9-0.057-1.631,0.188-1.984,1.04c-0.132,0.317,0.015,0.751,0.035,1.132
		c0.246-0.232,0.476-0.487,0.743-0.692c0.3-0.229,0.64-0.586,0.951-0.575c0.323,0.01,0.794,0.336,0.903,0.633
		c0.103,0.283-0.087,0.783-0.312,1.048c-0.292,0.344-0.788,0.506-1.124,0.823c-0.552,0.519-1.124,1.046-1.542,1.669
		c-0.396,0.59-0.206,1.016,0.624,0.98c0.873-0.036,1.751,0.024,2.622-0.032c0.256-0.017,0.496-0.289,0.742-0.444
		c-0.258-0.144-0.506-0.388-0.774-0.413C48.393,144.384,47.691,144.415,46.992,144.408z M43.504,73.5
		c-0.151-0.773-0.281-1.458-0.417-2.141c-0.157-0.782-0.709-1.112-1.436-1.18c-0.745-0.069-1.421,0.099-1.771,0.85
		c-0.685,1.477-0.798,3.01,0.019,4.432c0.253,0.441,1.031,0.819,1.554,0.8c0.527-0.019,1.193-0.458,1.509-0.913
		C43.316,74.839,43.344,74.104,43.504,73.5z M39.188,90.709c0.116,0.651,0.209,1.209,0.316,1.766
		c0.191,0.994,0.849,1.583,1.807,1.588c0.968,0.006,1.57-0.658,1.853-1.579c0.371-1.202,0.288-2.382-0.18-3.542
		c-0.271-0.671-0.673-1.101-1.488-1.115c-0.833-0.016-1.465,0.221-1.764,1.015C39.498,89.46,39.357,90.113,39.188,90.709z
		 M45.196,176.646c0.051,0.671,0.036,1.113,0.126,1.535c0.233,1.086,0.936,1.771,1.765,1.787c0.956,0.02,1.886-0.65,2.005-1.763
		c0.114-1.065-0.016-2.176-0.179-3.246c-0.135-0.889-0.868-1.241-1.708-1.253c-0.821-0.012-1.424,0.397-1.65,1.207
		C45.377,175.55,45.284,176.212,45.196,176.646z M39.362,56c0.127,0.712,0.076,1.439,0.393,1.926
		c0.361,0.555,1.038,1.217,1.603,1.241c0.574,0.026,1.43-0.533,1.723-1.074c0.694-1.278,0.575-2.709,0.014-4.045
		c-0.276-0.657-0.824-0.992-1.603-0.979c-0.754,0.012-1.328,0.266-1.59,0.962C39.659,54.679,39.53,55.37,39.362,56z M43.707,22.65
		c-0.201-0.734-0.361-1.586-0.674-2.378c-0.285-0.72-0.998-0.944-1.681-0.744c-0.48,0.141-1.076,0.483-1.27,0.899
		c-0.607,1.302-0.727,2.679-0.173,4.079c0.302,0.765,0.928,1.221,1.599,1.141c0.602-0.072,1.289-0.533,1.668-1.029
		C43.526,24.161,43.517,23.429,43.707,22.65z M43.633,39.712c-0.124-0.707-0.097-1.442-0.398-2.002
		c-0.281-0.524-0.848-1.024-1.403-1.24c-0.711-0.276-1.451,0.094-1.786,0.781c-0.726,1.488-0.836,3.03-0.043,4.555
		c0.396,0.76,1.139,0.933,1.817,0.725c0.539-0.165,1.1-0.617,1.402-1.098C43.522,40.955,43.511,40.282,43.633,39.712z
		 M49.792,88.226c-0.045-0.073-0.09-0.145-0.136-0.217c-0.962-0.01-1.924-0.02-2.972-0.031c-0.159,1.062-0.312,2.083-0.499,3.333
		c0.574-0.207,0.89-0.288,1.176-0.43c0.75-0.371,1.424-0.143,1.688,0.536c0.159,0.41-0.014,1.197-0.333,1.491
		c-0.54,0.496-1.213,0.339-1.736-0.292c-0.186-0.224-0.559-0.293-1.028-0.521c0.367,1.487,1.189,2.067,2.336,1.921
		c1.08-0.137,1.835-0.959,1.758-2.078c-0.034-0.504-0.191-1.208-0.542-1.435c-0.648-0.418-1.481-0.55-2.293-0.82
		c-0.021-0.913-0.021-0.913,0.982-0.938c0.336-0.008,0.688,0.033,1.003-0.055C49.42,88.627,49.595,88.387,49.792,88.226z
		 M212.574,185.532c0.516-0.45,0.783-0.732,1.097-0.949c0.44-0.302,0.936-0.525,1.369-0.837c0.796-0.575,1.035-1.63,0.611-2.507
		c-0.369-0.769-1.391-1.146-2.352-0.869c-0.785,0.227-1.282,1.091-1.171,2.054c0.592,0.215,0.791-0.057,0.978-0.611
		c0.097-0.287,0.579-0.621,0.881-0.614c0.309,0.008,0.766,0.352,0.868,0.647c0.1,0.29-0.066,0.791-0.291,1.046
		c-0.323,0.367-0.835,0.556-1.21,0.887c-0.493,0.437-1.027,0.875-1.37,1.422c-0.489,0.78-0.207,1.179,0.718,1.171
		c0.839-0.006,1.679-0.026,2.518-0.07c0.225-0.012,0.445-0.129,0.667-0.198c-0.005-0.13-0.01-0.259-0.015-0.388
		C214.891,185.66,213.908,185.606,212.574,185.532z M32.625,84.865c-0.117-0.081-0.235-0.162-0.353-0.243
		c0.008-0.736,0.004-1.472,0.027-2.208c0.019-0.587-0.265-0.769-0.815-0.709c-1.082,0.117-1.774,0.851-1.799,1.94
		c-0.033,1.402,0.876,2.091,2.69,2.083c0.938-0.004,1.499-0.477,1.812-1.314c0.32-0.854,0.104-1.609-0.55-2.185
		c-0.206-0.182-0.629-0.116-0.953-0.163c0.126,0.275,0.247,0.553,0.381,0.825c0.174,0.354,0.575,0.774,0.488,1.039
		C33.43,84.304,32.951,84.56,32.625,84.865z M241.879,184.02c0.01-1.057,0.038-2.029,0.017-3c-0.003-0.191-0.154-0.439-0.314-0.545
		c-0.089-0.059-0.407,0.071-0.501,0.202c-0.812,1.148-1.638,2.291-2.376,3.488c-0.384,0.623-0.095,1.021,0.657,1.027
		c0.522,0.003,1.045,0.01,1.578,0.017c0.031,0.274,0.016,0.418,0.067,0.531c0.12,0.27,0.272,0.525,0.412,0.786
		c0.166-0.243,0.351-0.478,0.495-0.733c0.093-0.164,0.072-0.45,0.197-0.527C243.117,184.646,242.588,184.328,241.879,184.02z
		 M48.161,109.614c0.235,0.595,0.393,0.995,0.55,1.394c0.419-0.54,0.852-1.072,1.246-1.631c0.061-0.086-0.026-0.411-0.088-0.424
		c-0.897-0.191-0.608-0.891-0.625-1.44c-0.02-0.638,0.062-1.286-0.018-1.915c-0.025-0.191-0.438-0.333-0.674-0.497
		c-0.86,1.305-1.727,2.604-2.569,3.92c-0.068,0.106,0.027,0.318,0.057,0.571C46.79,109.6,47.519,109.607,48.161,109.614z
		 M30.582,114.376c0.024-0.143,0.047-0.284,0.071-0.427c0.202-0.168,0.393-0.459,0.606-0.477c0.703-0.059,1.417,0.019,2.122-0.031
		c0.219-0.016,0.421-0.267,0.631-0.41c-0.218-0.139-0.424-0.362-0.658-0.397c-0.593-0.092-1.24,0.016-1.789-0.175
		c-0.386-0.136-0.646-0.629-0.962-0.963c0.395-0.218,0.778-0.593,1.187-0.623c1.073-0.079,2.157,0.011,3.235-0.016
		c0.195-0.005,0.385-0.244,0.579-0.375c-0.171-0.144-0.341-0.412-0.511-0.412c-1.381-0.001-2.766-0.004-4.141,0.101
		c-1.036,0.078-1.412,0.998-0.823,1.831c0.128,0.182,0.285,0.343,0.265,0.32c-0.206,0.568-0.457,0.969-0.454,1.368
		C29.94,113.921,30.354,114.147,30.582,114.376z M105.604,180.041c-0.258-0.003-0.461-0.058-0.505,0.002
		c-0.926,1.265-1.847,2.533-2.716,3.836c-0.062,0.093,0.232,0.54,0.451,0.665c0.199,0.114,0.521,0.005,0.789,0.01
		c0.659,0.012,1.438-0.137,1.294,0.972c-0.014,0.108,0.197,0.354,0.264,0.341c0.167-0.034,0.458-0.231,0.443-0.274
		c-0.25-0.718,1.544-1.451-0.008-2.173c-0.109-0.052-0.039-0.51-0.037-0.776C105.583,181.782,105.595,180.924,105.604,180.041z
		 M29.723,68.244c0.433,1.894,2.322,1.177,3.087,2.169c-3.031,1.075-3.031,1.075-2.808,1.923c1.201-0.411,2.396-0.823,3.593-1.229
		c0.744-0.252,1.405-0.329,1.622,0.696c0.028,0.132,0.278,0.216,0.425,0.322c0.12-0.178,0.382-0.438,0.335-0.519
		c-0.269-0.467-0.517-1.103-0.945-1.293C33.388,69.577,31.677,68.989,29.723,68.244z M29.956,80.859
		c1.125,0.012,2.427,0.043,3.728,0.018c0.169-0.003,0.332-0.298,0.498-0.458c-0.165-0.121-0.32-0.326-0.497-0.346
		c-0.794-0.092-1.628-0.018-2.38-0.237c-0.373-0.109-0.599-0.722-0.891-1.107c0.356-0.248,0.686-0.644,1.074-0.712
		c0.652-0.115,1.348,0.036,2.011-0.043c0.286-0.034,0.535-0.362,0.802-0.556c-0.057-0.104-0.113-0.208-0.169-0.312
		c-1.073-0.011-2.147-0.067-3.217-0.019c-0.767,0.035-1.396,0.998-1.264,1.76C29.757,79.465,29.839,80.088,29.956,80.859z
		 M155.544,194.692c-0.012-1.163-0.533-1.771-1.436-1.753c-0.784,0.015-1.479,0.354-1.644,1.212
		c-0.174,0.91,0.383,1.351,1.205,1.536c0.196,0.045,0.421,0.062,0.575,0.172c0.312,0.221,0.585,0.498,0.873,0.752
		c-0.385,0.185-0.761,0.482-1.159,0.518c-0.294,0.025-0.617-0.29-0.927-0.458c-0.219-0.118-0.436-0.242-0.751-0.418
		c0.101,1.28,0.998,1.936,2.123,1.7c0.726-0.15,1.363-0.457,1.416-1.332c0.048-0.806-0.436-1.223-1.139-1.454
		c-0.223-0.074-0.485-0.094-0.664-0.228c-0.301-0.227-0.55-0.521-0.82-0.788c0.44-0.102,0.898-0.324,1.316-0.264
		C154.835,193.933,155.107,194.332,155.544,194.692z M32.573,88.194c-0.086,0.075-0.173,0.151-0.26,0.226
		c0.234,0.269,0.482,0.527,0.699,0.81c0.211,0.277,0.559,0.592,0.537,0.866c-0.021,0.264-0.396,0.612-0.689,0.717
		c-0.423,0.15-0.949,0.242-1.364,0.124c-0.432-0.122-0.89-0.46-1.117-0.835c-0.089-0.147,0.449-0.638,0.645-1.003
		c0.125-0.234,0.145-0.525,0.212-0.791c-0.271-0.003-0.664-0.121-0.791,0.013c-0.331,0.351-0.67,0.78-0.782,1.233
		c-0.246,0.995,0.39,2.045,1.292,2.351c1.125,0.38,2.521-0.05,3.062-0.943C34.748,89.758,34.008,88.343,32.573,88.194z
		 M163.322,197.792c1.315-0.018,2.645,0.458,3.436-0.937c0.51-0.898,0.385-2.458-0.292-3.13c-0.908-0.902-2.026-0.513-3.096-0.484
		C163.354,194.812,163.338,196.245,163.322,197.792z M152.142,189.349c-0.019-0.636,0.204-1.403-0.714-1.481
		c-1.217-0.104-2.446-0.048-3.622-0.061c0.399,2.032,0.705,3.923-0.06,5.808c0.529,0.005,1.051,0.011,1.522,0.016
		c-0.104-0.468-0.258-0.876-0.273-1.292c-0.028-0.803,0.041-1.611,0.036-2.415c-0.01-1.611,0.179-1.828,1.744-1.508
		C151.234,188.509,151.616,188.977,152.142,189.349z M31.43,72.823c-0.104-0.06-0.208-0.119-0.312-0.178
		c-1.043,0.388-1.727,1.335-1.462,2.173c0.327,1.032,0.772,1.77,2.828,1.609c1.077-0.083,1.731-0.655,1.801-1.649
		c0.088-1.251-0.296-1.746-1.821-2.112c0.172,0.412,0.267,0.72,0.423,0.995c0.211,0.372,0.745,0.911,0.656,1.037
		c-0.271,0.385-0.741,0.708-1.198,0.856c-0.334,0.109-0.808-0.017-1.149-0.182c-0.317-0.153-0.691-0.462-0.762-0.768
		c-0.057-0.244,0.301-0.585,0.475-0.884C31.082,73.422,31.257,73.123,31.43,72.823z M50.48,53.181
		c-1.377-0.014-2.45-0.05-3.521-0.018c-0.226,0.007-0.444,0.262-0.667,0.403c0.214,0.144,0.42,0.395,0.644,0.413
		c0.735,0.06,1.477,0.036,2.134,0.042c-0.741,1.627-1.46,3.21-2.182,4.795c0.851,0.363,1.016,0.022,1.23-0.486
		c0.543-1.286,1.184-2.532,1.778-3.797C50.073,54.161,50.224,53.778,50.48,53.181z M158.742,187.838
		c0.429,2.056,0.568,3.93-0.102,5.838c0.468,0.005,0.981,0.012,1.329,0.015c0.019-1.741,0.036-3.414,0.056-5.228
		c0.48,0.006,1.072-0.1,1.591,0.051c0.479,0.137,0.882,0.546,1.295,0.822c0.165-1.244,0-1.452-1.229-1.466
		C160.675,187.858,159.669,187.849,158.742,187.838z M176.053,189.072c-0.024-0.092-0.05-0.183-0.075-0.272
		c0.32-0.201,0.661-0.374,0.955-0.609c0.385-0.308,0.934-0.61,1.043-1.016c0.119-0.443-0.046-1.098-0.328-1.486
		c-0.458-0.63-1.198-0.638-1.781-0.142c-0.324,0.275-0.469,0.761-0.696,1.151c0.138,0.079,0.274,0.157,0.411,0.236
		c0.148-0.21,0.264-0.459,0.453-0.62c0.213-0.183,0.524-0.433,0.737-0.387c0.273,0.059,0.604,0.342,0.693,0.603
		c0.066,0.189-0.157,0.568-0.355,0.744c-0.425,0.375-0.981,0.612-1.364,1.02c-0.342,0.363-0.521,0.877-0.888,1.535
		c1.165,0.013,1.968,0.045,2.767,0.011c0.171-0.007,0.331-0.248,0.497-0.383c-0.169-0.123-0.329-0.334-0.508-0.352
		C177.098,189.053,176.574,189.077,176.053,189.072z M167.617,195.426c1.324-0.409,2.239-2.896,1.883-4.837
		c-0.311-1.693-1.092-2.936-1.813-2.879C169.104,191.397,168.97,192.017,167.617,195.426z M182.374,182.283
		c-0.012,1.059-0.058,2.028-0.013,2.993c0.016,0.341,0.25,0.67,0.384,1.005c0.157-0.304,0.437-0.6,0.451-0.91
		c0.06-1.273,0.06-2.553,0.036-3.829c-0.009-0.434-0.15-0.866-0.231-1.299c-0.286,0.24-0.571,0.481-0.861,0.718
		c-0.077,0.063-0.17,0.105-0.25,0.164c-0.27,0.2-0.535,0.404-0.804,0.606c0.335,0.145,0.669,0.289,1.005,0.433
		C182.181,182.204,182.273,182.241,182.374,182.283z M27.842,104.32c0.445,1.392,2.761,2.431,4.368,2.257
		c1.899-0.206,3.361-1.001,3.445-2.056C33.08,106.051,30.542,105.958,27.842,104.32z M28.174,67.851
		c2.604-1.209,5.149-1.189,7.72,0.085c-1.24-1.73-2.979-2.043-4.805-1.823C29.946,66.25,28.804,66.654,28.174,67.851z
		 M146.943,187.381c-1.298,0.817-1.692,2.069-1.813,3.42c-0.158,1.765,0.108,3.41,1.738,4.581
		C145.51,192.694,145.573,190.05,146.943,187.381z M235.914,182.491c-0.013,1.156-0.043,2.264-0.018,3.37
		c0.004,0.206,0.237,0.407,0.364,0.61c0.149-0.145,0.427-0.285,0.429-0.432c0.027-1.746,0.019-3.493-0.001-5.24
		c-0.001-0.133-0.154-0.265-0.247-0.412c-0.697,0.563-1.329,1.072-2.146,1.731C234.979,182.275,235.39,182.37,235.914,182.491z
		 M207.777,181.818c0.138,0.088,0.308,0.293,0.468,0.286c0.862-0.042,1.004,0.446,0.958,1.15c-0.054,0.837-0.092,1.677-0.092,2.515
		c0,0.184,0.193,0.366,0.298,0.55c0.159-0.135,0.454-0.266,0.458-0.404c0.051-1.713,0.068-3.427,0.05-5.14
		c-0.001-0.077-0.526-0.284-0.651-0.199C208.765,180.915,208.326,181.347,207.777,181.818z M29.926,96.854
		c-0.213,0.361-0.643,0.624-1.208-0.08c-0.09-0.111-0.344-0.092-0.522-0.133c-0.031,0.212-0.158,0.486-0.071,0.621
		c0.188,0.295,0.449,0.586,0.75,0.756c0.402,0.225,0.871,0.333,1.14,0.43c0.615-0.139,1.089-0.302,1.573-0.34
		c0.635-0.051,1.28,0.028,1.917-0.016c0.209-0.015,0.404-0.241,0.605-0.37c-0.202-0.174-0.387-0.465-0.609-0.497
		c-0.527-0.076-1.076,0.009-1.608-0.043C31.293,97.124,30.702,96.988,29.926,96.854z M47.682,8.065
		c0.139,0.076,0.277,0.151,0.415,0.227c0.151-0.274,0.427-0.547,0.434-0.825c0.037-1.508,0.017-3.017-0.007-4.525
		c-0.003-0.207-0.133-0.412-0.204-0.618c-0.19,0.096-0.393,0.174-0.567,0.293c-0.344,0.238-0.683,0.486-1.003,0.755
		c-0.164,0.137-0.282,0.328-0.53,0.626c0.624,0.072,1.016,0.117,1.504,0.174C47.71,5.474,47.696,6.769,47.682,8.065z
		 M261.719,182.125c1.825,0.473,1.5,0.029,1.53,1.895c0.01,0.64-0.037,1.281,0,1.918c0.013,0.22,0.205,0.429,0.315,0.642
		c0.135-0.191,0.381-0.381,0.387-0.577c0.043-1.615,0.058-3.231,0.029-4.847c-0.002-0.156-0.467-0.473-0.519-0.437
		C262.898,181.123,262.374,181.582,261.719,182.125z M30.02,96.048c0.576-0.135,1.074-0.312,1.583-0.357
		c0.632-0.056,1.276,0.026,1.911-0.013c0.207-0.013,0.4-0.223,0.601-0.343c-0.209-0.158-0.403-0.423-0.628-0.452
		c-0.528-0.067-1.076,0.025-1.606-0.034c-0.625-0.07-1.239-0.23-2.004-0.38c-0.198,0.469-0.605,0.621-1.139-0.023
		c-0.092-0.111-0.351-0.083-0.532-0.118c-0.03,0.181-0.148,0.429-0.072,0.531c0.219,0.294,0.482,0.589,0.794,0.771
		C29.296,95.847,29.735,95.944,30.02,96.048z M47.897,162.492c0.097-0.037,0.194-0.074,0.291-0.112
		c0.021-1.942,0.042-3.884,0.065-6.089c-0.82,0.706-1.435,1.236-2.05,1.766c-0.004,0.112-0.008,0.224-0.012,0.336
		c1.534-0.376,1.528,0.498,1.466,1.426c-0.041,0.603-0.105,1.209-0.08,1.811C47.59,161.921,47.785,162.205,47.897,162.492z
		 M32.013,92.611c0,0.004,0,0.008,0,0.013c-0.568-0.006-1.14-0.05-1.702,0.002c-0.211,0.02-0.402,0.265-0.602,0.407
		c0.177,0.155,0.35,0.437,0.532,0.442c1.162,0.038,2.327,0.03,3.489-0.01c0.129-0.004,0.359-0.317,0.341-0.462
		c-0.018-0.143-0.284-0.342-0.456-0.359C33.086,92.592,32.548,92.616,32.013,92.611z M31.817,87.401c0-0.002,0-0.004,0-0.006
		c0.607,0.006,1.216,0.04,1.82,0.001c0.165-0.011,0.314-0.237,0.471-0.365c-0.137-0.149-0.27-0.422-0.412-0.427
		c-1.179-0.043-2.36-0.052-3.54-0.023c-0.155,0.003-0.304,0.28-0.456,0.431c0.167,0.124,0.324,0.337,0.5,0.354
		C30.736,87.419,31.278,87.396,31.817,87.401z M171.871,185.272c-0.538,0.421-0.979,0.767-1.548,1.211
		c0.51,0.176,0.812,0.279,1.206,0.415c-0.01,0.955-0.021,1.907-0.031,2.914C172.173,189.449,172.319,187.399,171.871,185.272z
		 M173.145,189.816c0.147,0.056,0.295,0.112,0.442,0.169c0.518-1.551,1.036-3.102,1.555-4.652c-0.142-0.049-0.283-0.1-0.425-0.15
		C174.193,186.728,173.668,188.271,173.145,189.816z M44.661,76.485c0.317-0.402,0.608-0.614,0.588-0.788
		c-0.023-0.195-0.306-0.446-0.52-0.5c-0.13-0.033-0.469,0.246-0.486,0.41C44.221,75.81,44.434,76.039,44.661,76.485z M45.471,93.27
		c-0.398-0.247-0.614-0.476-0.834-0.482c-0.145-0.003-0.441,0.348-0.413,0.488c0.048,0.231,0.303,0.419,0.471,0.626
		C44.895,93.738,45.097,93.574,45.471,93.27z M44.992,144.496c-0.141-0.126-0.282-0.251-0.423-0.376
		c-0.235,0.219-0.523,0.408-0.67,0.676c-0.043,0.08,0.319,0.379,0.496,0.578C44.593,145.081,44.792,144.789,44.992,144.496z
		 M44.942,41.093c-0.259,0.422-0.491,0.631-0.461,0.792c0.04,0.219,0.279,0.401,0.433,0.6c0.177-0.149,0.497-0.296,0.499-0.447
		C45.415,41.807,45.197,41.574,44.942,41.093z M45.135,110.173c-0.122-0.108-0.243-0.217-0.364-0.325
		c-0.25,0.217-0.499,0.434-0.749,0.651c0.199,0.158,0.397,0.316,0.595,0.475C44.791,110.707,44.963,110.44,45.135,110.173z
		 M44.236,127.07c-0.117,0.129-0.234,0.258-0.351,0.386c0.199,0.243,0.397,0.485,0.596,0.728c0.188-0.203,0.374-0.406,0.561-0.61
		C44.774,127.405,44.505,127.238,44.236,127.07z M44.02,58.568c0.404,0.22,0.645,0.451,0.775,0.4
		c0.209-0.082,0.429-0.333,0.478-0.549c0.026-0.115-0.315-0.45-0.461-0.434C44.599,58.01,44.412,58.262,44.02,58.568z"/>
	<path fill-rule="evenodd" clip-rule="evenodd" d="M266.594,5.109c-0.026,2.438-0.068,4.763-0.072,7.087
		c-0.008,3.806-0.001,7.612,0.031,11.418c0.002,0.316,0.283,0.621,0.354,0.949c0.076,0.358,0.131,0.75,0.062,1.103
		c-0.093,0.492-0.444,0.96-0.448,1.439c-0.089,11.864-0.158,23.729-0.207,35.594c-0.038,8.862-0.021,17.725-0.067,26.588
		c-0.046,8.732-0.16,17.465-0.213,26.198c-0.068,11.321-0.108,22.644-0.159,33.965c-0.04,8.985-0.096,17.969-0.1,26.952
		c0,1.01-0.254,1.319-1.3,1.31c-13.487-0.112-26.976-0.188-40.463-0.251c-6.778-0.033-13.556-0.013-20.333-0.038
		c-10.317-0.041-20.636-0.122-30.953-0.146c-7.045-0.016-14.092,0.069-21.136,0.05c-7.418-0.022-14.835-0.138-22.254-0.169
		c-8.059-0.034-16.118,0.005-24.176-0.035c-9.981-0.05-19.963-0.188-29.944-0.218c-7.686-0.022-15.373,0.061-23.059,0.1
		c-1.308,0.008-1.564-0.226-1.554-1.559c0.042-5.041,0.089-10.082,0.14-15.123c0.085-8.433,0.201-16.863,0.254-25.296
		c0.057-9.028,0.045-18.056,0.082-27.083c0.037-9.324,0.106-18.647,0.142-27.971c0.041-10.815,0.043-21.631,0.094-32.446
		c0.034-7.351,0.138-14.701,0.18-22.051c0.032-5.557,0.014-11.115,0.017-16.672c0-1.073-0.052-2.15,0.023-3.217
		c0.019-0.26,0.426-0.675,0.688-0.703c0.868-0.092,1.75-0.044,2.626-0.041c15.074,0.062,30.147,0.145,45.22,0.182
		c11.228,0.028,22.456-0.003,33.683-0.01c10.992-0.005,21.984-0.017,32.976-0.02c12.07-0.004,24.14-0.011,36.21-0.001
		c10.956,0.008,21.912,0.044,32.868,0.053c9.942,0.007,19.887-0.007,29.829-0.009C265.899,5.039,266.161,5.077,266.594,5.109z
		 M266.089,26.268c-0.962,0.051-1.76,0.107-2.559,0.129c-0.841,0.023-1.689-0.044-2.525,0.03c-3.022,0.27-6.04,0.581-9.06,0.882
		c-0.798,0.08-1.594,0.172-2.388,0.272c-1.748,0.221-3.492,0.604-5.243,0.644c-3.023,0.068-5.987,0.497-8.954,0.995
		c-0.921,0.155-1.872,0.112-2.802,0.22c-2.088,0.24-4.17,0.53-6.258,0.773c-0.562,0.065-1.142-0.011-1.704,0.058
		c-1.015,0.125-2.022,0.319-3.036,0.466c-0.364,0.053-0.741,0.027-1.105,0.083c-1.81,0.275-3.621,0.544-5.424,0.86
		c-0.983,0.172-1.94,0.499-2.928,0.641c-2.242,0.323-4.498,0.556-6.743,0.864c-1.158,0.16-2.3,0.443-3.458,0.601
		c-1.556,0.21-3.131,0.277-4.674,0.544c-2.064,0.357-4.096,0.91-6.16,1.261c-2.035,0.347-4.095,0.52-6.04,1.302
		c-0.543,0.218-1.176,0.214-1.769,0.3c-0.982,0.143-1.99,0.183-2.945,0.43c-3.09,0.8-6.159,1.68-9.24,2.513
		c-0.354,0.096-0.738,0.07-1.098,0.15c-0.777,0.173-1.553,0.359-2.319,0.576c-0.865,0.243-1.716,0.541-2.58,0.786
		c-0.632,0.178-1.294,0.256-1.911,0.469c-1.451,0.501-2.865,1.116-4.329,1.571c-1.229,0.382-2.55,0.491-3.759,0.92
		c-3.756,1.333-7.45,2.843-11.221,4.128c-3.559,1.212-6.929,2.836-10.316,4.425c-1.812,0.849-3.496,1.971-5.312,2.812
		c-1.015,0.47-1.851,1.31-2.801,1.657c-2.37,0.866-4.072,2.718-6.28,3.801c-1.24,0.608-2.24,1.694-3.375,2.526
		c-2.266,1.661-4.629,3.2-6.804,4.971c-1.856,1.512-3.583,3.204-5.23,4.947c-2.835,3-5.621,6.053-8.312,9.184
		c-1.311,1.524-2.381,3.259-3.521,4.927c-1.911,2.799-3.909,5.548-5.653,8.449c-2.026,3.371-3.833,6.875-5.704,10.339
		c-0.539,0.998-0.987,2.049-1.446,3.089c-0.366,0.828-0.646,1.695-1.031,2.513c-0.715,1.521-1.557,2.987-2.204,4.534
		c-1.193,2.852-2.267,5.752-3.421,8.62c-0.753,1.871-1.692,3.677-2.321,5.587c-1.73,5.261-3.286,10.579-5.018,15.841
		c-1.219,3.704-2.69,7.327-3.911,11.032c-1.537,4.664-2.97,9.362-5.27,13.731c-0.356,0.677-0.662,1.39-1.09,2.018
		c-0.573,0.841-1.243,1.616-2.032,2.625c1.105,0.013,1.967,0.022,2.829,0.03c6.847,0.062,13.694,0.113,20.541,0.201
		c0.832,0.011,1.181-0.241,1.109-1.089c-0.034-0.411,0.058-0.833,0.093-1.249c0.109,0.009,0.218,0.019,0.327,0.029
		c-0.004,0.353,0.03,0.709-0.019,1.056c-0.138,0.98,0.243,1.284,1.237,1.256c2.66-0.079,5.323-0.056,7.985-0.06
		c5.291-0.007,10.58-0.029,15.87,0.018c0.985,0.009,1.338-0.304,1.245-1.253c-0.032-0.327,0.063-0.665,0.1-0.999
		c0.094,0.005,0.188,0.01,0.281,0.016c0.025,0.707,0.051,1.416,0.074,2.065c8.736,0.093,17.372,0.185,26.101,0.278
		c0.006-0.521-0.009-0.889,0.019-1.253c0.027-0.354,0.099-0.703,0.151-1.055c0.104,0.006,0.207,0.014,0.31,0.02
		c0.028,0.275,0.078,0.55,0.081,0.824c0.021,1.512,0.017,1.512,1.57,1.513c8.056,0.005,16.113,0.013,24.169,0.016
		c0.291,0,0.581-0.043,0.896-0.066c0.054-0.815,0.1-1.549,0.148-2.282c0.103,0,0.207-0.001,0.31-0.002
		c0.049,0.762,0.098,1.524,0.144,2.232c8.73,0.094,17.375,0.186,26.096,0.279c0.046-0.816,0.085-1.494,0.123-2.173
		c0.297,0.215,0.385,0.447,0.398,0.683c0.086,1.528,0.08,1.521,1.555,1.522c7.888-0.001,15.774,0.003,23.663,0.003
		c0.353,0,0.706-0.028,1.067-0.044c0.047-0.808,0.086-1.483,0.124-2.16c0.085-0.002,0.171-0.003,0.256-0.004
		c0.084,0.702,0.17,1.406,0.27,2.23c0.384,0.003,0.745,0.007,1.107,0.011c4.992,0.054,9.983,0.118,14.975,0.154
		c3.034,0.023,6.068-0.016,9.102,0.014c0.708,0.007,0.985-0.225,0.927-0.929c-0.036-0.442,0.003-0.89,0.008-1.335
		c0.117-0.003,0.234-0.006,0.353-0.01c0.075,0.726,0.15,1.452,0.229,2.196c0.233,0.028,0.396,0.063,0.561,0.064
		c8.429,0.033,16.86,0.056,25.29,0.107c0.791,0.005,0.886-0.411,0.886-1.012c-0.001-1.718,0-3.435,0.008-5.152
		c0.017-3.203,0.015-6.406,0.072-9.609c0.014-0.779-0.279-1.01-0.998-0.975c-0.408,0.019-0.822-0.078-1.234-0.122
		c0.009-0.101,0.018-0.203,0.027-0.305c0.29-0.021,0.58-0.057,0.87-0.06c1.342-0.013,1.336-0.01,1.351-1.39
		c0.048-4.654,0.102-9.309,0.146-13.963c0.004-0.423-0.038-0.848-0.062-1.284c-0.809-0.059-1.509-0.109-2.209-0.161
		c0-0.103,0-0.207-0.001-0.311c0.37-0.026,0.746-0.108,1.107-0.068c0.925,0.106,1.223-0.246,1.211-1.188
		c-0.044-3.603-0.014-7.207-0.002-10.811c0.005-1.539,0.031-3.078,0.048-4.65c-0.858-0.074-1.546-0.134-2.231-0.193
		c0.005-0.103,0.01-0.205,0.015-0.307c0.41-0.023,0.822-0.085,1.229-0.058c0.667,0.044,0.953-0.145,0.956-0.896
		c0.017-4.925,0.084-9.849,0.131-14.772c0.004-0.327-0.026-0.654-0.041-1c-0.817-0.065-1.542-0.122-2.265-0.179
		c0.005-0.119,0.009-0.236,0.015-0.355c0.407-0.032,0.821-0.118,1.225-0.085c0.796,0.066,1.093-0.128,1.082-1.045
		c-0.056-4.848-0.02-9.694-0.017-14.54c0-0.329-0.023-0.657-0.04-1.084c-0.609-0.006-1.146,0.017-1.673-0.035
		c-0.165-0.017-0.311-0.234-0.465-0.36c0.151-0.092,0.301-0.256,0.456-0.263c0.559-0.027,1.118-0.001,1.62,0.004
		c0.068-0.208,0.088-0.239,0.089-0.271c0.061-5.457,0.129-10.912,0.15-16.369c0-0.217-0.412-0.568-0.68-0.625
		c-0.504-0.105-1.044-0.04-1.568-0.045c-0.009-0.102-0.017-0.203-0.025-0.304c0.356-0.052,0.724-0.183,1.069-0.141
		c0.879,0.106,1.162-0.198,1.162-1.106c-0.003-4.823,0.06-9.646,0.096-14.468c0.003-0.357-0.021-0.714-0.038-1.173
		c-0.464-0.005-0.828,0-1.191-0.015c-0.328-0.014-0.654-0.051-0.98-0.077c0.007-0.097,0.015-0.193,0.021-0.29
		c0.279-0.015,0.558-0.042,0.838-0.044c1.366-0.016,1.384-0.014,1.381-1.39c-0.006-3.456-0.036-6.91-0.044-10.366
		c-0.003-1.47,0.028-2.939,0.044-4.473c-0.498-0.005-0.832-0.002-1.165-0.015c-0.34-0.013-0.678-0.04-1.018-0.062
		c0.282-0.26,0.557-0.298,0.832-0.302c1.335-0.019,1.336-0.015,1.35-1.344c0.037-3.608,0.076-7.218,0.109-10.827
		C266.13,26.956,266.104,26.628,266.089,26.268z M51.132,175.538c0.244,0.003,0.333,0.031,0.37-0.001
		c0.203-0.174,0.387-0.37,0.589-0.547c2.539-2.231,3.529-5.397,4.756-8.342c1.588-3.812,2.785-7.786,4.116-11.703
		c2.035-5.984,4.042-11.977,6.061-17.968c1.492-4.425,2.747-8.927,4.747-13.181c1.243-2.643,2.088-5.472,3.289-8.137
		c1.794-3.981,3.725-7.902,5.639-11.829c0.663-1.36,1.419-2.678,2.188-3.982c1.872-3.18,3.714-6.38,5.692-9.493
		c1.151-1.813,2.618-3.424,3.809-5.215c2.844-4.276,6.186-8.119,9.867-11.677c1.249-1.207,2.722-2.222,3.788-3.565
		c0.995-1.254,2.18-2.16,3.468-3.01c0.393-0.259,0.796-0.508,1.167-0.796c1.906-1.477,3.762-3.024,5.718-4.432
		c1.917-1.378,3.902-2.668,5.915-3.902c1.726-1.059,3.514-2.022,5.311-2.959c2.428-1.267,4.868-2.515,7.345-3.682
		c2.323-1.096,4.673-2.146,7.062-3.09c3.208-1.268,6.442-2.478,9.705-3.595c2.331-0.798,4.485-2.208,7.088-2.128
		c0.274,0.008,0.551-0.233,0.838-0.326c1.644-0.533,3.287-1.067,4.938-1.576c0.634-0.195,1.303-0.279,1.927-0.498
		c0.908-0.319,1.762-0.833,2.689-1.052c1.838-0.435,3.717-0.696,5.567-1.082c2.188-0.456,4.363-0.965,6.544-1.453
		c1.267-0.282,2.532-0.566,3.798-0.852c1.558-0.352,3.108-0.73,4.67-1.048c1.432-0.292,2.875-0.525,4.315-0.774
		c2.236-0.386,4.475-0.771,6.713-1.143c1.742-0.29,3.485-0.564,5.231-0.832c1.551-0.237,3.104-0.454,4.656-0.681
		c1.517-0.222,3.032-0.447,4.548-0.668c1.907-0.278,3.809-0.595,5.723-0.818c2.088-0.245,4.185-0.396,6.277-0.6
		c0.265-0.025,0.52-0.152,0.784-0.187c1.79-0.228,3.581-0.435,5.371-0.668c0.923-0.121,1.841-0.282,2.761-0.427
		c0.33-0.052,0.655-0.144,0.985-0.164c2.376-0.14,4.753-0.264,7.129-0.401c0.197-0.012,0.39-0.095,0.588-0.129
		c1.903-0.324,3.798-0.745,5.715-0.938c2.36-0.239,4.743-0.265,7.112-0.426c0.963-0.066,1.913-0.296,2.877-0.363
		c1.34-0.093,2.688-0.067,4.028-0.158c1.399-0.095,1.72-0.639,1.265-1.995c-0.665-0.074-1.331-0.148-1.999-0.222
		c0.014-0.14,0.026-0.278,0.04-0.417c0.384,0.004,0.772-0.025,1.152,0.019c0.827,0.097,1.081-0.185,1.076-1.065
		c-0.034-4.885-0.008-9.77,0.044-14.653c0.009-0.873-0.146-1.231-1.146-1.229c-8.263,0.019-16.525-0.026-24.788-0.049
		c-0.263,0-0.523,0.025-0.793,0.039c-0.101,0.634-0.191,1.212-0.282,1.791c-0.107-0.018-0.214-0.036-0.318-0.054
		c-0.029-0.558-0.059-1.115-0.095-1.822c-8.727,0.042-17.401,0.083-26.08,0.125c-0.054,0.64-0.099,1.178-0.142,1.716
		c-0.118-0.004-0.235-0.007-0.354-0.011c-0.039-0.538-0.079-1.076-0.111-1.527c-8.775-0.093-17.483-0.186-26.176-0.278
		c-0.103,0.734-0.178,1.275-0.254,1.816c-0.089-0.009-0.178-0.019-0.268-0.028c-0.044-0.519-0.088-1.039-0.129-1.507
		c-8.734-0.093-17.406-0.186-26.069-0.277c-0.085,0.772-0.146,1.332-0.207,1.893c-0.098-0.004-0.197-0.008-0.296-0.012
		c-0.038-0.57-0.077-1.141-0.111-1.643c-8.902-0.095-17.74-0.189-26.571-0.283c-0.07,0.762-0.122,1.331-0.174,1.9
		c-0.109,0.001-0.218,0.002-0.327,0.004c-0.069-0.591-0.138-1.182-0.221-1.907c-8.667,0.021-17.307,0.043-25.974,0.065
		c-0.06,0.618-0.111,1.15-0.163,1.681c-0.097,0-0.194-0.002-0.291-0.002c-0.05-0.561-0.1-1.122-0.16-1.788
		C95.91,5.366,87.23,5.416,78.591,5.466c-0.104,0.617-0.183,1.088-0.263,1.559C78.25,7.013,78.172,7,78.094,6.989
		C78.06,6.5,78.024,6.011,78.002,5.693C69.229,5.6,60.561,5.508,51.986,5.417c-0.06,5.682-0.119,11.124-0.177,16.583
		c0.693,0.087,1.239,0.157,1.785,0.225c-0.001,0.107-0.002,0.213-0.003,0.319c-0.563,0.105-1.125,0.21-1.62,0.303
		c-0.058,5.421-0.115,10.793-0.172,16.203c0.662,0.069,1.189,0.125,1.715,0.181c-0.139,0.276-0.289,0.389-0.418,0.369
		c-1.123-0.169-1.32,0.377-1.317,1.39c0.012,4.486-0.059,8.972-0.099,13.458c-0.004,0.358-0.008,0.715-0.012,1.069
		c0.705,0.082,1.264,0.147,1.824,0.213c-0.169,0.31-0.349,0.451-0.505,0.428c-1.188-0.177-1.373,0.428-1.361,1.462
		c0.055,4.783,0.038,9.568,0.052,14.352c0,0.261,0.041,0.521,0.062,0.771c0.588,0.07,1.115,0.133,1.641,0.196
		c-0.005,0.077-0.01,0.155-0.015,0.232c-0.548,0.066-1.096,0.133-1.606,0.194c-0.05,0.149-0.089,0.213-0.09,0.276
		c-0.051,5.327-0.092,10.653-0.158,15.979c-0.008,0.653,0.282,0.803,0.857,0.798c0.329-0.003,0.66,0.133,0.991,0.207
		c-0.023,0.126-0.046,0.251-0.069,0.375c-0.519,0.039-1.038,0.077-1.612,0.119c-0.037,0.41-0.096,0.773-0.099,1.137
		c-0.033,4.788-0.036,9.576-0.103,14.363c-0.013,0.929,0.205,1.341,1.187,1.133c0.169-0.036,0.381,0.122,0.572,0.19
		c-0.003,0.085-0.006,0.17-0.009,0.254c-0.56,0.077-1.12,0.154-1.606,0.221c-0.059,5.493-0.117,10.922-0.174,16.354
		c0.666,0.078,1.19,0.139,1.715,0.2c0.002,0.106,0.005,0.212,0.008,0.316c-0.552,0.117-1.104,0.232-1.704,0.358
		c-0.003,0.369-0.007,0.669-0.01,0.97c-0.045,4.553-0.09,9.106-0.136,13.659c-0.016,1.61-0.018,1.608,1.59,1.807
		c0.073,0.008,0.133,0.114,0.262,0.231c-0.224,0.104-0.406,0.27-0.558,0.246c-1.325-0.207-1.35,0.597-1.347,1.572
		c0.01,3.605-0.032,7.211-0.057,10.814c-0.01,1.402-0.029,2.803-0.044,4.19c0.753,0.09,1.281,0.152,1.809,0.216
		c0,0.108-0.001,0.218-0.002,0.325c-0.556,0.068-1.111,0.137-1.671,0.205C51.242,165.134,51.187,170.316,51.132,175.538z"/>
	<path fill-rule="evenodd" clip-rule="evenodd" d="M159.622,182.922c0.072,0.103,0.166,0.234,0.26,0.364
		c0.64,0.902,0.609,1.757-0.087,2.46c-0.711,0.716-1.958,0.772-2.752,0.125c-0.772-0.631-0.855-1.415-0.336-2.436
		c0.145-0.282,0.264-0.743,0.132-0.972c-0.533-0.928-0.091-1.57,0.558-2.103c0.681-0.558,1.622-0.397,2.271,0.295
		c0.613,0.656,0.755,1.333,0.036,2.022C159.66,182.718,159.66,182.801,159.622,182.922z M158.086,185.562
		c0.935-0.166,1.422-0.549,1.286-1.187c-0.086-0.411-0.687-1.044-0.979-1.003c-0.433,0.058-1.021,0.574-1.115,0.991
		C157.206,184.688,157.792,185.158,158.086,185.562z M159.643,181.684c-0.626-0.373-0.983-0.755-1.284-0.714
		c-0.288,0.038-0.657,0.487-0.719,0.809c-0.036,0.183,0.476,0.664,0.736,0.661C158.705,182.436,159.028,182.074,159.643,181.684z"/>
	<path fill-rule="evenodd" clip-rule="evenodd" d="M133.102,181.758c-0.73-0.34-1.299-0.798-1.895-0.833
		c-0.812-0.049-0.967,0.736-1.106,1.223c0.744,0.049,1.516-0.059,2.14,0.196c0.432,0.176,0.774,0.812,0.951,1.315
		c0.345,0.983-0.224,2.01-1.174,2.358c-1.064,0.391-2.113,0.035-2.521-0.992c-0.589-1.488-0.534-3.023,0.444-4.307
		c0.349-0.459,1.204-0.72,1.833-0.729C132.55,179.979,132.945,180.605,133.102,181.758z M131.155,182.947
		c-0.683,0.066-1.182,0.541-1.055,1.156c0.098,0.479,0.694,0.856,1.07,1.279c0.422-0.415,1.097-0.775,1.207-1.263
		C132.533,183.428,131.919,183.021,131.155,182.947z"/>
	<path fill-rule="evenodd" clip-rule="evenodd" d="M31.327,102.543c0.466,0.037,0.765,0.056,1.062,0.085
		c0.685,0.071,0.984-0.195,0.932-0.918c-0.047-0.669-0.02-1.348,0.025-2.019c0.012-0.182,0.208-0.35,0.318-0.524
		c0.125,0.169,0.354,0.336,0.357,0.507c0.017,1.266-0.01,2.531-0.024,3.871c-1.9-0.021-3.836-0.04-5.902-0.062
		c0.015-1.338,0.019-2.672,0.059-4.006c0.004-0.125,0.229-0.243,0.353-0.365c0.116,0.171,0.323,0.337,0.331,0.515
		c0.032,0.738,0.032,1.481-0.01,2.222c-0.035,0.635,0.264,0.837,0.842,0.818c0.571-0.019,0.977-0.13,0.896-0.866
		c-0.065-0.6-0.038-1.213,0.005-1.816c0.012-0.169,0.225-0.325,0.346-0.488c0.146,0.173,0.409,0.341,0.417,0.52
		C31.372,100.814,31.337,101.618,31.327,102.543z"/>
	<path fill-rule="evenodd" clip-rule="evenodd" d="M48.215,42.916c-0.65-0.489-1.365-0.779-1.631-1.3
		c-0.232-0.453,0.046-1.165,0.093-1.763c0.03-0.386,0.185-0.831,0.047-1.147c-0.36-0.835-0.136-1.46,0.545-1.922
		c0.727-0.493,1.517-0.492,2.218,0.08c0.641,0.523,0.866,1.139,0.383,1.942c-0.141,0.233-0.015,0.635,0.011,0.958
		c0.054,0.663,0.364,1.441,0.116,1.953C49.754,42.22,48.951,42.453,48.215,42.916z M48.175,41.989
		c0.153-0.009,0.306-0.018,0.459-0.027c0.255-0.392,0.673-0.762,0.727-1.179c0.08-0.627-0.319-1.028-1.034-1.036
		c-0.705-0.008-1.174,0.407-1.091,0.991C47.301,41.19,47.845,41.574,48.175,41.989z M47.152,38.101
		c0.519,0.359,0.85,0.768,1.155,0.749c0.297-0.018,0.568-0.471,0.851-0.734c-0.289-0.29-0.547-0.76-0.876-0.816
		C48.018,37.254,47.669,37.711,47.152,38.101z"/>
	<path fill-rule="evenodd" clip-rule="evenodd" d="M49.306,23.309c-0.936,0.4-1.794,0.384-2.482-0.42
		c-0.559-0.654-0.622-1.393-0.279-2.165c0.336-0.76,0.851-1.278,1.759-1.267c0.872,0.012,1.474,0.395,1.765,1.223
		c0.452,1.291,0.437,2.581-0.131,3.828c-0.332,0.731-0.951,1.224-1.762,1.07c-0.535-0.102-1.039-0.484-1.489-0.83
		c-0.119-0.092,0.011-0.509,0.027-0.777c0.231,0.078,0.468,0.14,0.691,0.235c0.397,0.17,0.885,0.597,1.157,0.484
		c0.407-0.167,0.66-0.709,0.979-1.091C49.462,23.502,49.384,23.405,49.306,23.309z M49.614,21.282
		c-0.386-0.325-0.725-0.784-1.17-0.941c-0.514-0.181-1.273,0.628-1.187,1.217c0.091,0.626,0.376,1.172,1.148,1.161
		C49.202,22.707,49.41,22.179,49.614,21.282z"/>
	<path fill-rule="evenodd" clip-rule="evenodd" d="M267.011,182.933c1.624-0.781,2.981,0.145,3.01,1.685
		c0.017,0.993-0.429,1.762-1.487,2.065c-0.95,0.272-1.886-0.11-2.23-1.041c-0.496-1.343-0.399-2.699,0.146-4.024
		c0.369-0.891,1.105-1.168,1.962-1.069c0.882,0.103,1.448,0.619,1.549,1.778c-0.385-0.138-0.662-0.219-0.924-0.335
		c-0.417-0.181-0.952-0.646-1.21-0.522c-0.455,0.221-0.739,0.795-1.096,1.221C266.824,182.771,266.917,182.852,267.011,182.933z
		 M269.312,184.509c-0.438-0.365-0.878-1.007-1.317-1.007c-0.376-0.001-0.962,0.683-1.078,1.157
		c-0.154,0.629,0.261,1.147,1.042,1.161C268.705,185.835,269.069,185.461,269.312,184.509z"/>
	<path fill-rule="evenodd" clip-rule="evenodd" d="M50.117,71.925c-1.268-0.608-2.646-1.763-3.053,0.601
		c0.56-0.097,1.131-0.345,1.626-0.239c0.465,0.1,1.106,0.503,1.214,0.898c0.195,0.71,0.241,1.583-0.004,2.26
		c-0.291,0.805-1.175,0.875-1.993,0.809c-0.882-0.073-1.291-0.651-1.516-1.397c-0.419-1.389-0.313-2.787,0.522-3.948
		c0.334-0.463,1.182-0.733,1.812-0.762C49.505,70.11,49.892,70.688,50.117,71.925z M48.181,73.12
		c-0.635,0.066-1.186,0.528-1.072,1.112c0.098,0.496,0.739,0.884,1.14,1.32c0.389-0.433,1-0.815,1.112-1.31
		C49.506,73.597,48.931,73.205,48.181,73.12z"/>
	<path fill-rule="evenodd" clip-rule="evenodd" d="M39.113,107.823c0.155-0.539,0.208-1.338,0.599-1.904
		c0.33-0.477,1.081-0.979,1.591-0.929c0.574,0.056,1.416,0.63,1.557,1.142c0.293,1.058,0.333,2.235,0.226,3.34
		c-0.094,0.957-0.78,1.625-1.839,1.68c-0.842,0.045-1.594-0.604-1.88-1.644C39.237,109.031,39.215,108.524,39.113,107.823z
		 M40.047,108.014c0.072,0.469,0.038,0.913,0.217,1.241c0.212,0.391,0.609,0.946,0.924,0.945c0.346-0.003,0.954-0.53,0.986-0.872
		c0.09-0.962-0.005-1.954-0.145-2.917c-0.034-0.232-0.521-0.558-0.796-0.555c-0.285,0.005-0.702,0.297-0.818,0.567
		C40.195,106.932,40.152,107.515,40.047,108.014z"/>
	<path fill-rule="evenodd" clip-rule="evenodd" d="M43.131,159.596c-0.136,1.679-0.622,2.594-1.646,2.912
		c-0.879,0.275-1.786-0.126-2.181-0.96c-0.667-1.407-0.568-2.779,0.095-4.172c0.345-0.725,0.912-0.962,1.621-0.951
		c0.727,0.011,1.331,0.328,1.572,1.047C42.824,158.162,42.956,158.886,43.131,159.596z M42.186,159.498
		c-0.109-0.52-0.13-1.045-0.34-1.479c-0.151-0.314-0.572-0.725-0.839-0.702c-0.337,0.029-0.775,0.39-0.933,0.722
		c-0.484,1.014-0.49,2.094,0.034,3.102c0.138,0.266,0.548,0.539,0.831,0.538c0.29-0.001,0.717-0.272,0.837-0.537
		C42.005,160.636,42.059,160.053,42.186,159.498z"/>
	<path fill-rule="evenodd" clip-rule="evenodd" d="M38.938,142.217c0.146-0.557,0.266-1.218,0.496-1.838
		c0.262-0.708,0.767-1.165,1.592-1.171c0.806-0.006,1.465,0.344,1.628,1.094c0.229,1.054,0.379,2.162,0.313,3.23
		c-0.056,0.908-0.486,1.775-1.645,1.836c-1.264,0.065-1.681-0.236-2.134-1.646C39.047,143.283,39.031,142.804,38.938,142.217z
		 M42.277,142.152c-0.02-0.17,0.038-0.66-0.152-1.019c-0.212-0.399-0.635-0.916-0.995-0.939c-0.33-0.021-0.817,0.485-1.017,0.871
		c-0.202,0.389-0.165,0.915-0.178,1.383c-0.033,1.233,0.427,2.085,1.097,2.097C41.744,144.558,42.258,143.677,42.277,142.152z"/>
	<path fill-rule="evenodd" clip-rule="evenodd" d="M76.826,185.002c0.735,0.007,1.474-0.021,2.205,0.045
		c0.224,0.019,0.425,0.288,0.637,0.441c-0.21,0.123-0.418,0.347-0.631,0.353c-1.105,0.024-2.211-0.007-3.345-0.019
		c-0.288-1.132,0.404-1.713,1.052-2.27c0.48-0.412,1.104-0.668,1.552-1.107c0.263-0.256,0.468-0.768,0.4-1.104
		c-0.053-0.261-0.58-0.607-0.877-0.589c-0.334,0.021-0.649,0.402-0.967,0.636c-0.276,0.202-0.542,0.418-0.813,0.627
		c-0.017-0.368-0.158-0.791-0.024-1.093c0.356-0.807,1.138-1.332,1.928-1.145c0.648,0.153,1.328,0.757,1.699,1.347
		c0.45,0.716-0.062,1.439-0.632,1.943c-0.447,0.395-1.01,0.656-1.506,0.999c-0.284,0.195-0.538,0.435-0.806,0.654
		C76.74,184.814,76.783,184.908,76.826,185.002z"/>
	<path fill-rule="evenodd" clip-rule="evenodd" d="M138.251,189.702c0.19-0.058,0.502-0.152,0.929-0.281
		c0.052,0.526,0.098,0.995,0.158,1.6c0.656-0.538,1.192-1.022,1.778-1.438c0.213-0.15,0.541-0.159,0.82-0.179
		c0.047-0.003,0.114,0.269,0.172,0.412c-0.252,0.071-0.5,0.166-0.756,0.209c-0.886,0.146-1.295,1.064-0.759,1.781
		c0.395,0.527,0.839,1.018,1.437,1.734c0.754-2.234,1.425-4.222,2.096-6.209c0.117,0.026,0.234,0.052,0.351,0.079
		c0.014,0.196,0.085,0.411,0.032,0.588c-0.517,1.704-1.066,3.398-1.58,5.104c-0.166,0.55-0.453,0.768-1.036,0.652
		c-0.391-0.077-0.802-0.057-1.134-0.075c-0.398-0.63-0.774-1.226-1.151-1.823c-0.078,0.024-0.155,0.051-0.232,0.076
		c-0.032,0.206-0.039,0.421-0.103,0.616c-0.119,0.363-0.271,0.716-0.41,1.071c-0.12-0.372-0.291-0.737-0.347-1.119
		c-0.058-0.396,0.031-0.811-0.007-1.211C138.459,190.779,138.347,190.275,138.251,189.702z"/>
	<path fill-rule="evenodd" clip-rule="evenodd" d="M43.33,125.335c-0.18,0.663-0.298,1.324-0.543,1.936
		c-0.276,0.688-0.892,0.987-1.614,0.979c-0.705-0.009-1.298-0.25-1.624-0.957c-0.677-1.466-0.745-2.942,0.164-4.294
		c0.298-0.443,1.032-0.877,1.523-0.833c0.553,0.05,1.236,0.534,1.538,1.028C43.135,123.784,43.153,124.586,43.33,125.335z
		 M42.441,125.288c-0.118-0.55-0.152-1.143-0.388-1.637c-0.137-0.287-0.603-0.584-0.915-0.577c-0.31,0.007-0.766,0.326-0.882,0.619
		c-0.202,0.512-0.26,1.106-0.255,1.666c0.01,1.234,0.521,2.128,1.128,2.129C41.781,127.489,42.328,126.516,42.441,125.288z"/>
	<path fill-rule="evenodd" clip-rule="evenodd" d="M189.343,183.231c-0.177,0.808-0.176,1.544-0.505,2.08
		c-0.285,0.467-0.899,0.84-1.444,1.009c-0.67,0.206-1.309-0.06-1.712-0.729c-0.798-1.325-0.718-3.549,0.193-4.79
		c0.729-0.995,2.251-0.913,2.846,0.244C189.073,181.734,189.16,182.56,189.343,183.231z M188.372,183.355
		c0.024-0.006,0.051-0.012,0.075-0.017c-0.097-0.488-0.104-1.021-0.319-1.449c-0.168-0.334-0.571-0.707-0.91-0.75
		c-0.267-0.035-0.756,0.352-0.86,0.65c-0.226,0.65-0.416,1.379-0.348,2.048c0.074,0.723,0.255,1.735,1.225,1.69
		c0.936-0.043,1.039-0.989,1.131-1.771C188.38,183.626,188.369,183.49,188.372,183.355z"/>
	<path fill-rule="evenodd" clip-rule="evenodd" d="M48.994,182.845c0.188-0.686,0.339-1.37,0.566-2.028
		c0.239-0.695,0.712-1.065,1.515-1.079c0.848-0.014,1.418,0.284,1.75,1.056c0.543,1.261,0.593,2.529,0.099,3.822
		c-0.314,0.822-0.973,1.375-1.745,1.25c-0.619-0.099-1.284-0.646-1.679-1.18C49.154,184.22,49.156,183.496,48.994,182.845z
		 M52.432,182.737c-0.098-0.422-0.134-0.943-0.346-1.38c-0.155-0.318-0.548-0.738-0.819-0.728c-0.338,0.015-0.893,0.382-0.947,0.672
		c-0.167,0.893-0.237,1.833-0.137,2.729c0.039,0.344,0.64,0.862,0.987,0.864c0.329,0.001,0.735-0.524,0.965-0.904
		C52.332,183.668,52.327,183.224,52.432,182.737z"/>
	<path fill-rule="evenodd" clip-rule="evenodd" d="M49.297,124.952c0.694,0.63,1.042,1.348,0.61,2.186
		c-0.444,0.857-1.218,1.125-2.185,1.109c-0.862-0.015-1.408-0.4-1.735-1.114c-0.113-0.248,0.008-0.603,0.022-0.907
		c0.275,0.153,0.645,0.241,0.805,0.475c0.417,0.604,0.862,1.116,1.612,0.636c0.338-0.218,0.733-0.719,0.694-1.042
		c-0.035-0.297-0.616-0.532-0.964-0.785c-0.212-0.153-0.438-0.291-0.659-0.436c0.199-0.211,0.391-0.43,0.6-0.63
		c0.257-0.247,0.577-0.445,0.763-0.732c0.047-0.073-0.304-0.581-0.482-0.587c-0.42-0.014-0.91,0.055-1.252,0.275
		c-0.35,0.225-0.354,1.127-1.022,0.604c-0.141-0.11,0.138-0.987,0.42-1.362c0.531-0.703,1.876-0.752,2.583-0.209
		C49.941,123.072,50.012,123.806,49.297,124.952z"/>
	<path fill-rule="evenodd" clip-rule="evenodd" d="M46.992,144.408c0.699,0.007,1.401-0.024,2.095,0.041
		c0.269,0.025,0.517,0.27,0.774,0.413c-0.247,0.155-0.486,0.428-0.742,0.444c-0.871,0.057-1.749-0.004-2.622,0.032
		c-0.83,0.035-1.02-0.391-0.624-0.98c0.418-0.623,0.99-1.15,1.542-1.669c0.336-0.317,0.832-0.479,1.124-0.823
		c0.226-0.265,0.416-0.765,0.312-1.048c-0.109-0.297-0.58-0.623-0.903-0.633c-0.312-0.011-0.651,0.346-0.951,0.575
		c-0.267,0.205-0.497,0.46-0.743,0.692c-0.02-0.381-0.167-0.814-0.035-1.132c0.353-0.852,1.084-1.097,1.984-1.04
		c0.887,0.055,1.309,0.59,1.589,1.325c0.295,0.777-0.045,1.373-0.587,1.879c-0.238,0.223-0.542,0.374-0.813,0.56
		c-0.51,0.353-1.018,0.705-1.526,1.058C46.907,144.205,46.949,144.306,46.992,144.408z"/>
	<path fill-rule="evenodd" clip-rule="evenodd" d="M43.504,73.5c-0.161,0.603-0.188,1.338-0.542,1.848
		c-0.316,0.456-0.982,0.894-1.509,0.913c-0.522,0.02-1.301-0.359-1.554-0.8c-0.817-1.422-0.704-2.955-0.019-4.432
		c0.35-0.751,1.026-0.919,1.771-0.85c0.727,0.067,1.279,0.397,1.436,1.18C43.224,72.042,43.354,72.727,43.504,73.5z M42.671,73.197
		c-0.154-0.556-0.228-1.166-0.489-1.682c-0.361-0.713-1.244-0.697-1.584,0.018c-0.53,1.113-0.532,2.283,0.011,3.39
		c0.406,0.827,1.175,0.806,1.58-0.04C42.426,74.387,42.502,73.813,42.671,73.197z"/>
	<path fill-rule="evenodd" clip-rule="evenodd" d="M39.188,90.709c0.169-0.596,0.31-1.249,0.543-1.867
		c0.299-0.793,0.931-1.03,1.764-1.015c0.815,0.015,1.217,0.444,1.488,1.115c0.467,1.16,0.551,2.339,0.18,3.542
		c-0.283,0.92-0.885,1.584-1.853,1.579c-0.958-0.005-1.616-0.594-1.807-1.588C39.397,91.918,39.304,91.36,39.188,90.709z
		 M40.031,90.834c0.138,0.547,0.208,1.125,0.439,1.628c0.124,0.27,0.521,0.564,0.803,0.571c0.292,0.007,0.747-0.252,0.858-0.512
		c0.232-0.54,0.369-1.153,0.394-1.743c0.05-1.222-0.526-2.18-1.198-2.17C40.668,88.62,40.146,89.583,40.031,90.834z"/>
	<path fill-rule="evenodd" clip-rule="evenodd" d="M45.196,176.646c0.087-0.435,0.181-1.097,0.36-1.732
		c0.226-0.81,0.83-1.219,1.65-1.207c0.84,0.012,1.573,0.364,1.708,1.253c0.163,1.07,0.293,2.181,0.179,3.246
		c-0.119,1.112-1.05,1.782-2.005,1.763c-0.83-0.017-1.532-0.701-1.765-1.787C45.232,177.76,45.248,177.317,45.196,176.646z
		 M46.036,176.863c0.066,0.387,0.046,0.896,0.252,1.286c0.187,0.354,0.624,0.8,0.945,0.796c0.335-0.004,0.883-0.457,0.949-0.79
		c0.159-0.802,0.203-1.667,0.068-2.47c-0.071-0.421-0.613-0.764-0.943-1.142c-0.361,0.381-0.786,0.721-1.06,1.157
		C46.069,175.986,46.109,176.41,46.036,176.863z"/>
	<path fill-rule="evenodd" clip-rule="evenodd" d="M39.362,56c0.168-0.63,0.296-1.321,0.541-1.969
		c0.262-0.696,0.836-0.951,1.59-0.962c0.779-0.012,1.327,0.322,1.603,0.979c0.561,1.336,0.68,2.768-0.014,4.045
		c-0.293,0.541-1.149,1.1-1.723,1.074c-0.565-0.024-1.242-0.686-1.603-1.241C39.438,57.439,39.49,56.712,39.362,56z M42.71,56.034
		c-0.081-0.333-0.146-0.952-0.393-1.487c-0.142-0.309-0.586-0.68-0.877-0.665c-0.305,0.015-0.724,0.405-0.849,0.727
		c-0.199,0.515-0.255,1.107-0.269,1.669c-0.032,1.248,0.463,2.027,1.19,1.998C42.137,58.25,42.685,57.343,42.71,56.034z"/>
	<path fill-rule="evenodd" clip-rule="evenodd" d="M43.707,22.65c-0.19,0.779-0.181,1.511-0.53,1.968
		c-0.38,0.496-1.067,0.957-1.668,1.029c-0.67,0.08-1.296-0.376-1.599-1.141c-0.554-1.4-0.434-2.777,0.173-4.079
		c0.194-0.416,0.789-0.758,1.27-0.899c0.683-0.2,1.396,0.024,1.681,0.744C43.346,21.063,43.506,21.916,43.707,22.65z M42.792,22.663
		c-0.097-0.558-0.106-1.116-0.307-1.593c-0.139-0.327-0.525-0.721-0.835-0.753c-0.279-0.029-0.724,0.331-0.887,0.633
		c-0.576,1.067-0.489,2.207-0.031,3.287c0.112,0.264,0.591,0.551,0.868,0.521c0.317-0.035,0.716-0.352,0.864-0.653
		C42.677,23.672,42.693,23.145,42.792,22.663z"/>
	<path fill-rule="evenodd" clip-rule="evenodd" d="M43.633,39.712c-0.122,0.57-0.11,1.243-0.41,1.721
		c-0.303,0.48-0.863,0.933-1.402,1.098c-0.679,0.208-1.422,0.035-1.817-0.725c-0.793-1.524-0.683-3.066,0.043-4.555
		c0.335-0.687,1.075-1.057,1.786-0.781c0.556,0.215,1.122,0.715,1.403,1.24C43.536,38.27,43.509,39.005,43.633,39.712z
		 M42.837,39.515c-0.164-0.551-0.26-1.117-0.504-1.608c-0.137-0.273-0.505-0.557-0.796-0.59c-0.242-0.028-0.635,0.243-0.772,0.488
		c-0.625,1.122-0.648,2.299-0.035,3.432c0.127,0.236,0.526,0.478,0.777,0.456c0.296-0.026,0.69-0.273,0.823-0.534
		C42.578,40.668,42.668,40.098,42.837,39.515z"/>
	<path fill-rule="evenodd" clip-rule="evenodd" d="M49.792,88.226c-0.197,0.161-0.373,0.401-0.597,0.463
		c-0.315,0.088-0.667,0.046-1.003,0.055c-1.003,0.026-1.004,0.025-0.982,0.938c0.812,0.27,1.645,0.402,2.293,0.82
		c0.351,0.227,0.508,0.931,0.542,1.435c0.078,1.118-0.678,1.941-1.758,2.078c-1.147,0.146-1.969-0.434-2.336-1.921
		c0.469,0.229,0.842,0.298,1.028,0.521c0.523,0.631,1.196,0.788,1.736,0.292c0.32-0.294,0.493-1.081,0.333-1.491
		c-0.264-0.679-0.938-0.906-1.688-0.536c-0.286,0.142-0.602,0.223-1.176,0.43c0.187-1.25,0.34-2.272,0.499-3.333
		c1.048,0.011,2.01,0.021,2.972,0.031C49.702,88.081,49.747,88.153,49.792,88.226z"/>
	<path fill-rule="evenodd" clip-rule="evenodd" d="M212.574,185.532c1.334,0.074,2.316,0.128,3.298,0.183
		c0.005,0.129,0.01,0.258,0.015,0.388c-0.222,0.069-0.442,0.187-0.667,0.198c-0.839,0.044-1.679,0.064-2.518,0.07
		c-0.925,0.008-1.207-0.391-0.718-1.171c0.343-0.547,0.877-0.985,1.37-1.422c0.375-0.331,0.887-0.52,1.21-0.887
		c0.225-0.255,0.391-0.756,0.291-1.046c-0.103-0.296-0.56-0.64-0.868-0.647c-0.302-0.007-0.784,0.327-0.881,0.614
		c-0.187,0.555-0.386,0.826-0.978,0.611c-0.111-0.963,0.386-1.827,1.171-2.054c0.961-0.276,1.982,0.101,2.352,0.869
		c0.424,0.877,0.185,1.932-0.611,2.507c-0.434,0.312-0.929,0.535-1.369,0.837C213.357,184.8,213.09,185.082,212.574,185.532z"/>
	<path fill-rule="evenodd" clip-rule="evenodd" d="M32.625,84.865c0.326-0.306,0.805-0.562,0.928-0.935
		c0.086-0.265-0.314-0.685-0.488-1.039c-0.134-0.271-0.254-0.549-0.381-0.825c0.324,0.047,0.748-0.019,0.953,0.163
		c0.654,0.576,0.87,1.331,0.55,2.185c-0.313,0.837-0.875,1.31-1.812,1.314c-1.814,0.008-2.723-0.681-2.69-2.083
		c0.025-1.089,0.718-1.823,1.799-1.94c0.55-0.06,0.833,0.122,0.815,0.709c-0.023,0.735-0.019,1.472-0.027,2.208
		C32.39,84.703,32.508,84.785,32.625,84.865z M31.465,84.654c0.007-0.665,0.014-1.303,0.02-1.94
		c-0.098-0.062-0.196-0.123-0.295-0.185c-0.284,0.366-0.762,0.709-0.806,1.102C30.321,84.216,30.705,84.682,31.465,84.654z"/>
	<path fill-rule="evenodd" clip-rule="evenodd" d="M241.879,184.02c0.709,0.309,1.238,0.626,0.232,1.246
		c-0.125,0.077-0.104,0.363-0.197,0.527c-0.145,0.256-0.329,0.49-0.495,0.733c-0.14-0.261-0.292-0.517-0.412-0.786
		c-0.052-0.113-0.036-0.257-0.067-0.531c-0.533-0.007-1.056-0.014-1.578-0.017c-0.752-0.006-1.041-0.404-0.657-1.027
		c0.738-1.197,1.563-2.34,2.376-3.488c0.094-0.131,0.412-0.261,0.501-0.202c0.16,0.105,0.312,0.354,0.314,0.545
		C241.917,181.99,241.889,182.963,241.879,184.02z M241.007,182.414c-0.07-0.028-0.14-0.055-0.21-0.082
		c-0.382,0.535-0.764,1.071-1.229,1.724c0.621,0.007,1.001,0.011,1.422,0.015C240.995,183.465,241,182.938,241.007,182.414z"/>
	<path fill-rule="evenodd" clip-rule="evenodd" d="M48.161,109.614c-0.642-0.007-1.371-0.015-2.122-0.022
		c-0.03-0.253-0.125-0.465-0.057-0.571c0.842-1.315,1.709-2.615,2.569-3.92c0.236,0.164,0.649,0.306,0.674,0.497
		c0.08,0.629-0.002,1.277,0.018,1.915c0.017,0.55-0.272,1.249,0.625,1.44c0.062,0.013,0.148,0.338,0.088,0.424
		c-0.395,0.559-0.827,1.091-1.246,1.631C48.554,110.609,48.396,110.209,48.161,109.614z M46.829,108.698
		c0.689,0.008,1.101,0.013,1.544,0.017c0.007-0.68,0.013-1.283,0.023-2.175C47.808,107.35,47.381,107.938,46.829,108.698z"/>
	<path fill-rule="evenodd" clip-rule="evenodd" d="M30.582,114.376c-0.228-0.229-0.641-0.455-0.642-0.686
		c-0.003-0.399,0.248-0.8,0.454-1.368c0.02,0.022-0.137-0.139-0.265-0.32c-0.589-0.833-0.213-1.753,0.823-1.831
		c1.375-0.104,2.76-0.102,4.141-0.101c0.17,0,0.34,0.269,0.511,0.412c-0.193,0.131-0.383,0.37-0.579,0.375
		c-1.079,0.026-2.163-0.063-3.235,0.016c-0.409,0.03-0.792,0.405-1.187,0.623c0.316,0.334,0.577,0.827,0.962,0.963
		c0.549,0.19,1.195,0.083,1.789,0.175c0.234,0.035,0.439,0.259,0.658,0.397c-0.21,0.144-0.413,0.395-0.631,0.41
		c-0.705,0.05-1.418-0.027-2.122,0.031c-0.213,0.018-0.404,0.309-0.606,0.477C30.629,114.092,30.605,114.233,30.582,114.376z"/>
	<path fill-rule="evenodd" clip-rule="evenodd" d="M105.604,180.041c-0.009,0.883-0.021,1.741-0.026,2.602
		c-0.002,0.267-0.073,0.725,0.037,0.776c1.553,0.722-0.242,1.455,0.008,2.173c0.015,0.043-0.275,0.24-0.443,0.274
		c-0.066,0.014-0.278-0.232-0.264-0.341c0.144-1.108-0.635-0.96-1.294-0.972c-0.267-0.005-0.589,0.104-0.789-0.01
		c-0.219-0.125-0.513-0.572-0.451-0.665c0.87-1.303,1.79-2.571,2.716-3.836C105.144,179.983,105.347,180.038,105.604,180.041z
		 M104.76,181.458c-0.557,0.852-0.975,1.487-1.468,2.238C105.002,183.81,105.119,183.621,104.76,181.458z"/>
	<path fill-rule="evenodd" clip-rule="evenodd" d="M29.723,68.244c1.954,0.745,3.665,1.333,5.31,2.068
		c0.428,0.191,0.676,0.826,0.945,1.293c0.047,0.082-0.215,0.341-0.335,0.519c-0.147-0.106-0.397-0.19-0.425-0.322
		c-0.217-1.025-0.878-0.948-1.622-0.696c-1.197,0.407-2.393,0.818-3.593,1.229c-0.223-0.849-0.223-0.849,2.808-1.923
		C32.045,69.42,30.156,70.138,29.723,68.244z"/>
	<path fill-rule="evenodd" clip-rule="evenodd" d="M29.956,80.859c-0.116-0.771-0.199-1.395-0.307-2.014
		c-0.132-0.762,0.497-1.725,1.264-1.76c1.07-0.048,2.145,0.008,3.217,0.019c0.056,0.104,0.113,0.208,0.169,0.312
		c-0.267,0.194-0.516,0.522-0.802,0.556c-0.664,0.079-1.359-0.071-2.011,0.043c-0.389,0.069-0.718,0.464-1.074,0.712
		c0.292,0.385,0.518,0.998,0.891,1.107c0.752,0.219,1.586,0.145,2.38,0.237c0.177,0.02,0.332,0.226,0.497,0.346
		c-0.166,0.16-0.329,0.455-0.498,0.458C32.382,80.903,31.081,80.871,29.956,80.859z"/>
	<path fill-rule="evenodd" clip-rule="evenodd" d="M155.544,194.692c-0.437-0.36-0.709-0.76-1.03-0.805
		c-0.418-0.061-0.876,0.162-1.316,0.264c0.271,0.267,0.52,0.562,0.82,0.788c0.179,0.134,0.441,0.153,0.664,0.228
		c0.703,0.231,1.187,0.648,1.139,1.454c-0.053,0.875-0.69,1.182-1.416,1.332c-1.125,0.235-2.022-0.42-2.123-1.7
		c0.315,0.176,0.532,0.3,0.751,0.418c0.31,0.168,0.633,0.483,0.927,0.458c0.398-0.035,0.774-0.333,1.159-0.518
		c-0.288-0.254-0.561-0.531-0.873-0.752c-0.154-0.109-0.379-0.127-0.575-0.172c-0.822-0.186-1.379-0.626-1.205-1.536
		c0.164-0.858,0.859-1.197,1.644-1.212C155.011,192.922,155.532,193.529,155.544,194.692z"/>
	<path fill-rule="evenodd" clip-rule="evenodd" d="M32.573,88.194c1.436,0.148,2.175,1.564,1.444,2.768
		c-0.542,0.893-1.938,1.323-3.062,0.943c-0.902-0.306-1.538-1.356-1.292-2.351c0.112-0.453,0.451-0.882,0.782-1.233
		c0.126-0.134,0.519-0.016,0.791-0.013c-0.067,0.266-0.087,0.556-0.212,0.791c-0.195,0.365-0.734,0.856-0.645,1.003
		c0.227,0.375,0.685,0.713,1.117,0.835c0.415,0.118,0.941,0.026,1.364-0.124c0.293-0.105,0.668-0.453,0.689-0.717
		c0.022-0.274-0.325-0.589-0.537-0.866c-0.216-0.283-0.464-0.541-0.699-0.81C32.4,88.345,32.486,88.27,32.573,88.194z"/>
	<path fill-rule="evenodd" clip-rule="evenodd" d="M163.322,197.792c0.016-1.547,0.031-2.98,0.048-4.551
		c1.069-0.028,2.188-0.418,3.096,0.484c0.677,0.672,0.802,2.231,0.292,3.13C165.967,198.25,164.638,197.774,163.322,197.792z
		 M163.957,195.417c-0.004,0.401-0.047,0.808,0.004,1.202c0.024,0.181,0.196,0.43,0.36,0.491c0.837,0.314,1.665-0.141,1.977-1.039
		c0.292-0.843-0.099-1.81-0.85-2.104c-1.107-0.434-1.562-0.118-1.514,1.048C163.941,195.148,163.948,195.282,163.957,195.417z"/>
	<path fill-rule="evenodd" clip-rule="evenodd" d="M152.142,189.349c-0.525-0.372-0.907-0.84-1.366-0.934
		c-1.565-0.32-1.754-0.104-1.744,1.508c0.005,0.804-0.064,1.612-0.036,2.415c0.015,0.416,0.169,0.824,0.273,1.292
		c-0.471-0.005-0.993-0.011-1.522-0.016c0.764-1.885,0.459-3.775,0.06-5.808c1.175,0.013,2.405-0.043,3.622,0.061
		C152.346,187.945,152.123,188.713,152.142,189.349z"/>
	<path fill-rule="evenodd" clip-rule="evenodd" d="M31.43,72.823c-0.173,0.3-0.349,0.599-0.523,0.898
		c-0.174,0.299-0.532,0.64-0.475,0.884c0.071,0.306,0.445,0.615,0.762,0.768c0.342,0.165,0.815,0.291,1.149,0.182
		c0.458-0.149,0.927-0.472,1.198-0.856c0.089-0.126-0.444-0.666-0.656-1.037c-0.156-0.274-0.251-0.583-0.423-0.995
		c1.525,0.366,1.909,0.861,1.821,2.112c-0.07,0.994-0.724,1.565-1.801,1.649c-2.056,0.161-2.5-0.578-2.828-1.609
		c-0.265-0.838,0.419-1.785,1.462-2.173C31.223,72.704,31.327,72.763,31.43,72.823z"/>
	<path fill-rule="evenodd" clip-rule="evenodd" d="M50.48,53.181c-0.256,0.598-0.407,0.98-0.583,1.353
		c-0.594,1.265-1.235,2.511-1.778,3.797c-0.215,0.508-0.379,0.849-1.23,0.486c0.721-1.585,1.441-3.168,2.182-4.795
		c-0.657-0.007-1.399,0.018-2.134-0.042c-0.224-0.018-0.43-0.269-0.644-0.413c0.222-0.141,0.441-0.396,0.667-0.403
		C48.03,53.131,49.103,53.167,50.48,53.181z"/>
	<path fill-rule="evenodd" clip-rule="evenodd" d="M158.742,187.838c0.927,0.011,1.933,0.021,2.939,0.032
		c1.229,0.014,1.395,0.222,1.229,1.466c-0.413-0.276-0.815-0.686-1.295-0.822c-0.519-0.15-1.11-0.045-1.591-0.051
		c-0.02,1.813-0.037,3.486-0.056,5.228c-0.348-0.003-0.861-0.01-1.329-0.015C159.311,191.768,159.171,189.894,158.742,187.838z"/>
	<path fill-rule="evenodd" clip-rule="evenodd" d="M176.053,189.072c0.521,0.005,1.045-0.02,1.561,0.033
		c0.179,0.018,0.339,0.229,0.508,0.352c-0.166,0.135-0.326,0.376-0.497,0.383c-0.799,0.034-1.602,0.002-2.767-0.011
		c0.367-0.658,0.546-1.172,0.888-1.535c0.383-0.407,0.939-0.645,1.364-1.02c0.198-0.176,0.422-0.555,0.355-0.744
		c-0.09-0.261-0.42-0.544-0.693-0.603c-0.213-0.046-0.524,0.204-0.737,0.387c-0.189,0.161-0.305,0.41-0.453,0.62
		c-0.137-0.079-0.273-0.157-0.411-0.236c0.228-0.391,0.372-0.876,0.696-1.151c0.583-0.496,1.323-0.488,1.781,0.142
		c0.282,0.389,0.447,1.043,0.328,1.486c-0.109,0.405-0.658,0.708-1.043,1.016c-0.294,0.235-0.635,0.408-0.955,0.609
		C176.003,188.89,176.028,188.98,176.053,189.072z"/>
	<path fill-rule="evenodd" clip-rule="evenodd" d="M167.617,195.426c1.353-3.409,1.487-4.028,0.069-7.716
		c0.722-0.057,1.503,1.186,1.813,2.879C169.856,192.53,168.941,195.017,167.617,195.426z"/>
	<path fill-rule="evenodd" clip-rule="evenodd" d="M182.374,182.283c-0.101-0.042-0.193-0.079-0.283-0.119
		c-0.336-0.144-0.67-0.288-1.005-0.433c0.269-0.202,0.534-0.406,0.804-0.606c0.08-0.059,0.173-0.101,0.25-0.164
		c0.29-0.236,0.575-0.478,0.861-0.718c0.081,0.433,0.223,0.865,0.231,1.299c0.023,1.276,0.023,2.556-0.036,3.829
		c-0.015,0.311-0.294,0.606-0.451,0.91c-0.134-0.335-0.368-0.664-0.384-1.005C182.316,184.312,182.362,183.342,182.374,182.283z"/>
	<path fill-rule="evenodd" clip-rule="evenodd" d="M27.842,104.32c2.7,1.638,5.238,1.73,7.813,0.201
		c-0.084,1.055-1.546,1.85-3.445,2.056C30.603,106.751,28.287,105.712,27.842,104.32z"/>
	<path fill-rule="evenodd" clip-rule="evenodd" d="M28.174,67.851c0.63-1.197,1.772-1.601,2.915-1.738
		c1.826-0.22,3.565,0.093,4.805,1.823C33.323,66.662,30.778,66.641,28.174,67.851z"/>
	<path fill-rule="evenodd" clip-rule="evenodd" d="M146.943,187.381c-1.37,2.669-1.433,5.313-0.075,8.001
		c-1.63-1.171-1.896-2.816-1.738-4.581C145.25,189.45,145.645,188.198,146.943,187.381z"/>
	<path fill-rule="evenodd" clip-rule="evenodd" d="M235.914,182.491c-0.524-0.121-0.936-0.216-1.618-0.372
		c0.816-0.659,1.448-1.168,2.146-1.731c0.093,0.147,0.246,0.279,0.247,0.412c0.02,1.747,0.028,3.494,0.001,5.24
		c-0.002,0.146-0.279,0.287-0.429,0.432c-0.127-0.203-0.36-0.404-0.364-0.61C235.871,184.755,235.901,183.647,235.914,182.491z"/>
	<path fill-rule="evenodd" clip-rule="evenodd" d="M207.777,181.818c0.549-0.472,0.987-0.903,1.488-1.242
		c0.125-0.085,0.65,0.122,0.651,0.199c0.019,1.713,0.001,3.427-0.05,5.14c-0.004,0.139-0.299,0.27-0.458,0.404
		c-0.104-0.184-0.298-0.366-0.298-0.55c0-0.838,0.038-1.678,0.092-2.515c0.046-0.704-0.096-1.192-0.958-1.15
		C208.085,182.111,207.915,181.906,207.777,181.818z"/>
	<path fill-rule="evenodd" clip-rule="evenodd" d="M29.926,96.854c0.776,0.134,1.368,0.27,1.966,0.328
		c0.533,0.052,1.081-0.033,1.608,0.043c0.222,0.032,0.407,0.323,0.609,0.497c-0.201,0.129-0.396,0.355-0.605,0.37
		c-0.637,0.044-1.281-0.035-1.917,0.016c-0.484,0.038-0.958,0.201-1.573,0.34c-0.269-0.097-0.738-0.205-1.14-0.43
		c-0.301-0.17-0.562-0.461-0.75-0.756c-0.087-0.135,0.041-0.409,0.071-0.621c0.178,0.041,0.433,0.021,0.522,0.133
		C29.283,97.479,29.713,97.216,29.926,96.854z"/>
	<path fill-rule="evenodd" clip-rule="evenodd" d="M47.682,8.065c0.014-1.296,0.028-2.591,0.042-3.893
		c-0.488-0.057-0.88-0.102-1.504-0.174c0.248-0.298,0.366-0.489,0.53-0.626c0.32-0.27,0.659-0.518,1.003-0.755
		c0.174-0.12,0.377-0.197,0.567-0.293c0.071,0.206,0.201,0.411,0.204,0.618c0.023,1.508,0.044,3.017,0.007,4.525
		c-0.007,0.278-0.283,0.551-0.434,0.825C47.959,8.216,47.821,8.141,47.682,8.065z"/>
	<path fill-rule="evenodd" clip-rule="evenodd" d="M261.719,182.125c0.655-0.543,1.18-1.002,1.743-1.406
		c0.052-0.036,0.517,0.28,0.519,0.437c0.028,1.615,0.014,3.231-0.029,4.847c-0.006,0.196-0.252,0.386-0.387,0.577
		c-0.11-0.213-0.303-0.422-0.315-0.642c-0.037-0.637,0.01-1.278,0-1.918C263.219,182.154,263.544,182.598,261.719,182.125z"/>
	<path fill-rule="evenodd" clip-rule="evenodd" d="M30.02,96.048c-0.285-0.104-0.724-0.201-1.094-0.417
		c-0.312-0.182-0.575-0.478-0.794-0.771c-0.076-0.103,0.042-0.35,0.072-0.531c0.182,0.036,0.44,0.007,0.532,0.118
		c0.534,0.644,0.941,0.493,1.139,0.023c0.765,0.15,1.379,0.311,2.004,0.38c0.53,0.059,1.079-0.033,1.606,0.034
		c0.225,0.029,0.419,0.294,0.628,0.452c-0.2,0.12-0.394,0.33-0.601,0.343c-0.635,0.039-1.278-0.043-1.911,0.013
		C31.094,95.735,30.596,95.913,30.02,96.048z"/>
	<path fill-rule="evenodd" clip-rule="evenodd" d="M47.897,162.492c-0.112-0.287-0.307-0.571-0.319-0.863
		c-0.025-0.602,0.039-1.208,0.08-1.811c0.062-0.928,0.067-1.802-1.466-1.426c0.004-0.112,0.008-0.224,0.012-0.336
		c0.615-0.529,1.23-1.06,2.05-1.766c-0.023,2.205-0.044,4.146-0.065,6.089C48.092,162.418,47.995,162.455,47.897,162.492z"/>
	<path fill-rule="evenodd" clip-rule="evenodd" d="M32.013,92.611c0.535,0.005,1.073-0.019,1.603,0.034
		c0.172,0.017,0.438,0.216,0.456,0.359c0.019,0.145-0.211,0.458-0.341,0.462c-1.163,0.04-2.327,0.048-3.489,0.01
		c-0.182-0.006-0.354-0.288-0.532-0.442c0.2-0.143,0.39-0.388,0.602-0.407c0.562-0.052,1.133-0.008,1.702-0.002
		C32.013,92.619,32.013,92.615,32.013,92.611z"/>
	<path fill-rule="evenodd" clip-rule="evenodd" d="M31.817,87.401c-0.54-0.005-1.082,0.019-1.617-0.034
		c-0.176-0.017-0.333-0.23-0.5-0.354c0.152-0.15,0.301-0.428,0.456-0.431c1.18-0.029,2.361-0.02,3.54,0.023
		c0.142,0.004,0.275,0.278,0.412,0.427c-0.157,0.128-0.307,0.354-0.471,0.365c-0.604,0.039-1.212,0.005-1.82-0.001
		C31.817,87.397,31.817,87.399,31.817,87.401z"/>
	<path fill-rule="evenodd" clip-rule="evenodd" d="M171.871,185.272c0.448,2.127,0.302,4.177-0.373,4.54
		c0.011-1.007,0.021-1.959,0.031-2.914c-0.395-0.136-0.696-0.239-1.206-0.415C170.893,186.039,171.333,185.693,171.871,185.272z"/>
	<path fill-rule="evenodd" clip-rule="evenodd" d="M173.145,189.816c0.523-1.545,1.049-3.089,1.572-4.634
		c0.142,0.051,0.283,0.102,0.425,0.15c-0.519,1.551-1.037,3.102-1.555,4.652C173.439,189.929,173.292,189.872,173.145,189.816z"/>
	<path fill-rule="evenodd" clip-rule="evenodd" d="M44.661,76.485c-0.227-0.446-0.439-0.675-0.417-0.878
		c0.017-0.164,0.356-0.442,0.486-0.41c0.213,0.054,0.497,0.305,0.52,0.5C45.269,75.871,44.978,76.083,44.661,76.485z"/>
	<path fill-rule="evenodd" clip-rule="evenodd" d="M45.471,93.27c-0.374,0.305-0.576,0.468-0.776,0.632
		c-0.168-0.207-0.423-0.395-0.471-0.626c-0.028-0.14,0.269-0.491,0.413-0.488C44.857,92.793,45.072,93.023,45.471,93.27z"/>
	<path fill-rule="evenodd" clip-rule="evenodd" d="M44.992,144.496c-0.199,0.293-0.398,0.585-0.598,0.878
		c-0.176-0.199-0.539-0.498-0.496-0.578c0.146-0.268,0.435-0.457,0.67-0.676C44.709,144.245,44.851,144.37,44.992,144.496z"/>
	<path fill-rule="evenodd" clip-rule="evenodd" d="M44.942,41.093c0.255,0.48,0.472,0.713,0.47,0.945
		c-0.002,0.151-0.322,0.298-0.499,0.447c-0.154-0.198-0.394-0.381-0.433-0.6C44.452,41.724,44.683,41.516,44.942,41.093z"/>
	<path fill-rule="evenodd" clip-rule="evenodd" d="M45.135,110.173c-0.172,0.268-0.345,0.534-0.517,0.801
		c-0.198-0.158-0.396-0.316-0.595-0.475c0.25-0.218,0.499-0.435,0.749-0.651C44.893,109.956,45.013,110.064,45.135,110.173z"/>
	<path fill-rule="evenodd" clip-rule="evenodd" d="M44.236,127.07c0.269,0.168,0.538,0.335,0.807,0.503
		c-0.187,0.204-0.374,0.407-0.561,0.61c-0.199-0.242-0.397-0.484-0.596-0.728C44.001,127.328,44.119,127.199,44.236,127.07z"/>
	<path fill-rule="evenodd" clip-rule="evenodd" d="M44.02,58.568c0.392-0.306,0.579-0.558,0.792-0.583
		c0.146-0.017,0.488,0.319,0.461,0.434c-0.049,0.216-0.269,0.467-0.478,0.549C44.665,59.019,44.424,58.788,44.02,58.568z"/>
	<path fill-rule="evenodd" clip-rule="evenodd" fill="#FFFFFF" d="M158.086,185.562c-0.294-0.404-0.88-0.875-0.808-1.198
		c0.094-0.417,0.683-0.934,1.115-0.991c0.292-0.041,0.893,0.592,0.979,1.003C159.508,185.014,159.021,185.396,158.086,185.562z"/>
	<path fill-rule="evenodd" clip-rule="evenodd" fill="#FFFFFF" d="M159.643,181.684c-0.614,0.391-0.938,0.752-1.267,0.756
		c-0.261,0.003-0.772-0.479-0.736-0.661c0.062-0.321,0.431-0.771,0.719-0.809C158.659,180.929,159.017,181.311,159.643,181.684z"/>
	<path fill-rule="evenodd" clip-rule="evenodd" fill="#FFFFFF" d="M131.155,182.947c0.765,0.074,1.378,0.48,1.222,1.173
		c-0.11,0.487-0.785,0.848-1.207,1.263c-0.375-0.423-0.972-0.8-1.07-1.279C129.973,183.488,130.472,183.014,131.155,182.947z"/>
	<path fill-rule="evenodd" clip-rule="evenodd" fill="#FFFFFF" d="M48.175,41.989c-0.331-0.415-0.874-0.799-0.938-1.251
		c-0.083-0.584,0.387-0.999,1.091-0.991c0.714,0.008,1.114,0.408,1.034,1.036c-0.054,0.417-0.472,0.788-0.727,1.179
		C48.481,41.971,48.329,41.98,48.175,41.989z"/>
	<path fill-rule="evenodd" clip-rule="evenodd" fill="#FFFFFF" d="M47.152,38.101c0.518-0.39,0.866-0.846,1.129-0.801
		c0.329,0.056,0.587,0.526,0.876,0.816c-0.283,0.263-0.554,0.716-0.851,0.734C48.001,38.868,47.671,38.46,47.152,38.101z"/>
	<path fill-rule="evenodd" clip-rule="evenodd" fill="#FFFFFF" d="M49.614,21.282c-0.204,0.897-0.412,1.425-1.208,1.438
		c-0.772,0.011-1.057-0.535-1.148-1.161c-0.086-0.589,0.673-1.398,1.187-1.217C48.889,20.498,49.228,20.957,49.614,21.282z"/>
	<path fill-rule="evenodd" clip-rule="evenodd" fill="#FFFFFF" d="M269.312,184.509c-0.242,0.952-0.606,1.326-1.354,1.312
		c-0.781-0.014-1.196-0.532-1.042-1.161c0.116-0.475,0.702-1.158,1.078-1.157C268.434,183.502,268.873,184.144,269.312,184.509z"/>
	<path fill-rule="evenodd" clip-rule="evenodd" fill="#FFFFFF" d="M48.181,73.12c0.75,0.085,1.325,0.477,1.179,1.122
		c-0.111,0.495-0.723,0.877-1.112,1.31c-0.401-0.436-1.042-0.824-1.14-1.32C46.995,73.648,47.546,73.186,48.181,73.12z"/>
	<path fill-rule="evenodd" clip-rule="evenodd" fill="#FFFFFF" d="M40.047,108.014c0.105-0.499,0.148-1.082,0.367-1.59
		c0.117-0.271,0.533-0.562,0.818-0.567c0.275-0.003,0.763,0.322,0.796,0.555c0.14,0.963,0.235,1.955,0.145,2.917
		c-0.032,0.342-0.64,0.869-0.986,0.872c-0.314,0.001-0.711-0.555-0.924-0.945C40.085,108.927,40.119,108.482,40.047,108.014z"/>
	<path fill-rule="evenodd" clip-rule="evenodd" fill="#FFFFFF" d="M42.186,159.498c-0.127,0.555-0.181,1.138-0.41,1.643
		c-0.12,0.265-0.547,0.536-0.837,0.537c-0.283,0.001-0.692-0.272-0.831-0.538c-0.524-1.008-0.518-2.088-0.034-3.102
		c0.157-0.332,0.595-0.692,0.933-0.722c0.267-0.022,0.688,0.388,0.839,0.702C42.056,158.453,42.077,158.979,42.186,159.498z"/>
	<path fill-rule="evenodd" clip-rule="evenodd" fill="#FFFFFF" d="M42.277,142.152c-0.019,1.524-0.534,2.405-1.245,2.393
		c-0.67-0.012-1.13-0.863-1.097-2.097c0.013-0.468-0.023-0.994,0.178-1.383c0.2-0.386,0.687-0.892,1.017-0.871
		c0.36,0.023,0.783,0.54,0.995,0.939C42.315,141.492,42.257,141.982,42.277,142.152z"/>
	<path fill-rule="evenodd" clip-rule="evenodd" fill="#FFFFFF" d="M42.441,125.288c-0.113,1.228-0.66,2.201-1.312,2.2
		c-0.608-0.001-1.119-0.895-1.128-2.129c-0.004-0.56,0.054-1.154,0.255-1.666c0.116-0.293,0.572-0.612,0.882-0.619
		c0.312-0.007,0.778,0.29,0.915,0.577C42.289,124.146,42.323,124.738,42.441,125.288z"/>
	<path fill-rule="evenodd" clip-rule="evenodd" fill="#FFFFFF" d="M188.372,183.355c-0.003,0.135,0.008,0.271-0.007,0.402
		c-0.092,0.781-0.195,1.728-1.131,1.771c-0.97,0.045-1.15-0.968-1.225-1.69c-0.068-0.669,0.122-1.397,0.348-2.048
		c0.104-0.299,0.594-0.686,0.86-0.65c0.339,0.043,0.742,0.416,0.91,0.75c0.215,0.429,0.223,0.961,0.319,1.449
		C188.423,183.344,188.396,183.35,188.372,183.355z"/>
	<path fill-rule="evenodd" clip-rule="evenodd" fill="#FFFFFF" d="M52.432,182.737c-0.105,0.486-0.1,0.931-0.296,1.254
		c-0.23,0.38-0.637,0.905-0.965,0.904c-0.347-0.002-0.949-0.521-0.987-0.864c-0.101-0.896-0.03-1.837,0.137-2.729
		c0.054-0.29,0.608-0.657,0.947-0.672c0.271-0.011,0.665,0.409,0.819,0.728C52.297,181.794,52.334,182.315,52.432,182.737z"/>
	<path fill-rule="evenodd" clip-rule="evenodd" fill="#FFFFFF" d="M42.671,73.197c-0.169,0.617-0.245,1.19-0.482,1.686
		c-0.405,0.846-1.174,0.867-1.58,0.04c-0.542-1.107-0.541-2.277-0.011-3.39c0.34-0.714,1.223-0.73,1.584-0.018
		C42.443,72.031,42.517,72.641,42.671,73.197z"/>
	<path fill-rule="evenodd" clip-rule="evenodd" fill="#FFFFFF" d="M40.031,90.834c0.116-1.251,0.638-2.214,1.296-2.225
		c0.671-0.01,1.248,0.948,1.198,2.17c-0.025,0.589-0.162,1.203-0.394,1.743c-0.111,0.259-0.566,0.519-0.858,0.512
		c-0.281-0.007-0.679-0.301-0.803-0.571C40.239,91.959,40.168,91.381,40.031,90.834z"/>
	<path fill-rule="evenodd" clip-rule="evenodd" fill="#FFFFFF" d="M46.036,176.863c0.073-0.453,0.033-0.877,0.212-1.162
		c0.274-0.437,0.699-0.776,1.06-1.157c0.33,0.378,0.872,0.721,0.943,1.142c0.134,0.803,0.091,1.668-0.068,2.47
		c-0.066,0.333-0.614,0.786-0.949,0.79c-0.321,0.004-0.758-0.442-0.945-0.796C46.082,177.759,46.103,177.25,46.036,176.863z"/>
	<path fill-rule="evenodd" clip-rule="evenodd" fill="#FFFFFF" d="M42.71,56.034c-0.025,1.309-0.573,2.216-1.197,2.242
		c-0.727,0.029-1.222-0.75-1.19-1.998c0.014-0.562,0.07-1.154,0.269-1.669c0.125-0.321,0.544-0.711,0.849-0.727
		c0.291-0.015,0.735,0.356,0.877,0.665C42.564,55.083,42.629,55.702,42.71,56.034z"/>
	<path fill-rule="evenodd" clip-rule="evenodd" fill="#FFFFFF" d="M42.792,22.663c-0.099,0.481-0.116,1.009-0.328,1.441
		c-0.148,0.301-0.547,0.619-0.864,0.653c-0.277,0.03-0.756-0.257-0.868-0.521c-0.458-1.08-0.544-2.219,0.031-3.287
		c0.163-0.302,0.608-0.662,0.887-0.633c0.31,0.032,0.696,0.426,0.835,0.753C42.687,21.547,42.696,22.105,42.792,22.663z"/>
	<path fill-rule="evenodd" clip-rule="evenodd" fill="#FFFFFF" d="M42.837,39.515c-0.169,0.583-0.26,1.153-0.508,1.644
		c-0.133,0.261-0.527,0.508-0.823,0.534c-0.251,0.021-0.649-0.22-0.777-0.456c-0.614-1.133-0.591-2.311,0.035-3.432
		c0.137-0.245,0.53-0.516,0.772-0.488c0.292,0.033,0.66,0.316,0.796,0.59C42.578,38.397,42.674,38.963,42.837,39.515z"/>
	<path fill-rule="evenodd" clip-rule="evenodd" fill="#FFFFFF" d="M31.465,84.654c-0.76,0.028-1.144-0.438-1.081-1.023
		c0.043-0.392,0.522-0.736,0.806-1.102c0.099,0.062,0.197,0.123,0.295,0.185C31.479,83.351,31.472,83.989,31.465,84.654z"/>
	<path fill-rule="evenodd" clip-rule="evenodd" fill="#FFFFFF" d="M241.007,182.414c-0.007,0.524-0.012,1.051-0.018,1.656
		c-0.421-0.004-0.801-0.008-1.422-0.015c0.466-0.652,0.848-1.188,1.229-1.724C240.867,182.359,240.937,182.386,241.007,182.414z"/>
	<path fill-rule="evenodd" clip-rule="evenodd" fill="#FFFFFF" d="M46.829,108.698c0.552-0.761,0.979-1.349,1.567-2.158
		c-0.01,0.892-0.016,1.495-0.023,2.175C47.93,108.711,47.518,108.706,46.829,108.698z"/>
	<path fill-rule="evenodd" clip-rule="evenodd" fill="#FFFFFF" d="M104.76,181.458c0.359,2.163,0.242,2.352-1.468,2.238
		C103.786,182.945,104.203,182.31,104.76,181.458z"/>
	<path fill-rule="evenodd" clip-rule="evenodd" fill="#FFFFFF" d="M163.956,195.416c-0.008-0.134-0.015-0.268-0.021-0.401
		c-0.049-1.166,0.406-1.481,1.514-1.048c0.751,0.295,1.142,1.262,0.85,2.104c-0.312,0.898-1.14,1.354-1.977,1.039
		c-0.164-0.062-0.336-0.311-0.36-0.491C163.91,196.225,163.953,195.818,163.956,195.416z"/>
</g>
</svg>
