<?xml version="1.0" encoding="utf-8"?>
<!-- Generator: Adobe Illustrator 16.0.0, SVG Export Plug-In . SVG Version: 6.00 Build 0)  -->
<!DOCTYPE svg PUBLIC "-//W3C//DTD SVG 1.1//EN" "http://www.w3.org/Graphics/SVG/1.1/DTD/svg11.dtd">
<svg version="1.1" xmlns="http://www.w3.org/2000/svg" xmlns:xlink="http://www.w3.org/1999/xlink" x="0px" y="0px" width="250px"
	 height="125px" viewBox="0 0 250 125" enable-background="new 0 0 250 125" xml:space="preserve">
<g id="Layer_1">
	<circle fill="none" stroke="#000000" stroke-miterlimit="10" cx="17.796" cy="28.627" r="3.814"/>
	<circle fill="none" stroke="#000000" stroke-miterlimit="10" cx="17.796" cy="102.877" r="3.814"/>
	<polyline fill="none" stroke="#000000" stroke-miterlimit="10" points="82.667,72.334 82.667,102.877 21.61,102.877 	"/>
	<polyline fill="none" stroke="#000000" stroke-miterlimit="10" points="21.61,28.627 82.667,28.627 82.667,59.834 	"/>
	<line fill="none" stroke="#000000" stroke-miterlimit="10" x1="82.667" y1="28.627" x2="103" y2="28.627"/>
	<polyline fill="none" stroke="#000000" stroke-miterlimit="10" points="82.667,102.877 158.25,102.877 158.25,85.667 	"/>
	<line fill="none" stroke="#000000" stroke-miterlimit="10" x1="73.333" y1="59.834" x2="92" y2="59.834"/>
	<line fill="none" stroke="#000000" stroke-miterlimit="10" x1="73.333" y1="72.334" x2="92" y2="72.334"/>
	<g>
		<polyline fill="none" stroke="#000000" stroke-miterlimit="10" points="102.75,28.627 105,23.25 107.167,32.75 109.25,28 		"/>
		<polyline fill="none" stroke="#000000" stroke-miterlimit="10" points="108.958,28.627 111.208,23.25 113.375,32.75 115.458,28 		
			"/>
		<polyline fill="none" stroke="#000000" stroke-miterlimit="10" points="115.24,28.627 117.49,23.25 119.656,32.75 121.74,28 		"/>
		<polyline fill="none" stroke="#000000" stroke-miterlimit="10" points="121.491,28.627 123.741,23.25 125.907,32.75 127.991,28 		
			"/>
		<polyline fill="none" stroke="#000000" stroke-miterlimit="10" points="127.742,28.627 129.992,23.25 132.158,32.75 134.242,28 		
			"/>
	</g>
	<g>
		<polyline fill="none" stroke="#000000" stroke-miterlimit="10" points="227.373,49.68 232.75,51.93 223.25,54.097 228,56.18 		"/>
		<polyline fill="none" stroke="#000000" stroke-miterlimit="10" points="227.373,55.889 232.75,58.139 223.25,60.305 228,62.389 		
			"/>
		<polyline fill="none" stroke="#000000" stroke-miterlimit="10" points="227.373,62.17 232.75,64.42 223.25,66.586 228,68.67 		"/>
		<polyline fill="none" stroke="#000000" stroke-miterlimit="10" points="227.373,68.42 232.75,70.672 223.25,72.838 228,74.922 		
			"/>
		<polyline fill="none" stroke="#000000" stroke-miterlimit="10" points="227.373,74.672 232.75,76.922 223.25,79.088 228,81.172 		
			"/>
	</g>
	<polyline fill="none" stroke="#000000" stroke-miterlimit="10" points="135,28 158.25,28 158.133,41.167 	"/>
	<path fill="none" stroke="#000000" stroke-miterlimit="10" d="M158.133,85.667v-6.279v-1.984c3.305-0.44,5.953-2.206,5.953-4.3
		c0-2.092-2.648-3.857-5.953-4.299c-3.303-0.441-5.952,0.443-5.952,1.654s2.649,2.094,5.952,1.652
		c3.305-0.44,5.953-2.205,5.953-4.299c0-2.092-2.648-3.857-5.953-4.299c-3.303-0.441-5.952,0.442-5.952,1.653
		s2.649,2.095,5.952,1.653c3.305-0.44,5.953-2.206,5.953-4.299s-2.648-3.858-5.953-4.3c-3.303-0.44-5.952,0.442-5.952,1.653
		s2.649,2.096,5.952,1.654c3.305-0.441,5.953-2.207,5.953-4.299c0-2.094-2.648-3.859-5.953-4.3c-3.303-0.44-5.952,0.442-5.952,1.653
		s2.649,2.095,5.952,1.654c3.305-0.441,5.953-2.207,5.953-4.3s-2.648-3.858-5.953-4.3v-6.472"/>
	<path fill="none" stroke="#000000" stroke-miterlimit="10" d="M181.944,41.167v8.457c-3.304,0.44-5.953,2.206-5.953,4.299
		s2.649,3.858,5.953,4.3s5.953-0.443,5.953-1.654s-2.649-2.094-5.953-1.652c-3.304,0.439-5.953,2.205-5.953,4.299
		c0,2.092,2.649,3.857,5.953,4.299s5.953-0.442,5.953-1.653s-2.649-2.095-5.953-1.653c-3.304,0.44-5.953,2.206-5.953,4.299
		s2.649,3.858,5.953,4.299c3.304,0.441,5.953-0.441,5.953-1.652s-2.649-2.096-5.953-1.654s-5.953,2.207-5.953,4.299
		c0,2.094,2.649,3.859,5.953,4.3s5.953-0.442,5.953-1.653s-2.649-2.095-5.953-1.654c-3.304,0.441-5.953,2.207-5.953,4.299
		c0,2.094,2.649,3.859,5.953,4.3v6.279"/>
	<polyline fill="none" stroke="#000000" stroke-miterlimit="10" points="228,81.178 228,102.877 181.944,102.877 181.944,79.388 	
		"/>
	<polyline fill="none" stroke="#000000" stroke-miterlimit="10" points="181.944,49.624 181.944,28 228,28 228,49.833 	"/>
	<path fill="none" stroke="#000000" stroke-miterlimit="10" d="M130.38,102.877"/>
	<line fill="none" stroke="#000000" stroke-miterlimit="10" x1="122.443" y1="102.877" x2="122.443" y2="112.799"/>
	<line fill="none" stroke="#000000" stroke-miterlimit="10" x1="112.521" y1="112.799" x2="132.364" y2="112.799"/>
	<path fill="none" stroke="#000000" stroke-miterlimit="10" d="M118.475,118.75h7.937 M116.49,116.766h11.905 M114.506,114.783
		h15.874"/>
	<path fill="none" stroke="#000000" stroke-miterlimit="10" d="M207.879,102.877"/>
	<line fill="none" stroke="#000000" stroke-miterlimit="10" x1="207.879" y1="102.877" x2="207.879" y2="112.799"/>
	<line fill="none" stroke="#000000" stroke-miterlimit="10" x1="197.957" y1="112.799" x2="217.801" y2="112.799"/>
	<path fill="none" stroke="#000000" stroke-miterlimit="10" d="M203.91,118.75h7.938 M201.926,116.766h11.906 M199.941,114.783
		h15.875"/>
	<circle stroke="#000000" stroke-miterlimit="10" cx="181.944" cy="28" r="1.89"/>
	<circle stroke="#000000" stroke-miterlimit="10" cx="158.25" cy="28" r="2"/>
	<g>
		<path fill="none" d="M153.726,41.752"/>
	</g>
	<g>
		<path fill="none" d="M140.976,32.112"/>
	</g>
	<g>
		<path fill="none" d="M42.5,25"/>
	</g>
	<g>
		<path fill="none" d="M25.178,25"/>
	</g>
	<g>
		<path fill="none" d="M17.796,96.75"/>
	</g>
	<g>
		<path fill="none" d="M17.796,34.583"/>
	</g>
</g>
<g id="Labels">
	<text transform="matrix(1 0 0 1 63.3335 69.6699)" font-family="'MyriadPro-Regular'" font-size="12">C</text>
	<text transform="matrix(1 0 0 1 142.3008 69.6699)" font-family="'MyriadPro-Regular'" font-size="12">L</text>
	<text transform="matrix(0.583 0 0 0.583 147.9648 73)" font-family="'MyriadPro-Regular'" font-size="10">1</text>
	<text transform="matrix(1 0 0 1 190.3008 69.6699)" font-family="'MyriadPro-Regular'" font-size="12">L</text>
	<text transform="matrix(0.583 0 0 0.583 195.9648 73)" font-family="'MyriadPro-Regular'" font-size="10">2</text>
	<text transform="matrix(1 0 0 1 186.4258 40.1704)" font-family="'MyriadPro-Regular'" font-size="12">I</text>
	<text transform="matrix(0.583 0 0 0.583 189.2939 43.5005)" font-family="'MyriadPro-Regular'" font-size="10">2</text>
	<g>
		<g>
			<path d="M195.132,45.5c0,0-0.091-0.944-0.015-2.367c0.051-0.709,0.124-1.54,0.304-2.416c0.076-0.441,0.188-0.889,0.32-1.341
				c0.106-0.46,0.308-0.899,0.463-1.354c0.196-0.438,0.398-0.878,0.631-1.293c0.271-0.392,0.473-0.827,0.79-1.161
				c0.3-0.345,0.561-0.711,0.897-0.97c0.325-0.268,0.599-0.573,0.929-0.746c0.314-0.197,0.604-0.377,0.859-0.537
				c0.277-0.117,0.52-0.218,0.719-0.302c0.401-0.165,0.631-0.26,0.631-0.26l0.235,0.799c0,0-0.212,0.075-0.583,0.206
				c-0.187,0.065-0.412,0.146-0.672,0.237c-0.24,0.133-0.511,0.283-0.807,0.446c-0.314,0.14-0.574,0.408-0.889,0.637
				c-0.326,0.22-0.583,0.548-0.883,0.854c-0.315,0.294-0.525,0.696-0.805,1.053c-0.243,0.382-0.46,0.794-0.673,1.205
				c-0.172,0.431-0.393,0.846-0.521,1.289c-0.153,0.434-0.288,0.867-0.387,1.296c-0.224,0.852-0.342,1.668-0.431,2.37
				C195.093,44.551,195.132,45.5,195.132,45.5z"/>
			<g>
				<path d="M204.772,32.75c-1.323,0.736-2.929,1.892-3.864,2.998l0.49-2.481l-1.211-2.219
					C201.411,31.823,203.289,32.445,204.772,32.75z"/>
			</g>
		</g>
	</g>
	<text transform="matrix(1 0 0 1 142.9756 44.2305)" font-family="'MyriadPro-Regular'" font-size="12">I</text>
	<text transform="matrix(0.583 0 0 0.583 145.8438 47.5605)" font-family="'MyriadPro-Regular'" font-size="10">1</text>
	<text transform="matrix(1 0 0 1 30.7256 18.9204)" font-family="'MyriadPro-Regular'" font-size="12">I</text>
	<text transform="matrix(0.583 0 0 0.583 33.5938 22.2505)" font-family="'MyriadPro-Regular'" font-size="10">in</text>
	<text transform="matrix(1 0 0 1 116.4585 16.7305)" font-family="'MyriadPro-Regular'" font-size="12">R</text>
	<text transform="matrix(0.583 0 0 0.583 122.9146 20.0605)" font-family="'MyriadPro-Regular'" font-size="10">Coil</text>
	<text transform="matrix(1 0 0 1 236.209 68.4199)" font-family="'MyriadPro-Regular'" font-size="12">R</text>
	<text transform="matrix(0.583 0 0 0.583 242.6641 71.75)" font-family="'MyriadPro-Regular'" font-size="10">L</text>
	<text transform="matrix(1 0 0 1 178.459 21.6704)" font-family="'MyriadPro-Regular'" font-size="12">V</text>
	<text transform="matrix(0.583 0 0 0.583 185.1543 25.0005)" font-family="'MyriadPro-Regular'" font-size="10">2</text>
	<text transform="matrix(1 0 0 1 153.1797 21.6704)" font-family="'MyriadPro-Regular'" font-size="12">V</text>
	<text transform="matrix(0.583 0 0 0.583 159.876 25.0005)" font-family="'MyriadPro-Regular'" font-size="10">1</text>
	<text transform="matrix(1 0 0 1 3.6802 18.9209)" font-family="'MyriadPro-Regular'" font-size="12">V</text>
	<text transform="matrix(0.583 0 0 0.583 10.376 22.251)" font-family="'MyriadPro-Regular'" font-size="10">in</text>
	<g>
		<g>
			<path d="M140.976,32.112c0,0,0.944-0.091,2.366-0.014c0.709,0.05,1.54,0.124,2.416,0.303c0.44,0.076,0.889,0.189,1.342,0.321
				c0.46,0.106,0.898,0.308,1.354,0.462c0.438,0.197,0.879,0.399,1.294,0.632c0.392,0.271,0.826,0.473,1.16,0.79
				c0.346,0.3,0.711,0.561,0.971,0.897c0.269,0.325,0.573,0.598,0.746,0.928c0.197,0.315,0.377,0.604,0.537,0.86
				c0.116,0.277,0.219,0.52,0.302,0.719c0.166,0.402,0.261,0.631,0.261,0.631l-0.8,0.234c0,0-0.075-0.212-0.206-0.583
				c-0.065-0.186-0.146-0.412-0.236-0.671c-0.134-0.241-0.283-0.512-0.446-0.807c-0.14-0.314-0.408-0.574-0.638-0.889
				c-0.22-0.327-0.548-0.583-0.854-0.883c-0.294-0.316-0.696-0.525-1.053-0.805c-0.382-0.243-0.794-0.46-1.205-0.673
				c-0.431-0.172-0.846-0.393-1.289-0.521c-0.434-0.153-0.866-0.288-1.296-0.386c-0.851-0.224-1.668-0.342-2.369-0.431
				C141.925,32.073,140.976,32.112,140.976,32.112z"/>
			<g>
				<path d="M153.726,41.752c-0.736-1.324-1.892-2.929-2.998-3.864l2.48,0.49l2.22-1.21
					C154.652,38.392,154.03,40.269,153.726,41.752z"/>
			</g>
		</g>
	</g>
	<g>
		<g>
			<polygon points="25.178,25 39.482,24.587 39.482,25.413 			"/>
			<g>
				<path d="M42.5,25c-1.42,0.527-3.182,1.426-4.273,2.378L39.086,25l-0.86-2.377C39.318,23.575,41.08,24.474,42.5,25z"/>
			</g>
		</g>
	</g>
	<text transform="matrix(1 0 0 1 165.5 125)" font-family="'MyriadPro-Regular'" font-size="12">M</text>
	<g>
		<g>
			<path fill="none" stroke="#000000" stroke-miterlimit="10" d="M184.473,108.057c-1.23,2.843-4.64,6.727-14.081,6.727
				c-9.443,0-12.852-3.886-14.082-6.729"/>
			<g>
				<path d="M185.167,105.122c-0.862,1.245-2.17,2.729-3.363,3.551l2.518-0.244l2.09,1.423
					C185.759,108.558,185.325,106.628,185.167,105.122z"/>
			</g>
			<g>
				<path d="M155.616,105.122c0.862,1.245,2.17,2.729,3.363,3.551l-2.518-0.244l-2.09,1.423
					C155.024,108.558,155.458,106.628,155.616,105.122z"/>
			</g>
		</g>
	</g>
</g>
</svg>
