<?xml version="1.0" encoding="utf-8"?>
<!-- Generator: Adobe Illustrator 16.0.0, SVG Export Plug-In . SVG Version: 6.00 Build 0)  -->
<!DOCTYPE svg PUBLIC "-//W3C//DTD SVG 1.1//EN" "http://www.w3.org/Graphics/SVG/1.1/DTD/svg11.dtd">
<svg version="1.1" id="Layer_1" xmlns="http://www.w3.org/2000/svg" xmlns:xlink="http://www.w3.org/1999/xlink" x="0px" y="0px"
	 width="504px" height="504px" viewBox="0 0 504 504" enable-background="new 0 0 504 504" xml:space="preserve">
<rect opacity="0" fill="#FFFFFF" width="36288" height="36288"/>
<g>
	<defs>
		<rect id="SVGID_1_" x="59.04" y="59.04" width="414.72" height="371.52"/>
	</defs>
	<clipPath id="SVGID_2_">
		<use xlink:href="#SVGID_1_"  overflow="visible"/>
	</clipPath>
	<g clip-path="url(#SVGID_2_)">
		<circle opacity="0" fill="#FFFFFF" cx="74.4" cy="72.8" r="2.7"/>
		
			<circle fill="none" stroke="#000000" stroke-width="0.75" stroke-linecap="round" stroke-linejoin="round" stroke-miterlimit="10" cx="74.4" cy="72.8" r="2.7"/>
	</g>
	<g clip-path="url(#SVGID_2_)">
		<circle opacity="0" fill="#FFFFFF" cx="80.973" cy="141.6" r="2.7"/>
		
			<circle fill="none" stroke="#000000" stroke-width="0.75" stroke-linecap="round" stroke-linejoin="round" stroke-miterlimit="10" cx="80.973" cy="141.6" r="2.7"/>
	</g>
	<g clip-path="url(#SVGID_2_)">
		<circle opacity="0" fill="#FFFFFF" cx="87.546" cy="182.88" r="2.7"/>
		
			<circle fill="none" stroke="#000000" stroke-width="0.75" stroke-linecap="round" stroke-linejoin="round" stroke-miterlimit="10" cx="87.546" cy="182.88" r="2.7"/>
	</g>
	<g clip-path="url(#SVGID_2_)">
		<circle opacity="0" fill="#FFFFFF" cx="94.119" cy="210.4" r="2.7"/>
		
			<circle fill="none" stroke="#000000" stroke-width="0.75" stroke-linecap="round" stroke-linejoin="round" stroke-miterlimit="10" cx="94.119" cy="210.4" r="2.7"/>
	</g>
	<g clip-path="url(#SVGID_2_)">
		<circle opacity="0" fill="#FFFFFF" cx="114.469" cy="196.64" r="2.7"/>
		
			<circle fill="none" stroke="#000000" stroke-width="0.75" stroke-linecap="round" stroke-linejoin="round" stroke-miterlimit="10" cx="114.469" cy="196.64" r="2.7"/>
	</g>
	<g clip-path="url(#SVGID_2_)">
		<circle opacity="0" fill="#FFFFFF" cx="124.487" cy="72.8" r="2.7"/>
		
			<circle fill="none" stroke="#000000" stroke-width="0.75" stroke-linecap="round" stroke-linejoin="round" stroke-miterlimit="10" cx="124.487" cy="72.8" r="2.7"/>
	</g>
	<g clip-path="url(#SVGID_2_)">
		<circle opacity="0" fill="#FFFFFF" cx="141.183" cy="141.6" r="2.7"/>
		
			<circle fill="none" stroke="#000000" stroke-width="0.75" stroke-linecap="round" stroke-linejoin="round" stroke-miterlimit="10" cx="141.183" cy="141.6" r="2.7"/>
	</g>
	<g clip-path="url(#SVGID_2_)">
		<circle opacity="0" fill="#FFFFFF" cx="157.878" cy="182.88" r="2.7"/>
		
			<circle fill="none" stroke="#000000" stroke-width="0.75" stroke-linecap="round" stroke-linejoin="round" stroke-miterlimit="10" cx="157.878" cy="182.88" r="2.7"/>
	</g>
	<g clip-path="url(#SVGID_2_)">
		<circle opacity="0" fill="#FFFFFF" cx="174.574" cy="210.4" r="2.7"/>
		
			<circle fill="none" stroke="#000000" stroke-width="0.75" stroke-linecap="round" stroke-linejoin="round" stroke-miterlimit="10" cx="174.574" cy="210.4" r="2.7"/>
	</g>
	<g clip-path="url(#SVGID_2_)">
		<circle opacity="0" fill="#FFFFFF" cx="191.27" cy="210.4" r="2.7"/>
		
			<circle fill="none" stroke="#000000" stroke-width="0.75" stroke-linecap="round" stroke-linejoin="round" stroke-miterlimit="10" cx="191.27" cy="210.4" r="2.7"/>
	</g>
	<g clip-path="url(#SVGID_2_)">
		<circle opacity="0" fill="#FFFFFF" cx="207.965" cy="279.2" r="2.7"/>
		
			<circle fill="none" stroke="#000000" stroke-width="0.75" stroke-linecap="round" stroke-linejoin="round" stroke-miterlimit="10" cx="207.965" cy="279.2" r="2.7"/>
	</g>
	<g clip-path="url(#SVGID_2_)">
		<circle opacity="0" fill="#FFFFFF" cx="224.661" cy="292.96" r="2.7"/>
		
			<circle fill="none" stroke="#000000" stroke-width="0.75" stroke-linecap="round" stroke-linejoin="round" stroke-miterlimit="10" cx="224.661" cy="292.96" r="2.7"/>
	</g>
	<g clip-path="url(#SVGID_2_)">
		<circle opacity="0" fill="#FFFFFF" cx="241.356" cy="306.72" r="2.7"/>
		
			<circle fill="none" stroke="#000000" stroke-width="0.75" stroke-linecap="round" stroke-linejoin="round" stroke-miterlimit="10" cx="241.356" cy="306.72" r="2.7"/>
	</g>
	<g clip-path="url(#SVGID_2_)">
		<circle opacity="0" fill="#FFFFFF" cx="258.052" cy="348" r="2.7"/>
		
			<circle fill="none" stroke="#000000" stroke-width="0.75" stroke-linecap="round" stroke-linejoin="round" stroke-miterlimit="10" cx="258.052" cy="348" r="2.7"/>
	</g>
	<g clip-path="url(#SVGID_2_)">
		<circle opacity="0" fill="#FFFFFF" cx="274.748" cy="348" r="2.7"/>
		
			<circle fill="none" stroke="#000000" stroke-width="0.75" stroke-linecap="round" stroke-linejoin="round" stroke-miterlimit="10" cx="274.748" cy="348" r="2.7"/>
	</g>
	<g clip-path="url(#SVGID_2_)">
		<circle opacity="0" fill="#FFFFFF" cx="291.443" cy="348" r="2.7"/>
		
			<circle fill="none" stroke="#000000" stroke-width="0.75" stroke-linecap="round" stroke-linejoin="round" stroke-miterlimit="10" cx="291.443" cy="348" r="2.7"/>
	</g>
	<g clip-path="url(#SVGID_2_)">
		<circle opacity="0" fill="#FFFFFF" cx="458.4" cy="416.8" r="2.7"/>
		
			<circle fill="none" stroke="#000000" stroke-width="0.75" stroke-linecap="round" stroke-linejoin="round" stroke-miterlimit="10" cx="458.4" cy="416.8" r="2.7"/>
	</g>
</g>
<g>
	<defs>
		<rect id="SVGID_3_" width="504" height="504"/>
	</defs>
	<clipPath id="SVGID_4_">
		<use xlink:href="#SVGID_3_"  overflow="visible"/>
	</clipPath>
	
		<line clip-path="url(#SVGID_4_)" fill="none" stroke="#000000" stroke-width="0.75" stroke-linecap="round" stroke-linejoin="round" stroke-miterlimit="10" x1="74.4" y1="430.56" x2="468.785" y2="430.56"/>
	
		<line clip-path="url(#SVGID_4_)" fill="none" stroke="#000000" stroke-width="0.75" stroke-linecap="round" stroke-linejoin="round" stroke-miterlimit="10" x1="74.4" y1="430.56" x2="74.4" y2="437.76"/>
	
		<line clip-path="url(#SVGID_4_)" fill="none" stroke="#000000" stroke-width="0.75" stroke-linecap="round" stroke-linejoin="round" stroke-miterlimit="10" x1="140.131" y1="430.56" x2="140.131" y2="437.76"/>
	
		<line clip-path="url(#SVGID_4_)" fill="none" stroke="#000000" stroke-width="0.75" stroke-linecap="round" stroke-linejoin="round" stroke-miterlimit="10" x1="205.862" y1="430.56" x2="205.862" y2="437.76"/>
	
		<line clip-path="url(#SVGID_4_)" fill="none" stroke="#000000" stroke-width="0.75" stroke-linecap="round" stroke-linejoin="round" stroke-miterlimit="10" x1="271.593" y1="430.56" x2="271.593" y2="437.76"/>
	
		<line clip-path="url(#SVGID_4_)" fill="none" stroke="#000000" stroke-width="0.75" stroke-linecap="round" stroke-linejoin="round" stroke-miterlimit="10" x1="337.323" y1="430.56" x2="337.323" y2="437.76"/>
	
		<line clip-path="url(#SVGID_4_)" fill="none" stroke="#000000" stroke-width="0.75" stroke-linecap="round" stroke-linejoin="round" stroke-miterlimit="10" x1="403.055" y1="430.56" x2="403.055" y2="437.76"/>
	
		<line clip-path="url(#SVGID_4_)" fill="none" stroke="#000000" stroke-width="0.75" stroke-linecap="round" stroke-linejoin="round" stroke-miterlimit="10" x1="468.785" y1="430.56" x2="468.785" y2="437.76"/>
	<g clip-path="url(#SVGID_4_)">
		<text transform="matrix(1 0 0 1 71.063 456.4805)" font-family="'ArialMT'" font-size="12">0</text>
	</g>
	<g clip-path="url(#SVGID_4_)">
		<text transform="matrix(1 0 0 1 133.457 456.4805)" font-family="'ArialMT'" font-size="12">50</text>
	</g>
	<g clip-path="url(#SVGID_4_)">
		<text transform="matrix(1 0 0 1 195.8511 456.4805)" font-family="'ArialMT'" font-size="12">100</text>
	</g>
	<g clip-path="url(#SVGID_4_)">
		<text transform="matrix(1 0 0 1 261.582 456.4805)" font-family="'ArialMT'" font-size="12">150</text>
	</g>
	<g clip-path="url(#SVGID_4_)">
		<text transform="matrix(1 0 0 1 327.3125 456.4805)" font-family="'ArialMT'" font-size="12">200</text>
	</g>
	<g clip-path="url(#SVGID_4_)">
		<text transform="matrix(1 0 0 1 393.0439 456.4805)" font-family="'ArialMT'" font-size="12">250</text>
	</g>
	<g clip-path="url(#SVGID_4_)">
		<text transform="matrix(1 0 0 1 458.7744 456.4805)" font-family="'ArialMT'" font-size="12">300</text>
	</g>
	
		<line clip-path="url(#SVGID_4_)" fill="none" stroke="#000000" stroke-width="0.75" stroke-linecap="round" stroke-linejoin="round" stroke-miterlimit="10" x1="59.04" y1="430.56" x2="59.04" y2="100.32"/>
	
		<line clip-path="url(#SVGID_4_)" fill="none" stroke="#000000" stroke-width="0.75" stroke-linecap="round" stroke-linejoin="round" stroke-miterlimit="10" x1="59.04" y1="430.56" x2="51.84" y2="430.56"/>
	
		<line clip-path="url(#SVGID_4_)" fill="none" stroke="#000000" stroke-width="0.75" stroke-linecap="round" stroke-linejoin="round" stroke-miterlimit="10" x1="59.04" y1="375.52" x2="51.84" y2="375.52"/>
	
		<line clip-path="url(#SVGID_4_)" fill="none" stroke="#000000" stroke-width="0.75" stroke-linecap="round" stroke-linejoin="round" stroke-miterlimit="10" x1="59.04" y1="320.48" x2="51.84" y2="320.48"/>
	
		<line clip-path="url(#SVGID_4_)" fill="none" stroke="#000000" stroke-width="0.75" stroke-linecap="round" stroke-linejoin="round" stroke-miterlimit="10" x1="59.04" y1="265.44" x2="51.84" y2="265.44"/>
	
		<line clip-path="url(#SVGID_4_)" fill="none" stroke="#000000" stroke-width="0.75" stroke-linecap="round" stroke-linejoin="round" stroke-miterlimit="10" x1="59.04" y1="210.4" x2="51.84" y2="210.4"/>
	
		<line clip-path="url(#SVGID_4_)" fill="none" stroke="#000000" stroke-width="0.75" stroke-linecap="round" stroke-linejoin="round" stroke-miterlimit="10" x1="59.04" y1="155.36" x2="51.84" y2="155.36"/>
	
		<line clip-path="url(#SVGID_4_)" fill="none" stroke="#000000" stroke-width="0.75" stroke-linecap="round" stroke-linejoin="round" stroke-miterlimit="10" x1="59.04" y1="100.32" x2="51.84" y2="100.32"/>
	<g clip-path="url(#SVGID_4_)">
		<text transform="matrix(6.123234e-17 -1 1 6.123234e-17 41.7598 440.5703)" font-family="'ArialMT'" font-size="12">120</text>
	</g>
	<g clip-path="url(#SVGID_4_)">
		<text transform="matrix(6.123234e-17 -1 1 6.123234e-17 41.7598 385.5312)" font-family="'ArialMT'" font-size="12">140</text>
	</g>
	<g clip-path="url(#SVGID_4_)">
		<text transform="matrix(6.123234e-17 -1 1 6.123234e-17 41.7598 330.4902)" font-family="'ArialMT'" font-size="12">160</text>
	</g>
	<g clip-path="url(#SVGID_4_)">
		<text transform="matrix(6.123234e-17 -1 1 6.123234e-17 41.7603 275.4512)" font-family="'ArialMT'" font-size="12">180</text>
	</g>
	<g clip-path="url(#SVGID_4_)">
		<text transform="matrix(6.123234e-17 -1 1 6.123234e-17 41.7598 220.4111)" font-family="'ArialMT'" font-size="12">200</text>
	</g>
	<g clip-path="url(#SVGID_4_)">
		<text transform="matrix(6.123234e-17 -1 1 6.123234e-17 41.7598 165.3711)" font-family="'ArialMT'" font-size="12">220</text>
	</g>
	<g clip-path="url(#SVGID_4_)">
		<text transform="matrix(6.123234e-17 -1 1 6.123234e-17 41.7598 110.3311)" font-family="'ArialMT'" font-size="12">240</text>
	</g>
	
		<polyline clip-path="url(#SVGID_4_)" fill="none" stroke="#000000" stroke-width="0.75" stroke-linecap="round" stroke-linejoin="round" stroke-miterlimit="10" points="
		59.04,430.56 473.76,430.56 473.76,59.04 59.04,59.04 59.04,430.56 	"/>
</g>
<g>
	<defs>
		<rect id="SVGID_5_" width="504" height="504"/>
	</defs>
	<clipPath id="SVGID_6_">
		<use xlink:href="#SVGID_5_"  overflow="visible"/>
	</clipPath>
	<g clip-path="url(#SVGID_6_)">
		<text transform="matrix(1 0 0 1 107.1211 34.6738)" font-family="'Arial-BoldMT'" font-size="14.4">Receiver Voltage vs Emitter-Receiver Distance</text>
	</g>
	<g clip-path="url(#SVGID_6_)">
		<text transform="matrix(1 0 0 1 229.395 485.2803)" font-family="'ArialMT'" font-size="12">Distance (cm)</text>
	</g>
	<g clip-path="url(#SVGID_6_)">
		<text transform="matrix(6.123234e-17 -1 1 6.123234e-17 12.96 279.8135)" font-family="'ArialMT'" font-size="12">Voltage (mV)</text>
	</g>
</g>
<g>
	<defs>
		<rect id="SVGID_7_" x="59.04" y="59.04" width="414.72" height="371.52"/>
	</defs>
	<clipPath id="SVGID_8_">
		<use xlink:href="#SVGID_7_"  overflow="visible"/>
	</clipPath>
	
		<polyline clip-path="url(#SVGID_8_)" fill="none" stroke="#FF0000" stroke-width="0.75" stroke-linecap="round" stroke-linejoin="round" stroke-miterlimit="10" points="
		113.551,0 114.922,9.44 116.853,21.884 118.782,33.582 120.711,44.608 122.641,55.028 124.571,64.896 126.5,74.261 128.43,83.166 
		130.36,91.649 132.29,99.744 134.219,107.48 136.149,114.884 138.079,121.98 140.008,128.79 141.938,135.333 143.867,141.626 
		145.797,147.687 147.727,153.529 149.656,159.166 151.586,164.609 153.516,169.871 155.445,174.961 157.375,179.889 
		159.305,184.664 161.234,189.293 163.164,193.785 165.094,198.146 167.023,202.382 168.953,206.5 170.882,210.506 172.812,214.404 
		174.742,218.2 176.671,221.898 178.601,225.502 180.531,229.017 182.46,232.445 184.39,235.792 186.32,239.06 188.249,242.252 
		190.179,245.371 192.108,248.421 194.038,251.403 195.968,254.32 197.897,257.176 199.827,259.972 201.757,262.709 
		203.687,265.391 205.616,268.019 207.546,270.595 209.476,273.12 211.405,275.598 213.334,278.027 215.264,280.412 
		217.194,282.753 219.124,285.051 221.053,287.308 222.983,289.524 224.913,291.703 226.842,293.843 228.772,295.947 
		230.702,298.016 232.631,300.05 234.561,302.05 236.491,304.019 238.42,305.955 240.35,307.86 242.279,309.736 244.209,311.584 
		246.139,313.402 248.068,315.193 249.998,316.957 251.928,318.695 253.857,320.408 255.787,322.096 257.717,323.759 
		259.646,325.398 261.576,327.016 263.506,328.61 265.436,330.183 267.365,331.733 269.295,333.264 271.224,334.772 
		273.154,336.262 275.083,337.732 277.013,339.184 278.942,340.615 280.872,342.029 282.802,343.426 284.731,344.805 
		286.661,346.166 288.591,347.511 290.521,348.84 292.45,350.152 294.38,351.449 296.31,352.73 298.239,353.997 300.169,355.248 
		302.099,356.485 304.028,357.709 	"/>
	
		<polyline clip-path="url(#SVGID_8_)" fill="none" stroke="#FF0000" stroke-width="0.75" stroke-linecap="round" stroke-linejoin="round" stroke-miterlimit="10" points="
		304.028,357.709 305.958,358.918 307.888,360.113 309.817,361.295 311.747,362.465 313.677,363.621 315.606,364.765 
		317.536,365.896 319.465,367.015 321.395,368.122 323.324,369.218 325.254,370.302 327.184,371.374 329.113,372.437 
		331.043,373.487 332.973,374.527 334.902,375.557 336.832,376.576 338.762,377.585 340.691,378.585 342.621,379.574 
		344.551,380.554 346.48,381.524 348.41,382.485 350.34,383.438 352.27,384.38 354.199,385.314 356.129,386.239 358.059,387.156 
		359.988,388.064 361.918,388.964 363.848,389.856 365.777,390.74 367.706,391.616 369.636,392.484 371.565,393.345 
		373.495,394.197 375.425,395.043 377.354,395.881 379.284,396.712 381.214,397.535 383.144,398.352 385.073,399.162 
		387.003,399.965 388.933,400.761 390.862,401.551 392.792,402.334 394.722,403.11 396.651,403.881 398.581,404.646 
		400.511,405.403 402.44,406.155 404.37,406.901 406.3,407.641 408.229,408.375 410.159,409.104 412.089,409.826 414.019,410.544 
		415.947,411.256 417.877,411.962 419.807,412.662 421.736,413.358 423.666,414.049 425.596,414.733 427.525,415.414 
		429.455,416.089 431.385,416.759 433.314,417.424 435.244,418.085 437.174,418.74 439.104,419.391 441.033,420.037 
		442.963,420.679 444.893,421.315 446.822,421.948 448.752,422.576 450.682,423.2 452.611,423.819 454.541,424.435 456.471,425.045 
		458.4,425.652 	"/>
</g>
</svg>
